<svg width="186" height="32" viewBox="0 0 186 32" fill="none" xmlns="http://www.w3.org/2000/svg"><g clip-path="url(#clip0)"><path d="M11.889 11.928c1.246 1.163 2.013 2.909 2.013 4.848 0 1.745-.575 3.49-2.013 4.848-1.15 1.164-2.78 1.94-4.986 1.94-2.397 0-4.027-.97-4.985-1.94C.67 20.461-.096 18.715-.096 16.776c0-1.842.863-3.782 2.014-4.945.862-.873 2.492-1.94 4.985-1.94 2.11.097 3.74.776 4.986 2.037zm-7.766 1.939c-.576.582-1.15 1.454-1.15 2.909 0 1.164.383 2.133 1.15 2.91.863.775 1.725 1.066 2.78 1.066 1.342 0 2.205-.485 2.876-1.067.48-.485 1.15-1.357 1.15-2.909 0-1.358-.574-2.327-1.15-2.91C9.11 13.287 8.15 12.8 7 12.8s-2.11.388-2.876 1.067zm21.955-3.588c1.63 0 2.685.582 3.26 1.163.575.485 1.15 1.455 1.15 2.91 0 .775-.191 1.842-.958 2.618-.48.388-1.055.776-1.822.97l3.931 5.333h-3.643l-3.452-5.14v5.14h-2.972V10.279h4.506zm-1.534 5.915h.671c.576 0 1.247-.097 1.726-.582.192-.194.48-.582.48-1.26 0-.776-.384-1.164-.576-1.358-.479-.388-1.246-.388-1.63-.388h-.67v3.588zm20.326 0h6.328v.097c0 1.552-.575 3.976-2.013 5.43-1.439 1.455-3.069 1.746-4.602 1.746-1.535 0-3.164-.291-4.698-1.843-.767-.775-1.918-2.327-1.918-4.945 0-2.133.767-3.782 1.822-4.945 1.534-1.649 3.547-1.843 4.985-1.843 1.055 0 2.397.194 3.548.97a6.94 6.94 0 012.109 2.327l-2.685 1.455c-.287-.485-.67-1.067-1.15-1.358a3.429 3.429 0 00-1.918-.582c-1.15 0-2.013.388-2.684 1.067-.671.776-1.055 1.842-1.055 3.103 0 1.454.575 2.424 1.055 3.006.767.776 1.63.97 2.589.97 1.246 0 1.917-.485 2.205-.68.096-.096.67-.58.958-1.55h-3.068v-2.425h.192zm21.189 4.558h-4.794l-.959 2.424h-3.068l5.082-12.897h2.684l5.082 12.994h-3.069l-.958-2.521zm-.863-2.23l-1.534-4.364-1.63 4.363h3.164zm11.793 4.751V10.279h2.588l6.903 8.34v-8.34h2.973v12.994h-2.59l-6.902-8.34v8.34h-2.972zm23.777-12.994v12.994h-2.972V10.279h2.972zm12.176 10.473h5.465v2.52h-10.354l6.136-10.375h-5.178v-2.521h9.971l-6.04 10.376zm20.71-7.952h-4.315v2.521h4.027v2.521h-4.027v2.91h4.315v2.52h-7.191V10.28h7.191v2.52zm11.888-2.521c1.726 0 3.452.29 5.082 1.745 1.15 1.067 1.821 2.618 1.821 4.655 0 2.036-.671 3.49-1.725 4.557-1.726 1.843-3.931 1.94-5.082 1.94h-4.123V10.279h4.027zm-1.054 10.473h.767c.575 0 1.917-.097 2.876-.873.671-.582 1.246-1.649 1.246-3.103 0-1.358-.575-2.328-1.054-2.812-.959-.97-2.206-1.067-3.068-1.067h-.767v7.854z" fill="#fff"/><path d="M166.441 28.897l1.343 1.745s1.725-1.26 4.41-1.26c3.739 0 4.698 2.618 8.053 2.618 2.685 0 4.698-1.746 5.753-3.394l-1.726-3.394s-1.726 1.358-3.355 1.358c-2.397 0-4.411-1.358-7.095-1.358-2.685 0-5.369 1.358-7.383 3.685z" fill="#FF664D"/><path d="M173.272 0C166.465 0 161 4.655 161 13.09c0 8.437 5.465 13.092 12.272 13.092s12.272-4.655 12.272-13.091S180.079 0 173.272 0zm0 20.752c-3.643 0-6.519-2.716-6.519-7.661 0-4.946 2.972-7.66 6.519-7.66 3.548 0 6.52 2.714 6.52 7.66 0 4.945-2.877 7.66-6.52 7.66z" fill="#FF664D"/></g><defs><clipPath id="clip0"><path fill="#fff" d="M0 0h186v32H0z"/></clipPath></defs></svg>