<svg width="186" height="32" viewBox="0 0 186 32" fill="none" xmlns="http://www.w3.org/2000/svg">
<g clip-path="url(#clip0)">
<path d="M11.8886 11.9275C13.135 13.0911 13.9021 14.8366 13.9021 16.776C13.9021 18.5214 13.3268 20.2669 11.8886 21.6244C10.7381 22.7881 9.10824 23.5638 6.90308 23.5638C4.50617 23.5638 2.87628 22.5941 1.91752 21.6244C0.671124 20.4608 -0.0958862 18.7154 -0.0958862 16.776C-0.0958862 14.9335 0.767 12.9941 1.91752 11.8305C2.7804 10.9578 4.4103 9.89111 6.90308 9.89111C9.01236 9.98808 10.6423 10.6669 11.8886 11.9275ZM4.12267 13.8669C3.54741 14.4487 2.97215 15.3214 2.97215 16.776C2.97215 17.9396 3.35566 18.9093 4.12267 19.6851C4.98556 20.4608 5.84844 20.7517 6.90308 20.7517C8.24535 20.7517 9.10824 20.2669 9.77937 19.6851C10.2588 19.2002 10.9299 18.3275 10.9299 16.776C10.9299 15.4184 10.3546 14.4487 9.77937 13.8669C9.10824 13.2851 8.14947 12.8002 6.99896 12.8002C5.84844 12.8002 4.88968 13.1881 4.12267 13.8669Z" fill="white"/>
<path d="M26.0783 10.2788C27.7082 10.2788 28.7629 10.8606 29.3381 11.4424C29.9134 11.9273 30.4886 12.897 30.4886 14.3515C30.4886 15.1273 30.2969 16.194 29.5299 16.9697C29.0505 17.3576 28.4752 17.7455 27.7082 17.9394L31.6392 23.2727H27.9959L24.5443 18.1334V23.2727H21.5721V10.2788H26.0783ZM24.5443 16.194H25.2154C25.7907 16.194 26.4618 16.097 26.9412 15.6121C27.133 15.4182 27.4206 15.0303 27.4206 14.3515C27.4206 13.5758 27.0371 13.1879 26.8453 12.994C26.366 12.6061 25.5989 12.6061 25.2154 12.6061H24.5443V16.194Z" fill="white"/>
<path d="M44.8701 16.1941H51.198V16.2911C51.198 17.8426 50.6227 20.2669 49.1846 21.7214C47.7464 23.176 46.1165 23.4669 44.5825 23.4669C43.0485 23.4669 41.4186 23.176 39.8846 21.6244C39.1176 20.8487 37.967 19.2972 37.967 16.679C37.967 14.5457 38.7341 12.8972 39.7887 11.7335C41.3227 10.0851 43.3361 9.89111 44.7743 9.89111C45.8289 9.89111 47.1712 10.0851 48.3217 10.8608C49.1846 11.4426 49.9516 12.3154 50.431 13.1881L47.7464 14.6426C47.4588 14.1578 47.0753 13.576 46.5959 13.2851C46.0207 12.8972 45.3495 12.7032 44.6784 12.7032C43.5279 12.7032 42.665 13.0911 41.9938 13.7699C41.3227 14.5457 40.9392 15.6123 40.9392 16.8729C40.9392 18.3275 41.5145 19.2972 41.9938 19.879C42.7609 20.6548 43.6237 20.8487 44.5825 20.8487C45.8289 20.8487 46.5 20.3638 46.7877 20.1699C46.8835 20.0729 47.4588 19.5881 47.7464 18.6184H44.6784V16.1941H44.8701Z" fill="white"/>
<path d="M66.0588 20.7515H61.265L60.3062 23.1758H57.2382L62.3196 10.2788H65.0041L70.0856 23.2727H67.0175L66.0588 20.7515ZM65.1959 18.5212L63.6619 14.1576L62.032 18.5212H65.1959Z" fill="white"/>
<path d="M76.9886 23.2727V10.2788H79.5773L86.4804 18.6182V10.2788H89.4526V23.2727H86.8639L79.9608 14.9334V23.2727H76.9886Z" fill="white"/>
<path d="M100.766 10.2788V23.2727H97.7938V10.2788H100.766Z" fill="white"/>
<path d="M112.942 20.7517H118.407V23.2729H108.053L114.189 12.8972H109.011V10.376H118.982L112.942 20.7517Z" fill="white"/>
<path d="M133.652 12.8H129.337V15.3212H133.364V17.8424H129.337V20.7515H133.652V23.2727H126.461V10.2788H133.652V12.8Z" fill="white"/>
<path d="M145.54 10.2788C147.266 10.2788 148.992 10.5697 150.622 12.0243C151.772 13.0909 152.443 14.6424 152.443 16.6788C152.443 18.7152 151.772 20.1697 150.718 21.2364C148.992 23.0788 146.787 23.1758 145.636 23.1758H141.513V10.2788H145.54ZM144.486 20.7515H145.253C145.828 20.7515 147.17 20.6546 148.129 19.8788C148.8 19.297 149.375 18.2303 149.375 16.7758C149.375 15.4182 148.8 14.4485 148.321 13.9637C147.362 12.994 146.115 12.897 145.253 12.897H144.486V20.7515Z" fill="white"/>
<path d="M166.441 28.8968L167.784 30.6422C167.784 30.6422 169.509 29.3816 172.194 29.3816C175.933 29.3816 176.892 31.9998 180.247 31.9998C182.932 31.9998 184.945 30.2543 186 28.6059L184.274 25.2119C184.274 25.2119 182.548 26.5695 180.919 26.5695C178.522 26.5695 176.508 25.2119 173.824 25.2119C171.139 25.2119 168.455 26.5695 166.441 28.8968Z" fill="#FF664D"/>
<path d="M173.272 0C166.465 0 161 4.65454 161 13.0909C161 21.5273 166.465 26.1818 173.272 26.1818C180.079 26.1818 185.544 21.5273 185.544 13.0909C185.544 4.65454 180.079 0 173.272 0ZM173.272 20.7515C169.629 20.7515 166.753 18.0364 166.753 13.0909C166.753 8.14545 169.725 5.4303 173.272 5.4303C176.82 5.4303 179.792 8.14545 179.792 13.0909C179.792 18.0364 176.915 20.7515 173.272 20.7515Z" fill="#FF664D"/>
</g>
<defs>
<clipPath id="clip0">
<rect width="186" height="32" fill="white"/>
</clipPath>
</defs>
</svg>
