<svg width="39" height="55" viewBox="0 0 39 55" fill="none" xmlns="http://www.w3.org/2000/svg"><path d="M26.508 55h-1.772c0-.933-.021-1.845.01-2.767.012-.215.184-.44.312-.633 1.547-2.23 3.094-4.462 4.64-6.703 1.955-2.821 3.212-5.92 3.781-9.396-.59 0-1.15-.021-1.708.011-.107.01-.257.193-.29.322-.891 3.69-3.04 6.692-5.22 9.685-.74 1.008-1.75 1.512-2.996 1.512h-7.777c-1.052 0-2.03-.322-2.663-1.148-2.224-2.885-4.361-5.834-5.35-9.427-.268-.966-.279-.955-1.267-.955h-.913c.365 2.381 1.031 4.644 2.18 6.693 1.053 1.866 2.288 3.625 3.47 5.405.891 1.341 1.847 2.628 2.728 3.98.215.332.333.772.365 1.169.054.729.022 1.47.022 2.241h-1.783c0-.343-.043-.708.01-1.061.119-.901-.193-1.62-.72-2.339-1.331-1.823-2.577-3.7-3.866-5.545-2.32-3.292-3.727-6.918-4.275-10.886-.15-1.094.14-1.427 1.236-1.427.977 0 1.965.011 2.943-.01.58-.01.945.225 1.117.783l.644 2.059c.73 2.328 2.02 4.344 3.416 6.307.386.547.773 1.083 1.16 1.62.333.45.773.718 1.364.76-1.805-3.26-1.568-5.802.698-7.657a5.324 5.324 0 016.799.064c2.223 1.888 2.427 4.43.633 7.562.033.042.054.096.087.139.386-.236.902-.386 1.149-.719 1.847-2.467 3.695-4.944 4.683-7.926.247-.74.472-1.48.698-2.22.161-.536.515-.772 1.074-.762 1.053.011 2.105 0 3.168 0 .838.011 1.182.408 1.075 1.234a24.678 24.678 0 01-4.318 11.144c-1.386 1.984-2.75 3.979-4.146 5.963-.28.397-.43.783-.398 1.276.022.515 0 1.051 0 1.652zM15.832 41.69a3.534 3.534 0 003.49 3.571c1.956.022 3.599-1.576 3.61-3.528.01-1.93-1.58-3.55-3.513-3.561a3.53 3.53 0 00-3.587 3.518z" fill="#FFAAA1"/><path d="M32.931 23.081c-.537-.171-.762.15-.934.719-.193.654-.494 1.276-.795 1.877-.15.3-.14.493.118.718.237.204.451.44.655.676.344.397.355.88-.01 1.244a311.189 311.189 0 01-3.77 3.765c-.366.364-.935.386-1.236-.022-.665-.933-1.374-.9-2.255-.332-.376.247-.849.365-1.289.483-.354.096-.44.278-.451.622-.01 1.748-.064 1.79-1.815 1.79h-4.114c-.902 0-1.181-.289-1.181-1.2 0-1.009-.011-.998-.989-1.384a17.914 17.914 0 01-1.665-.75c-.257-.13-.43-.13-.622.096-.205.236-.44.45-.677.654-.44.386-.924.397-1.332-.01a399.676 399.676 0 01-3.695-3.69c-.408-.408-.44-.976.022-1.32.88-.643.913-1.297.333-2.155-.28-.419-.355-.966-.57-1.438-.075-.15-.279-.31-.45-.332-.323-.054-.667-.01-1-.032-.558-.032-.902-.354-.913-.912-.01-1.759-.01-3.507 0-5.266 0-.58.376-.976.956-.901 1.031.15 1.536-.236 1.73-1.244.085-.461.333-.901.58-1.309.225-.364.128-.568-.14-.847-1.182-1.201-1.182-1.287.01-2.478l2.944-2.938c.612-.612 1.052-.612 1.654-.022.762.751.762.74 1.761.3.537-.235 1.096-.45 1.654-.632.28-.086.387-.215.376-.504a7.722 7.722 0 01.011-.998c.032-.525.354-.869.892-.869a220.53 220.53 0 015.327 0c.526 0 .838.354.88.88v.054c-.236 1.05.226 1.576 1.257 1.758.42.076.849.3 1.214.537.419.279.698.182.977-.172a4.56 4.56 0 01.516-.504c.419-.365.902-.397 1.289-.01a243.62 243.62 0 013.727 3.721c.397.408.43.976-.032 1.32-.892.643-.892 1.308-.322 2.155.257.386.386.88.515 1.34.097.355.28.44.623.451 1.762.011 1.783.054 1.783 1.824v3.775c.032 1.33-.15 1.512-1.547 1.512zm-2.91 4.548c-.688-.6-1.02-1.352-.634-2.296.397-.954.795-1.898 1.192-2.852.3-.74.849-1.137 1.654-1.18.161-.01.312-.022.451-.032V17.75c-1.063.064-1.793-.311-2.17-1.309a55.146 55.146 0 00-1.073-2.606c-.323-.73-.29-1.394.215-2.027.128-.15.268-.3.343-.386a518.15 518.15 0 01-2.46-2.5c-1.117.977-1.525.998-2.921.322-.677-.332-1.396-.568-2.105-.825-.752-.269-1.214-.762-1.321-1.556-.022-.193-.022-.396-.032-.622h-3.523c.042.966-.237 1.738-1.182 2.113-.956.386-1.912.794-2.857 1.19-.72.301-1.375.194-1.966-.31a7.731 7.731 0 00-.322-.28l-2.492 2.49c.71.632.988 1.404.548 2.38a72.27 72.27 0 00-1.106 2.65c-.312.793-.881 1.222-1.719 1.254-.14.01-.28 0-.44 0v3.55c1.364-.118 2.02.601 2.33 1.813.14.547.398 1.073.656 1.587.709 1.438.687 1.802-.322 2.971.827.815 1.654 1.641 2.502 2.478.623-.719 1.386-1.04 2.342-.633.934.397 1.869.783 2.814 1.158.74.3 1.138.848 1.192 1.641.01.161.022.322.022.472h3.512c.096-1.49.376-1.834 1.75-2.295.666-.225 1.29-.536 1.945-.815.236-.097.461-.236.708-.3.838-.215 1.472.171 1.966.729.838-.794 1.665-1.62 2.503-2.456zM39 18.941v1.845c-.602-.032-1.139-.064-1.718-.086v-1.652c.58-.032 1.138-.075 1.718-.107zM23.855 2.306c.15-.569.28-1.105.43-1.705.58.171 1.117.321 1.73.504-.205.579-.387 1.115-.591 1.673-.537-.161-1.042-.311-1.569-.472zm13.384 25.451c-.57-.268-1.064-.493-1.6-.75.203-.504.396-.987.611-1.513.559.204 1.085.387 1.665.59-.225.58-.44 1.094-.676 1.673zM15.714 2.177c-.537.14-1.031.28-1.58.419-.182-.558-.354-1.094-.536-1.684.59-.161 1.15-.3 1.74-.462.129.59.247 1.116.376 1.727zM17.12.15c.624-.053 1.172-.096 1.773-.15v1.77c-.483.043-.999.085-1.557.128-.075-.59-.14-1.126-.215-1.748zm16.424 5.792c.419.472.795.9 1.192 1.351-.473.376-.913.73-1.375 1.105-.365-.408-.709-.794-1.02-1.137.397-.44.773-.847 1.203-1.32zM2.739 13.6l-1.676-.59c.226-.558.43-1.073.666-1.663.548.247 1.053.483 1.6.74-.182.494-.375.966-.59 1.513zm35.401 0c-.6.193-1.116.354-1.686.536-.193-.504-.365-.976-.569-1.523.526-.225 1.042-.45 1.622-.708.215.58.408 1.094.634 1.695zM10.268 2.317c.548-.268 1.064-.504 1.622-.783.236.557.462 1.072.688 1.63-.505.247-.967.461-1.472.708a56.932 56.932 0 00-.838-1.555zM37.077 22.32c.602.096 1.139.193 1.74.29-.118.59-.225 1.125-.343 1.747-.591-.15-1.15-.29-1.73-.44.108-.546.215-1.04.333-1.597zM3.169 30.278c-.344-.569-.613-1.03-.913-1.545.526-.279 1.02-.547 1.546-.836.28.46.548.9.849 1.405-.484.322-.967.643-1.482.976zM22.524.236c-.108.654-.194 1.18-.28 1.738-.537-.054-1.042-.108-1.622-.172.043-.59.076-1.148.119-1.759.612.064 1.181.129 1.783.193zM2.578 9.739c.344-.537.655-1.009.988-1.513.494.354.956.687 1.44 1.03-.302.461-.58.89-.882 1.373a156 156 0 00-1.546-.89zm31.761-.011c.515-.343.977-.644 1.471-.976.311.504.601.987.934 1.534-.515.29-1.01.557-1.546.858-.29-.472-.559-.923-.86-1.416zM28.41 4.15c-.505-.268-.956-.493-1.45-.75.236-.526.472-1.03.74-1.598.538.268 1.032.525 1.601.815-.311.504-.59.987-.891 1.534zm2.395-.546c.472.364.923.708 1.428 1.094-.386.46-.752.88-1.149 1.351-.43-.332-.849-.654-1.3-.997.344-.483.666-.944 1.02-1.448zm8.098 13.525c-.633.075-1.16.139-1.74.214-.096-.536-.182-1.03-.279-1.598.57-.129 1.117-.247 1.73-.386.096.59.182 1.137.29 1.77zM36.4 29.355c-.322.505-.633.976-.977 1.513-.483-.343-.945-.665-1.439-1.03.29-.461.58-.9.88-1.383.527.31 1.01.59 1.537.9zM.172 16.496c.14-.622.258-1.18.376-1.76.58.151 1.106.28 1.708.43-.108.536-.215 1.04-.323 1.598-.58-.086-1.138-.172-1.761-.268zM8.389 5.684c-.387-.472-.73-.911-1.117-1.383L8.71 3.239c.322.472.623.933.977 1.448l-1.3.997zM2.116 23.285c-.58.129-1.106.247-1.719.386-.096-.6-.193-1.17-.3-1.77.601-.075 1.138-.14 1.75-.214.086.525.172 1.04.269 1.598zm.988 3.132c-.548.236-1.063.45-1.633.686-.214-.568-.408-1.094-.633-1.684.569-.182 1.095-.354 1.686-.547.204.526.387 1.009.58 1.545zM0 20.089v-1.802c.59.032 1.139.075 1.708.107v1.588A92.05 92.05 0 010 20.089zM7.153 6.746c-.397.43-.74.794-1.127 1.212-.44-.386-.87-.75-1.343-1.158.419-.44.806-.858 1.16-1.234.44.408.86.783 1.31 1.18z" fill="#FFAAA1"/><path d="M29.172 19.51c.01 5.384-4.382 9.781-9.763 9.781-5.392 0-9.785-4.387-9.785-9.77 0-5.364 4.371-9.74 9.742-9.75 5.392-.011 9.795 4.354 9.806 9.738zm-1.783.02c0-4.386-3.577-7.979-7.959-7.99-4.414-.01-8.023 3.572-8.023 7.98 0 4.387 3.576 7.98 7.97 7.99 4.414.011 8.012-3.56 8.012-7.98z" fill="#FFAAA1"/><path d="M15.81 23.102c.097-.568.205-1.244.333-1.909.065-.343.011-.59-.268-.826-.462-.396-.87-.847-1.31-1.276-.301-.29-.484-.611-.323-1.04.15-.418.494-.569.903-.622.601-.086 1.213-.14 1.804-.268.226-.054.494-.236.612-.44.323-.558.537-1.18.892-1.716.172-.268.548-.537.848-.547.269-.01.634.279.795.536.344.536.559 1.158.892 1.716.128.215.408.408.655.461.59.14 1.203.183 1.804.268.408.054.817.215.849.655a1.54 1.54 0 01-.312.976c-.386.482-.902.869-1.32 1.34a1.022 1.022 0 00-.248.708c.054.6.194 1.202.3 1.802.076.418.055.815-.343 1.094-.376.258-.73.172-1.095-.043-.011-.01-.033-.01-.054-.021-.655-.333-1.321-.912-1.976-.912-.656 0-1.31.6-1.977.933-.794.408-1.482.054-1.46-.869zm4.812-1.415c-.032-.633-.182-1.148-.043-1.566.14-.43.58-.75.967-1.223-1.214.107-1.912-.429-2.266-1.544-.322 1.147-1.085 1.62-2.245 1.651 1.074.633 1.203 1.523.86 2.607.912-.644 1.793-.762 2.727.075z" fill="#FFAAA1"/></svg>