<svg width="339" height="435" viewBox="0 0 339 435" fill="none" xmlns="http://www.w3.org/2000/svg"><path d="M76.84 393.352l18.08 23.138s22.6-16.659 58.76-16.659c49.72 0 63.28 35.17 108.48 35.17 36.16 0 63.28-23.138 76.84-46.277l-22.6-46.276s-22.6 18.51-45.2 18.51c-31.64 0-58.76-18.51-94.92-18.51-36.16 0-72.32 18.51-99.44 50.904z" fill="#737373"/><path d="M164.98 0C73.676 0 0 63.399 0 178.165 0 292.931 73.676 356.33 164.98 356.33c91.304 0 164.98-63.399 164.98-178.165C329.96 63.399 256.284 0 164.98 0zm0 282.287c-48.816 0-88.14-37.021-88.14-104.122s39.324-104.122 88.14-104.122 88.14 37.021 88.14 104.122-39.324 104.122-88.14 104.122z" fill="#737373"/></svg>