<svg width="74" height="66" viewBox="0 0 74 66" fill="none" xmlns="http://www.w3.org/2000/svg"><path d="M21.088 22.725h25.63a1.084 1.084 0 100-2.168h-25.63a1.084 1.084 0 100 2.168zm0 5.952h25.63a1.084 1.084 0 100-2.168h-25.63a1.084 1.084 0 100 2.168zm0 5.953h13.648a1.084 1.084 0 100-2.168H21.088a1.084 1.084 0 100 2.168zm0 5.952h13.648a1.084 1.084 0 100-2.168H21.088a1.084 1.084 0 100 2.168zm.818-25.156H46.22c.873 0 1.583-.71 1.583-1.582V7.22c0-.873-.71-1.583-1.583-1.583H28.97a1.084 1.084 0 100 2.168h16.665v5.453H22.492V7.805H23.9a1.084 1.084 0 100-2.168h-1.995c-.872 0-1.582.71-1.582 1.583v6.624c0 .872.71 1.582 1.582 1.582zM46.33 32.462h-6.395c-.988 0-1.792.804-1.792 1.791v4.538c0 .988.804 1.791 1.792 1.791h6.395c.988 0 1.791-.803 1.791-1.791v-4.537c0-.988-.803-1.792-1.791-1.792zm-.377 5.952h-5.642V34.63h5.642v3.784z" fill="#FFAAA1"/><path d="M71.12 54.173h-1.902V17.566a4.847 4.847 0 00-4.842-4.841h-11.87V4.427A3.467 3.467 0 0049.045.964H18.922a3.467 3.467 0 00-3.463 3.463v8.298H9.624a4.847 4.847 0 00-4.842 4.841v36.607H2.88A2.883 2.883 0 000 57.053c0 4.401 3.58 7.982 7.982 7.982h58.036c4.401 0 7.982-3.58 7.982-7.982a2.883 2.883 0 00-2.88-2.88zM57.457 40.948c-.599 0-1.084.485-1.084 1.084v5.12a1.935 1.935 0 01-1.933 1.933 1.935 1.935 0 01-1.933-1.933V32.386h3.724c.078 0 .142.063.142.141v4.438a1.084 1.084 0 102.168 0v-4.438a2.312 2.312 0 00-2.31-2.31h-3.724V19.982h9.454v29.104h-3.905a4.077 4.077 0 00.485-1.933v-5.12c0-.599-.485-1.084-1.084-1.084zm-39.83-36.52c0-.715.581-1.296 1.295-1.296h30.122c.714 0 1.295.581 1.295 1.295v42.725c0 .698.176 1.356.485 1.933H19.56a1.935 1.935 0 01-1.933-1.933V4.427zm-1.682 44.657h-3.906V19.981h3.42v27.17c0 .7.176 1.358.486 1.934zM6.95 17.566c0-1.474 1.2-2.673 2.674-2.673h5.835v2.92h-3.513a2.078 2.078 0 00-2.075 2.075v29.29c0 1.144.93 2.075 2.075 2.075h50.108a2.078 2.078 0 002.075-2.076V19.89a2.078 2.078 0 00-2.075-2.076h-9.547v-2.92h11.87c1.473 0 2.673 1.2 2.673 2.673v36.607H6.95V17.566zm19.6 38.775h20.9v1.09c0 .6-.49 1.09-1.09 1.09H27.64c-.6 0-1.09-.49-1.09-1.09v-1.09zm39.468 6.526H7.982a5.821 5.821 0 01-5.814-5.814c0-.393.32-.712.712-.712h21.502v1.09a3.261 3.261 0 003.258 3.257h18.72a3.261 3.261 0 003.257-3.258v-1.089H71.12c.393 0 .712.32.712.712a5.82 5.82 0 01-5.814 5.814z" fill="#FFAAA1"/></svg>