<svg width="72" height="52" viewBox="0 0 72 52" fill="none" xmlns="http://www.w3.org/2000/svg"><path d="M66.375 0H5.625A5.631 5.631 0 000 5.625v40.5a5.631 5.631 0 005.625 5.625h60.75A5.631 5.631 0 0072 46.125v-40.5A5.631 5.631 0 0066.375 0zM2.25 46.125V9h14.625v40.5H5.625a3.379 3.379 0 01-3.375-3.375zM66.375 49.5h-47.25V9H63a1.125 1.125 0 000-2.25H2.25V5.625A3.379 3.379 0 015.625 2.25h60.75a3.379 3.379 0 013.375 3.375V6.75H67.5a1.125 1.125 0 000 2.25h2.25v37.125a3.379 3.379 0 01-3.375 3.375z" fill="#FFAAA1"/><path d="M5.625 3.375a1.126 1.126 0 000 2.25 1.126 1.126 0 000-2.25zm3.375 0a1.126 1.126 0 000 2.25 1.126 1.126 0 000-2.25zm3.375 0a1.126 1.126 0 000 2.25c.295 0 .586-.12.796-.33.21-.209.329-.5.329-.795a1.126 1.126 0 00-1.125-1.125zM5.625 13.5H13.5a1.125 1.125 0 000-2.25H5.625a1.125 1.125 0 000 2.25zm7.875 2.25H5.625a1.125 1.125 0 000 2.25H13.5a1.125 1.125 0 000-2.25zm0 4.5H5.625a1.125 1.125 0 000 2.25H13.5a1.125 1.125 0 000-2.25zm-3.375 4.5h-4.5a1.125 1.125 0 000 2.25h4.5a1.125 1.125 0 000-2.25zm0 4.5h-4.5a1.125 1.125 0 000 2.25h4.5a1.125 1.125 0 000-2.25zm-3.375 4.5H5.625a1.125 1.125 0 000 2.25H6.75a1.125 1.125 0 000-2.25zm23.625-10.125c1.502 0 2.915.585 3.977 1.648a1.125 1.125 0 001.591-1.591c-3.07-3.07-8.066-3.07-11.136 0A7.823 7.823 0 0022.5 29.25a7.83 7.83 0 002.306 5.569 7.85 7.85 0 005.569 2.302 7.85 7.85 0 005.569-2.302 1.125 1.125 0 10-1.591-1.591 5.589 5.589 0 01-3.978 1.647 5.587 5.587 0 01-3.977-1.648 5.588 5.588 0 01-1.648-3.977c0-1.503.585-2.915 1.648-3.977a5.588 5.588 0 013.977-1.648zm15.753 8.531A5.633 5.633 0 0049.506 27a5.631 5.631 0 00-5.625-5.625h-4.506a1.125 1.125 0 00-1.12 1.237V36a1.125 1.125 0 002.25 0V23.625h3.375A3.379 3.379 0 0147.255 27a3.379 3.379 0 01-3.375 3.375 1.125 1.125 0 00-.795 1.92l4.5 4.5a1.121 1.121 0 001.591 0c.44-.439.44-1.151 0-1.59l-3.048-3.049zM64.413 21.41a1.126 1.126 0 00-1.266.544l-4.642 8.354-4.641-8.354a1.124 1.124 0 00-2.108.546V36a1.125 1.125 0 002.25 0v-9.16l3.516 6.33a1.125 1.125 0 001.967 0l3.517-6.33V36a1.125 1.125 0 002.25 0V22.5c0-.513-.347-.96-.843-1.09z" fill="#FFAAA1"/></svg>