<svg width="69" height="69" viewBox="0 0 69 69" fill="none" xmlns="http://www.w3.org/2000/svg"><path d="M15.094 61.453H10.78v2.156h4.313v-2.156zM34.5 22.64a8.625 8.625 0 108.625 8.626A8.635 8.635 0 0034.5 22.64zm0 15.094a6.468 6.468 0 116.469-6.468 6.475 6.475 0 01-6.469 6.468z" fill="#FFAAA1"/><path d="M66.844 26.953a11.867 11.867 0 00-11.86-11.86c-.161 0-.323 0-.496.011a10.767 10.767 0 00-16.333-5.692 14.015 14.015 0 00-26.263 5.876 11.854 11.854 0 00-.033 23.32v8.83H7.547a1.078 1.078 0 00-1.078 1.078v17.25a1.078 1.078 0 001.078 1.078h19.406a1.078 1.078 0 001.078-1.078V50.672a1.078 1.078 0 00-1.078-1.078h-9.261l-1.833-1.844a1.114 1.114 0 00-.765-.313h-1.078v-8.625h6.835l-.075.076a2.157 2.157 0 000 3.051l3.05 3.051a2.155 2.155 0 003.052 0l2.08-2.038c.4.189.81.355 1.23.496v2.911a2.163 2.163 0 002.156 2.157h4.312a2.163 2.163 0 002.157-2.157l.032-2.91c.418-.152.828-.325 1.229-.518l2.048 2.06a2.156 2.156 0 003.051 0l3.051-3.052a2.159 2.159 0 000-3.051l-.075-.076h6.835v10.782h-2.792l-1.833-1.844a1.114 1.114 0 00-.765-.313h-7.547a1.078 1.078 0 00-1.078 1.079v17.25a1.078 1.078 0 001.078 1.078h19.406a1.078 1.078 0 001.078-1.078V50.672a1.078 1.078 0 00-1.078-1.078h-4.312V38.608a11.882 11.882 0 009.703-11.655zM25.875 64.687H8.625v-8.625h17.25v8.625zM14.652 49.594l1.833 1.843c.205.199.48.31.765.313h8.625v2.156H8.625v-4.312h6.027zm-.636-12.938v-4.312h3.234v1.078a2.163 2.163 0 002.156 2.156l2.911.032c.13.345.28.69.442 1.046h-8.743zm29.637 6.803l-2.059-2.048a2.163 2.163 0 00-2.469-.41c-.327.154-.661.29-1.002.41a2.189 2.189 0 00-1.467 2.037v2.911h-4.312v-2.91a2.188 2.188 0 00-1.466-2.038 10.265 10.265 0 01-1.003-.41 2.257 2.257 0 00-.949-.216 2.145 2.145 0 00-1.52.626l-2.06 2.048-3.04-3.04 2.049-2.06a2.156 2.156 0 00.41-2.468 10.14 10.14 0 01-.41-1.003 2.187 2.187 0 00-2.038-1.466h-2.91v-4.313h2.91a2.188 2.188 0 002.038-1.466c.119-.341.255-.676.41-1.003a2.156 2.156 0 00-.41-2.468l-2.049-2.06 3.04-3.04 2.06 2.048a2.163 2.163 0 002.469.41c.327-.154.661-.29 1.003-.41a2.189 2.189 0 001.466-2.037v-2.911h4.312v2.91a2.19 2.19 0 001.467 2.038c.34.12.675.256 1.002.41a2.163 2.163 0 002.47-.41l2.058-2.048 3.04 3.04-2.048 2.06a2.156 2.156 0 00-.41 2.468c.155.327.291.662.41 1.003a2.188 2.188 0 002.038 1.466h2.91v4.313h-2.91a2.188 2.188 0 00-2.038 1.466 10.14 10.14 0 01-.41 1.003 2.155 2.155 0 00.41 2.469l2.049 2.059-3.04 3.04zm2.599-6.803c.15-.345.301-.69.43-1.078h2.912a2.163 2.163 0 002.156-2.156v-1.078h3.234v4.312h-8.732zm14.123 28.031h-17.25v-8.625h17.25v8.625zm0-12.937v2.156h-17.25v-4.312h6.027l1.832 1.843c.206.199.48.31.766.313h8.625zm-4.313-21.563H51.75V29.11a2.163 2.163 0 00-2.156-2.156l-2.911-.032a13.027 13.027 0 00-.518-1.23l2.06-2.048a2.159 2.159 0 000-3.05l-3.052-3.052a2.155 2.155 0 00-3.05 0l-2.081 2.038c-.4-.189-.81-.354-1.23-.496v-2.911a2.163 2.163 0 00-2.156-2.157h-4.312a2.163 2.163 0 00-2.157 2.157l-.032 2.91c-.418.152-.828.325-1.229.518l-2.048-2.059a2.156 2.156 0 00-3.051 0l-3.052 3.051a2.157 2.157 0 000 3.051l2.038 2.081c-.188.4-.354.81-.496 1.229h-2.91a2.163 2.163 0 00-2.157 2.156v1.078h-4.313a1.078 1.078 0 00-1.078 1.078v5.143a9.703 9.703 0 011.186-19.115 1.128 1.128 0 00.97-1.121 11.86 11.86 0 0122.76-4.668 1.092 1.092 0 00.755.636 1.1 1.1 0 00.96-.248 8.539 8.539 0 015.713-2.189 8.66 8.66 0 018.42 6.782 1.078 1.078 0 001.197.84c.386-.05.775-.075 1.164-.075a9.703 9.703 0 012.157 19.158v-5.143a1.078 1.078 0 00-1.078-1.078z" fill="#FFAAA1"/><path d="M49.594 60.375H45.28v2.156h4.313v-2.156z" fill="#FFAAA1"/></svg>