<svg width="52" height="50" viewBox="0 0 52 50" fill="none" xmlns="http://www.w3.org/2000/svg"><path d="M26 24c.147 0 .295-.03.431-.091l24.917-10.833a1.08 1.08 0 000-1.985L26.43.258a1.067 1.067 0 00-.862 0L.652 11.09a1.08 1.08 0 000 1.985L25.57 23.909c.136.06.284.09.431.09zm22.2-11.917L26 21.736 3.8 12.083 26 2.431l22.2 9.652z" fill="#FFAAA1"/><path d="M26 32.667c.147 0 .295-.03.431-.091l24.917-10.834a1.08 1.08 0 000-1.984l-9.967-4.334a1.082 1.082 0 10-.864 1.987L48.2 20.75 26 30.402 3.8 20.75l7.681-3.341c.548-.238.802-.878.561-1.426a1.079 1.079 0 00-1.425-.56L.65 19.754a1.09 1.09 0 00-.65.995c0 .431.256.821.652.992L25.57 32.576c.136.06.284.09.431.09z" fill="#FFAAA1"/><path d="M26 41.333c.147 0 .295-.03.431-.09l24.917-10.834a1.08 1.08 0 000-1.985l-9.967-4.333a1.084 1.084 0 00-.864 1.987l7.683 3.338L26 39.07 3.8 29.416l7.681-3.34c.548-.239.802-.878.561-1.426a1.079 1.079 0 00-1.425-.561L.65 28.422c-.394.173-.65.563-.65.994 0 .432.256.822.652.993L25.57 41.242c.136.06.284.091.431.091z" fill="#FFAAA1"/><path d="M26 50c.147 0 .295-.03.431-.091l24.917-10.833a1.08 1.08 0 000-1.985l-9.967-4.333a1.082 1.082 0 10-.864 1.986l7.683 3.34L26 47.735 3.8 38.083l7.681-3.34c.548-.24.802-.878.561-1.426a1.079 1.079 0 00-1.425-.562L.65 37.09a1.083 1.083 0 00.002 1.987L25.57 49.909c.136.06.284.09.431.09z" fill="#FFAAA1"/></svg>