<svg width="53" height="47" viewBox="0 0 53 47" fill="none" xmlns="http://www.w3.org/2000/svg"><path d="M52.484 14.788l-7.636-5.394V1.515A1.697 1.697 0 0043.393 0H9.94a1.697 1.697 0 00-1.454 1.515v7.818l-7.94 5.455a1.333 1.333 0 00-.545.97v28.787c.103.79.725 1.412 1.515 1.515h50.303c.666 0 .909-.788.909-1.515V15.757c0-.363.06-.727-.243-.97zm-7.636-2.485l5.212 3.576-5.212 3.939v-7.515zM10.909 2.424h31.515v19.273L26.666 33.575 10.91 21.697V2.424zm-2.424 9.818v7.637l-5.212-4 5.212-3.637zm-6.06 6.121l16.969 12.849-16.97 11.454V18.363zm2.908 25.273l16.121-10.848 4.303 3.272c.244.188.541.295.849.303.242 0 .363-.121.606-.303l4.485-3.454 16.302 11.03H5.333zm44.97-1.394L33.697 31.091l16.606-12.728v23.879z" fill="#FFAAA1"/><path d="M16.97 10.303h5.454a1.212 1.212 0 100-2.424H16.97a1.212 1.212 0 100 2.424zm0 5.455h19.393a1.212 1.212 0 100-2.425H16.97a1.212 1.212 0 100 2.425zM37.575 20c0-.67-.542-1.212-1.212-1.212H16.97a1.212 1.212 0 100 2.424h19.393c.67 0 1.212-.543 1.212-1.212z" fill="#FFAAA1"/></svg>