<svg width="62" height="62" viewBox="0 0 62 62" fill="none" xmlns="http://www.w3.org/2000/svg"><path d="M56.833 4.133h-6.2V3.1a3.1 3.1 0 00-6.2 0v1.033H34.1V3.1a3.1 3.1 0 10-6.2 0v1.033H17.567V3.1a3.1 3.1 0 10-6.2 0v1.033h-6.2A5.173 5.173 0 000 9.3v47.533A5.173 5.173 0 005.167 62h51.666A5.172 5.172 0 0062 56.833V9.3a5.172 5.172 0 00-5.167-5.167zM46.5 3.1a1.033 1.033 0 012.067 0v6.2a1.033 1.033 0 01-2.067 0V3.1zm-16.533 0a1.033 1.033 0 112.066 0v6.2a1.033 1.033 0 11-2.066 0V3.1zm-16.534 0a1.033 1.033 0 012.067 0v6.2a1.033 1.033 0 01-2.067 0V3.1zM5.167 6.2h6.2v3.1a3.1 3.1 0 106.2 0V6.2H27.9v3.1a3.1 3.1 0 106.2 0V6.2h10.333v3.1a3.1 3.1 0 106.2 0V6.2h6.2a3.104 3.104 0 013.1 3.1v7.233H2.067V9.3a3.104 3.104 0 013.1-3.1zm51.666 53.733H5.167a3.103 3.103 0 01-3.1-3.1V18.6h57.866v38.233a3.103 3.103 0 01-3.1 3.1z" fill="#FFAAA1"/><path d="M55 26h-4a1 1 0 00-1 1v4a1 1 0 001 1h4a1 1 0 001-1v-4a1 1 0 00-1-1zm-1 4h-2v-2h2v2zM34 47h-4a1 1 0 00-1 1v4a1 1 0 001 1h4a1 1 0 001-1v-4a1 1 0 00-1-1zm-1 4h-2v-2h2v2zm-9-25h-4a1 1 0 00-1 1v4a1 1 0 001 1h4a1 1 0 001-1v-4a1 1 0 00-1-1zm-1 4h-2v-2h2v2zm11-4h-4a1 1 0 00-1 1v4a1 1 0 001 1h4a1 1 0 001-1v-4a1 1 0 00-1-1zm-1 4h-2v-2h2v2zm11-4h-4a1 1 0 00-1 1v4a1 1 0 001 1h4a1 1 0 001-1v-4a1 1 0 00-1-1zm-1 4h-2v-2h2v2zm-30 6H9a1 1 0 00-1 1v4a1 1 0 001 1h4a1 1 0 001-1v-4a1 1 0 00-1-1zm-1 4h-2v-2h2v2zm12-4h-4a1 1 0 00-1 1v4a1 1 0 001 1h4a1 1 0 001-1v-4a1 1 0 00-1-1zm-1 4h-2v-2h2v2zm11-4h-4a1 1 0 00-1 1v4a1 1 0 001 1h4a1 1 0 001-1v-4a1 1 0 00-1-1zm-1 4h-2v-2h2v2zm11-4h-4a1 1 0 00-1 1v4a1 1 0 001 1h4a1 1 0 001-1v-4a1 1 0 00-1-1zm-1 4h-2v-2h2v2zm-30 7H9a1 1 0 00-1 1v4a1 1 0 001 1h4a1 1 0 001-1v-4a1 1 0 00-1-1zm-1 4h-2v-2h2v2zm12-4h-4a1 1 0 00-1 1v4a1 1 0 001 1h4a1 1 0 001-1v-4a1 1 0 00-1-1zm-1 4h-2v-2h2v2zm32-15h-4a1 1 0 00-1 1v4a1 1 0 001 1h4a1 1 0 001-1v-4a1 1 0 00-1-1zm-1 4h-2v-2h2v2zm1 7h-4a1 1 0 00-1 1v4a1 1 0 001 1h4a1 1 0 001-1v-4a1 1 0 00-1-1zm-1 4h-2v-2h2v2zm-10-4h-4a1 1 0 00-1 1v4a1 1 0 001 1h4a1 1 0 001-1v-4a1 1 0 00-1-1zm-1 4h-2v-2h2v2z" fill="#FFAAA1"/></svg>