<svg width="41" height="51" viewBox="0 0 41 51" fill="none" xmlns="http://www.w3.org/2000/svg"><g clip-path="url(#clip0)" fill="#FF664D"><path d="M9.293 46.117l2.187 2.713s2.733-1.953 7.107-1.953C24.6 46.877 26.24 51 31.707 51c4.373 0 7.653-2.713 9.293-5.425l-2.733-5.426s-2.734 2.17-5.467 2.17c-3.827 0-7.107-2.17-11.48-2.17s-8.747 2.17-12.027 5.968z"/><path d="M19.953 0C8.911 0 0 7.433 0 20.888c0 13.456 8.91 20.889 19.953 20.889s19.954-7.433 19.954-20.889C39.907 7.433 30.996 0 19.953 0zm0 33.096c-5.904 0-10.66-4.34-10.66-12.208 0-7.867 4.756-12.207 10.66-12.207s10.66 4.34 10.66 12.207c0 7.867-4.756 12.208-10.66 12.208z"/></g><defs><clipPath id="clip0"><path fill="#fff" d="M0 0h41v51H0z"/></clipPath></defs></svg>