<svg width="54" height="54" viewBox="0 0 54 54" fill="none" xmlns="http://www.w3.org/2000/svg"><g clip-path="url(#clip0)" fill="#FFAAA1"><path d="M39.973 0h11.812c1.15.327 1.888 1.065 2.215 2.215v11.812c-.464 1.371-1.36 2.173-2.869 2.184-3.501 0-6.992.01-10.494 0-1.719-.011-2.827-1.129-2.848-2.848-.01-1.245 0-2.5 0-3.744v-.623h-1.423c-.992.011-1.255.264-1.255 1.245v15.335c0 .158.02.306.031.485h2.647v-.59c0-1.213 0-2.426.011-3.639.01-1.814 1.129-2.932 2.922-2.942H51.11c.19 0 .39.01.58.042 1.255.2 1.951 1.012 2.32 2.162v11.812c-.042.095-.084.19-.115.285-.38 1.128-1.319 1.898-2.521 1.909a752.24 752.24 0 01-10.906 0c-1.424-.01-2.5-1.034-2.626-2.457-.063-.728-.032-1.477-.032-2.215v-2.479h-2.678v15.969c0 .664.263 1.033.833 1.075.59.042 1.181.01 1.845.01v-.611c0-1.266-.01-2.532.011-3.797.032-1.656 1.14-2.785 2.795-2.795 3.533-.021 7.066-.01 10.6 0 1.37.01 2.278.707 2.71 1.993.021.064.063.116.095.18v11.812C53.293 53.568 52.64 54 50.71 54h-9.966c-1.815 0-2.922-1.107-2.933-2.922-.01-1.234 0-2.457 0-3.69 0-.18-.02-.37-.031-.57-.485 0-.907-.021-1.329 0-1.877.126-3.175-1.203-3.154-3.101.064-5.042.022-10.083.022-15.135v-.643h-2.711v.654c0 4.514.01 9.028 0 13.552 0 2.215-1.53 3.744-3.744 3.744-7.404.011-14.797 0-22.201 0C1.93 45.89 0 43.96 0 41.24V12.771c0-2.72 1.92-4.64 4.64-4.661.897-.011 1.794 0 2.7 0 .644-1.52 1.889-1.952 3.45-1.793V5.62c.02-1.792 1.117-2.9 2.89-2.91 1.107-.011 2.214-.011 3.322.01 1.677.021 2.784 1.15 2.805 2.837v.686c.106.042.137.063.169.063.137.01.285.021.422.01 1.244-.052 2.162.454 2.752 1.572.064.127.296.211.454.222.738.02 1.477.01 2.215.01 2.858 0 4.756 1.867 4.767 4.746.01 4.198 0 8.406 0 12.604v.611h2.71V10.2c0-1.92 1.076-2.974 3.017-2.985h1.455V2.89c0-.95.317-1.761 1.108-2.331.348-.253.738-.38 1.097-.559zM5.432 9.904v30.554h19.733V9.904c-.58 0-1.129-.022-1.667.01-.137.01-.305.137-.38.264-.569 1.044-1.455 1.518-2.625 1.518h-10.39c-1.18 0-2.056-.485-2.625-1.529a.544.544 0 00-.38-.263c-.538-.011-1.086 0-1.666 0zm-1.836.21c-1.16.39-1.792 1.382-1.792 2.7V41.07c0 1.952 1.075 3.017 3.048 3.017H26.63c1.54 0 2.183-.643 2.183-2.173V17.286c0-1.582-.021-3.164 0-4.746.01-.896-.78-2.267-1.803-2.404v30.09c0 1.35-.697 2.046-2.046 2.046h-19.3c-1.371 0-2.068-.707-2.068-2.088v-30.07zM45.88 52.197c0 .011 0 .011 0 0h5.168c.833 0 1.16-.316 1.16-1.139V40.774c0-.896-.306-1.192-1.213-1.192H40.816c-.917 0-1.213.285-1.213 1.192v10.23c0 .897.306 1.182 1.224 1.182 1.677.021 3.364.01 5.052.01zm6.328-25.143v-5.168c0-.897-.306-1.192-1.213-1.192H40.816c-.907 0-1.213.295-1.213 1.192v10.23c0 .897.306 1.192 1.213 1.192h10.23c.855 0 1.161-.316 1.161-1.192v-5.062zM39.603 8.12v5.063c0 .917.285 1.213 1.192 1.213 3.428.01 6.856.01 10.283 0 .834 0 1.14-.328 1.14-1.16V3.005c0-.928-.296-1.213-1.245-1.213H40.848c-.97 0-1.245.274-1.245 1.266-.01 1.687 0 3.375 0 5.062zM12.614 6.307c.918 0 1.782-.01 2.637 0 .548.01.928.37.938.865.011.496-.348.875-.886.928-.137.01-.284.01-.421.01H10.04c-.623 0-1.023.36-1.034.876-.01.527.4.918 1.002.918 3.533.01 7.056.01 10.589 0 .601 0 1.012-.401 1.002-.918-.01-.506-.4-.865-.991-.875-.454-.011-.918 0-1.372 0-.97 0-1.233-.285-1.233-1.266 0-.475.02-.95-.011-1.424-.032-.559-.359-.896-.896-.907-1.213-.021-2.426-.01-3.64 0-.484.01-.79.295-.843.78-.021.306 0 .623 0 1.013z"/><path d="M9.946 14.407a2.667 2.667 0 012.636 2.71c-.02 1.488-1.212 2.68-2.689 2.68-1.487 0-2.721-1.245-2.71-2.722a2.733 2.733 0 012.763-2.668zm.844 2.679c0-.506-.39-.886-.908-.875a.9.9 0 00-.875.864c-.01.486.411.918.897.907.485.021.886-.39.886-.896zm-.886 20.693a2.683 2.683 0 01-2.7-2.658c-.022-1.476 1.202-2.721 2.7-2.732a2.69 2.69 0 012.689 2.669c.01 1.53-1.181 2.72-2.69 2.72zm0-3.576c-.486 0-.908.422-.897.908.01.474.39.864.865.875.506.01.907-.359.918-.865 0-.506-.401-.918-.886-.918zm2.689-8.047c-.042 1.519-1.255 2.68-2.774 2.637-1.466-.032-2.658-1.297-2.615-2.753.042-1.518 1.297-2.679 2.837-2.626 1.434.042 2.584 1.287 2.552 2.742zm-3.586-.137a.907.907 0 00.833.97.88.88 0 00.939-.79c.053-.517-.285-.94-.791-.992a.92.92 0 00-.98.812zm9.45-2.615h2.995c.644 0 1.013.326 1.023.875.01.57-.369.918-1.033.928-2.004.01-3.997.01-6.001 0-.654 0-1.045-.37-1.034-.928.021-.538.39-.854 1.034-.865 1.012-.01 2.014-.01 3.016-.01zm0 10.789c-1.002 0-2.004.01-2.995 0-.665 0-1.055-.348-1.044-.918.01-.538.39-.875 1.033-.886 2.004-.01 3.997-.01 6.001 0 .665 0 1.044.36 1.034.929-.01.548-.37.864-1.023.875h-3.006zm.053-19.797c.96 0 1.93-.01 2.89 0 .696.011 1.065.317 1.075.876.011.58-.38.917-1.097.928-1.961.01-3.923.01-5.895 0-.686 0-1.065-.327-1.087-.886-.01-.57.38-.907 1.097-.918 1.023 0 2.015.011 3.017 0 0 0 0 .011 0 0zM17.571 27c.696 0 1.403-.01 2.099 0 .633.01 1.012.348 1.012.886 0 .548-.369.896-1.002.907-1.423.01-2.837.01-4.26 0-.623 0-1.013-.348-1.013-.886s.38-.896 1.002-.907c.728-.01 1.445 0 2.162 0zm-.021-8.986c.717 0 1.434-.01 2.152 0 .611.01.97.338.98.865.011.538-.358.917-.98.928-1.435.01-2.87.021-4.314 0-.622-.01-.992-.39-.981-.939.01-.527.37-.854.98-.865.729 0 1.446.011 2.163.011zm.01 19.786c-.717 0-1.444.01-2.162 0-.611-.01-.97-.348-.98-.875-.011-.549.358-.918.991-.929 1.424-.01 2.848-.01 4.271 0 .644.011 1.013.359 1.013.907 0 .549-.359.876-1.013.886-.717.01-1.413 0-2.12.011 0-.01 0-.01 0 0zm27.243-9.44c1.013-1.508 1.92-2.868 2.827-4.229.095-.147.19-.295.305-.422.328-.358.823-.41 1.192-.137a.883.883 0 01.264 1.129c-.169.327-.39.622-.59.928-.94 1.403-1.867 2.805-2.806 4.208-.643.97-1.107 1.013-1.91.211-.474-.475-.948-.939-1.412-1.424-.443-.464-.475-.96-.085-1.35.38-.38.897-.369 1.35.085.296.295.549.632.865 1.002zm0-18.9c1.013-1.508 1.92-2.868 2.827-4.218.084-.127.168-.264.274-.39.316-.37.801-.454 1.181-.211.4.253.538.759.285 1.202-.243.422-.527.823-.802 1.234l-2.657 3.987c-.538.812-1.055.854-1.74.168-.496-.495-1.003-.991-1.488-1.487-.453-.464-.485-.96-.095-1.35.38-.38.907-.369 1.35.064.285.295.538.632.865 1.002z"/></g><defs><clipPath id="clip0"><path fill="#fff" d="M0 0h54v54H0z"/></clipPath></defs></svg>