<svg width="326" height="435" viewBox="0 0 326 435" fill="none" xmlns="http://www.w3.org/2000/svg"><path d="M73.756 393.352l17.355 23.138s21.693-16.659 56.402-16.659c47.725 0 60.74 35.17 104.126 35.17 34.709 0 60.741-23.138 73.757-46.277l-21.693-46.276s-21.693 18.51-43.386 18.51c-30.371 0-56.402-18.51-91.111-18.51s-69.418 18.51-95.45 50.904z" fill="#FE857D"/><path d="M158.359 0C70.719 0 0 63.399 0 178.165 0 292.931 70.72 356.33 158.359 356.33c87.64 0 158.36-63.399 158.36-178.165C316.719 63.399 245.999 0 158.359 0zm0 282.287c-46.857 0-84.603-37.021-84.603-104.122S111.502 74.043 158.36 74.043c46.857 0 84.603 37.021 84.603 104.122s-37.746 104.122-84.603 104.122z" fill="#FE857D"/></svg>