<svg width="59" height="61" viewBox="0 0 59 61" fill="none" xmlns="http://www.w3.org/2000/svg"><path d="M44.734 47.766h2.032a1.016 1.016 0 011.015 1.015h2.032a3.047 3.047 0 00-3.047-3.047V44.72h-2.032v1.015a3.047 3.047 0 100 6.094h2.032a1.016 1.016 0 110 2.031h-2.032a1.016 1.016 0 01-1.015-1.015h-2.032a3.047 3.047 0 003.047 3.047v1.015h2.032v-1.015a3.047 3.047 0 100-6.094h-2.032a1.016 1.016 0 110-2.031z" fill="#FFAAA1"/><path d="M46.766 40.708V1.047A1.016 1.016 0 0045.75.03H5.125A5.084 5.084 0 00.047 5.11v46.72a5.073 5.073 0 005.078 5.077h32.52a10.149 10.149 0 109.12-16.198zm-2.032 0a10.176 10.176 0 00-8.286 6.042H12.234V2.062h32.5v38.646zM8.172 46.75V2.062h2.031V46.75H8.172zM5.125 2.062h1.016V46.75H5.125a5.025 5.025 0 00-3.047 1.042V5.109a3.047 3.047 0 013.047-3.046zm0 52.813a3.047 3.047 0 110-6.094h30.672c-.136.669-.204 1.35-.203 2.032H7.156v2.03h28.64c.144.699.362 1.38.65 2.032H5.125zm40.625 4.063a8.125 8.125 0 118.125-8.126 8.134 8.134 0 01-8.125 8.126z" fill="#FFAAA1"/><path d="M53.875.031a5.084 5.084 0 00-5.078 5.078V30.5c0 .2.06.397.17.564l1.861 2.788v2.742a3.047 3.047 0 006.094 0v-2.742l1.86-2.791c.11-.167.17-.361.171-.561V5.11A5.084 5.084 0 0053.875.03zm0 2.031a3.047 3.047 0 013.047 3.047v1.016h-6.094V5.109a3.047 3.047 0 013.047-3.046zm-1.488 30.47L51.031 30.5h5.688l-1.354 2.031h-2.978zm2.504-4.063V13.234h-2.032V28.47h-2.03V11.203h6.093V28.47H54.89zM50.828 9.172V8.156h6.094v1.016h-6.094zm3.047 28.437a1.015 1.015 0 01-1.016-1.015v-2.032h2.032v2.032a1.016 1.016 0 01-1.016 1.015zM34.578 6.125H21.375v2.031h13.203V6.125zm2.032 4.063H19.343v2.03h17.265v-2.03zM24.842 25.422h3.642c.27 0 .528-.107.718-.298l6.392-6.391v1.61h2.031v-4.062a1.016 1.016 0 00-1.016-1.015h-4.062v2.03h1.61l-6.093 6.095h-3.642c-.27 0-.528.107-.718.297l-4.57 4.57 1.436 1.437 4.272-4.273zM15.281 39.64h26.406v-2.03h-2.03V24.405a1.016 1.016 0 00-1.016-1.015h-4.063a1.015 1.015 0 00-1.016 1.015V37.61h-2.03v-9.14a1.016 1.016 0 00-1.016-1.016h-4.063a1.015 1.015 0 00-1.015 1.016v9.14h-2.032v-5.078a1.016 1.016 0 00-1.015-1.015h-4.063a1.015 1.015 0 00-1.015 1.015v5.078H15.28v2.032zm20.313-14.218h2.031v12.187h-2.031V25.422zm-8.125 4.062H29.5v8.125h-2.031v-8.125zm-8.125 4.063h2.031v4.062h-2.031v-4.062z" fill="#FFAAA1"/></svg>