<svg width="62" height="62" viewBox="0 0 62 62" fill="none" xmlns="http://www.w3.org/2000/svg"><path d="M56.833 4.133h-6.2V3.1a3.1 3.1 0 00-6.2 0v1.033H34.1V3.1a3.1 3.1 0 10-6.2 0v1.033H17.567V3.1a3.1 3.1 0 10-6.2 0v1.033h-6.2A5.173 5.173 0 000 9.3v47.533A5.173 5.173 0 005.167 62h51.666A5.172 5.172 0 0062 56.833V9.3a5.172 5.172 0 00-5.167-5.167zM46.5 3.1a1.033 1.033 0 012.067 0v6.2a1.033 1.033 0 01-2.067 0V3.1zm-16.533 0a1.033 1.033 0 112.066 0v6.2a1.033 1.033 0 11-2.066 0V3.1zm-16.534 0a1.033 1.033 0 012.067 0v6.2a1.033 1.033 0 01-2.067 0V3.1zM5.167 6.2h6.2v3.1a3.1 3.1 0 106.2 0V6.2H27.9v3.1a3.1 3.1 0 106.2 0V6.2h10.333v3.1a3.1 3.1 0 106.2 0V6.2h6.2a3.104 3.104 0 013.1 3.1v7.233H2.067V9.3a3.104 3.104 0 013.1-3.1zm51.666 53.733H5.167a3.103 3.103 0 01-3.1-3.1V18.6h57.866v38.233a3.103 3.103 0 01-3.1 3.1z" fill="#FFAAA1"/><path d="M54.767 25.833h-4.134a1.033 1.033 0 00-1.033 1.034V31a1.033 1.033 0 001.033 1.033h4.134A1.033 1.033 0 0055.8 31v-4.133a1.033 1.033 0 00-1.033-1.034zm-1.034 4.134h-2.066V27.9h2.066v2.067zM34.1 46.5h-4.133a1.033 1.033 0 00-1.034 1.033v4.134a1.033 1.033 0 001.034 1.033H34.1a1.033 1.033 0 001.033-1.033v-4.134A1.033 1.033 0 0034.1 46.5zm-1.033 4.133H31v-2.066h2.067v2.066zm-9.3-24.8h-4.134a1.033 1.033 0 00-1.033 1.034V31a1.033 1.033 0 001.033 1.033h4.134A1.033 1.033 0 0024.8 31v-4.133a1.033 1.033 0 00-1.033-1.034zm-1.034 4.134h-2.066V27.9h2.066v2.067zm-9.3 6.2H9.3A1.033 1.033 0 008.267 37.2v4.133A1.034 1.034 0 009.3 42.367h4.133a1.033 1.033 0 001.034-1.034V37.2a1.033 1.033 0 00-1.034-1.033zM12.4 40.3h-2.067v-2.067H12.4V40.3zm11.367-4.133h-4.134A1.033 1.033 0 0018.6 37.2v4.133a1.033 1.033 0 001.033 1.034h4.134a1.033 1.033 0 001.033-1.034V37.2a1.033 1.033 0 00-1.033-1.033zM22.733 40.3h-2.066v-2.067h2.066V40.3zm-9.3 6.2H9.3a1.033 1.033 0 00-1.033 1.033v4.134A1.033 1.033 0 009.3 52.7h4.133a1.033 1.033 0 001.034-1.033v-4.134a1.033 1.033 0 00-1.034-1.033zM12.4 50.633h-2.067v-2.066H12.4v2.066zM23.767 46.5h-4.134a1.033 1.033 0 00-1.033 1.033v4.134a1.033 1.033 0 001.033 1.033h4.134a1.033 1.033 0 001.033-1.033v-4.134a1.033 1.033 0 00-1.033-1.033zm-1.034 4.133h-2.066v-2.066h2.066v2.066zm22.89-20.539l-5.167-.79-2.32-4.943a1.033 1.033 0 00-1.871 0l-2.32 4.943-5.167.79a1.033 1.033 0 00-.583 1.743l3.769 3.863-.891 5.467a1.034 1.034 0 001.518 1.07L37.2 39.69l4.61 2.548a1.034 1.034 0 001.519-1.071l-.891-5.467 3.769-3.863a1.032 1.032 0 00-.584-1.744zm-5.03 4.536a1.035 1.035 0 00-.28.888l.633 3.881-3.246-1.795a1.034 1.034 0 00-1 0l-3.247 1.795.633-3.881a1.034 1.034 0 00-.28-.888l-2.728-2.797 3.724-.568a1.033 1.033 0 00.779-.583l1.619-3.45 1.62 3.45a1.034 1.034 0 00.778.582l3.725.568-2.73 2.798zm14.174 1.537h-4.134A1.033 1.033 0 0049.6 37.2v4.133a1.033 1.033 0 001.033 1.034h4.134a1.033 1.033 0 001.033-1.034V37.2a1.033 1.033 0 00-1.033-1.033zM53.733 40.3h-2.066v-2.067h2.066V40.3zm1.034 6.2h-4.134a1.033 1.033 0 00-1.033 1.033v4.134a1.033 1.033 0 001.033 1.033h4.134a1.033 1.033 0 001.033-1.033v-4.134a1.033 1.033 0 00-1.033-1.033zm-1.034 4.133h-2.066v-2.066h2.066v2.066zm-9.3-4.133H40.3a1.033 1.033 0 00-1.033 1.033v4.134A1.033 1.033 0 0040.3 52.7h4.133a1.033 1.033 0 001.034-1.033v-4.134a1.033 1.033 0 00-1.034-1.033zM43.4 50.633h-2.067v-2.066H43.4v2.066z" fill="#FFAAA1"/></svg>