<svg width="64" height="63" viewBox="0 0 64 63" fill="none" xmlns="http://www.w3.org/2000/svg"><path d="M7.887 3.97a1.23 1.23 0 000 2.459H7.9c.68 0 1.224-.55 1.224-1.23 0-.679-.557-1.23-1.236-1.23zm5.897 0a1.23 1.23 0 000 2.459h.012c.68 0 1.224-.55 1.224-1.23 0-.679-.557-1.23-1.236-1.23zm5.897 0a1.23 1.23 0 000 2.459h.012c.68 0 1.224-.55 1.224-1.23 0-.679-.557-1.23-1.236-1.23zm35.431 0H33.959a1.23 1.23 0 000 2.459h21.153a1.23 1.23 0 000-2.46z" fill="#FFAAA1"/><path d="M61.776 40.248a1.23 1.23 0 00-1.23 1.23V60.54H2.46v-2.457h4.396a1.23 1.23 0 000-2.46h-4.38L2.46 10.398h58.086v19.274a1.23 1.23 0 002.46 0V1.231A1.23 1.23 0 0061.76 0H1.23C.55 0 0 .55 0 1.23v60.54C0 62.45.55 63 1.23 63h60.546c.68 0 1.23-.55 1.23-1.23V41.478c0-.679-.55-1.23-1.23-1.23zM2.46 2.462h58.086V7.94H2.46V2.46z" fill="#FFAAA1"/><path d="M62.645 34.583a1.236 1.236 0 00-.87-.36c-.323 0-.64.131-.869.36-.228.229-.36.546-.36.87 0 .323.131.64.36.869.229.229.546.36.87.36a1.233 1.233 0 00.87-2.1zm-16.587 2.099a4.065 4.065 0 003.868 2.829 4.063 4.063 0 004.058-4.059 4.063 4.063 0 00-4.058-4.058 4.065 4.065 0 00-3.868 2.828h-2.075a12.486 12.486 0 00-2.79-6.723l3.42-3.42a4.558 4.558 0 005.444-.75 4.555 4.555 0 000-6.435 4.555 4.555 0 00-6.435 0 4.558 4.558 0 00-.749 5.445l-3.42 3.42a12.487 12.487 0 00-6.724-2.79v-2.076a4.065 4.065 0 002.828-3.867 4.063 4.063 0 00-4.058-4.059 4.063 4.063 0 00-4.058 4.059c0 1.81 1.19 3.345 2.828 3.867v2.076a12.487 12.487 0 00-6.725 2.792l-.03-.033-3.389-3.389a4.558 4.558 0 00-.75-5.445 4.555 4.555 0 00-6.434 0 4.556 4.556 0 000 6.435 4.536 4.536 0 003.217 1.33c.77 0 1.539-.194 2.228-.58l3.389 3.388.033.03a12.488 12.488 0 00-2.793 6.725H16.94a4.065 4.065 0 00-3.867-2.828 4.063 4.063 0 00-4.058 4.058 4.063 4.063 0 004.058 4.059c1.81 0 3.345-1.19 3.867-2.829h2.076a12.487 12.487 0 002.79 6.724l-3.42 3.42a4.558 4.558 0 00-5.445.75 4.555 4.555 0 000 6.435 4.536 4.536 0 003.217 1.33c1.166 0 2.33-.443 3.218-1.33a4.558 4.558 0 00.75-5.445l3.42-3.42a12.488 12.488 0 006.723 2.79v2.075a4.065 4.065 0 00-2.828 3.868 4.063 4.063 0 004.058 4.058 4.063 4.063 0 004.058-4.058c0-1.81-1.19-3.346-2.828-3.868v-2.075a12.486 12.486 0 006.724-2.79l3.42 3.42a4.558 4.558 0 00.75 5.445 4.536 4.536 0 003.217 1.33c1.165 0 2.33-.443 3.217-1.33a4.555 4.555 0 000-6.435 4.558 4.558 0 00-5.445-.75l-3.42-3.42a12.487 12.487 0 002.79-6.724h2.076zm3.868-2.828a1.6 1.6 0 011.599 1.598 1.6 1.6 0 01-1.6 1.6 1.6 1.6 0 01-1.598-1.6 1.6 1.6 0 011.599-1.598zm-4.564-15.22a2.084 2.084 0 011.478-.612c.535 0 1.07.204 1.478.611a2.093 2.093 0 010 2.957 2.093 2.093 0 01-2.956 0 2.093 2.093 0 010-2.957zM17.637 21.59a2.093 2.093 0 01-2.957 0 2.093 2.093 0 010-2.957 2.084 2.084 0 011.479-.611c.535 0 1.07.204 1.478.611a2.093 2.093 0 010 2.957zm-4.564 15.46a1.6 1.6 0 01-1.599-1.599 1.6 1.6 0 011.599-1.599 1.6 1.6 0 011.599 1.6 1.6 1.6 0 01-1.6 1.598zm4.564 15.22a2.093 2.093 0 01-2.957 0 2.093 2.093 0 010-2.956 2.084 2.084 0 011.479-.612c.535 0 1.07.204 1.478.612a2.093 2.093 0 010 2.957zm27.725-2.956a2.084 2.084 0 011.478-.612 2.093 2.093 0 011.478 3.568 2.093 2.093 0 01-2.956 0 2.093 2.093 0 010-2.956zM29.9 17.026a1.6 1.6 0 011.6-1.599 1.6 1.6 0 011.598 1.599 1.6 1.6 0 01-1.599 1.599 1.6 1.6 0 01-1.598-1.599zm3.198 36.853a1.6 1.6 0 01-1.599 1.599 1.6 1.6 0 01-1.598-1.6 1.6 1.6 0 011.598-1.598 1.6 1.6 0 011.6 1.599zm4.55-10.441a10.03 10.03 0 01-6.149 2.099 10.03 10.03 0 01-6.148-2.1v-1.866c0-.959.684-1.782 1.627-1.958l1.284-.24a4.724 4.724 0 003.237 1.28c1.25 0 2.389-.487 3.237-1.28l1.285.24a1.992 1.992 0 011.626 1.958v1.867zm-8.432-7.527v-2.287a2.286 2.286 0 012.283-2.283 2.286 2.286 0 012.284 2.283v2.287a2.286 2.286 0 01-2.284 2.283 2.286 2.286 0 01-2.283-2.283zm10.824 4.893a4.454 4.454 0 00-3.568-3.61l-.387-.071c.102-.387.157-.793.157-1.212v-2.287a4.748 4.748 0 00-4.743-4.742 4.748 4.748 0 00-4.743 4.742v2.287c0 .419.055.825.158 1.212l-.387.072a4.455 4.455 0 00-3.57 3.61 10.02 10.02 0 01-1.542-5.353c0-5.56 4.524-10.084 10.084-10.084s10.085 4.524 10.085 10.084c0 1.965-.567 3.8-1.544 5.352zM11.715 55.623h-.104a1.23 1.23 0 000 2.46h.104a1.23 1.23 0 000-2.46z" fill="#FFAAA1"/></svg>