<svg width="54" height="54" viewBox="0 0 54 54" fill="none" xmlns="http://www.w3.org/2000/svg"><path d="M3.486 48.777h1.737v1.737H3.486v-1.737zm6.971 0h1.737v1.737h-1.737v-1.737zm3.475 0h1.737v1.737h-1.737v-1.737zm-6.961 0H8.71v1.737H6.97v-1.737zm34.835-3.486h1.737v1.738h-1.737V45.29zm-10.446 0h1.737v1.738H31.36V45.29zm6.96 0h1.738v1.738H38.32V45.29zm-3.485 0h1.737v1.738h-1.737V45.29z" fill="#FFAAA1"/><path d="M52.263 29.611h-15.68a1.74 1.74 0 00-1.738 1.738v1.738H15.68a.879.879 0 01-.874-.874V27.81c6.992-.432 12.584-6.034 13.015-13.016h11.7l2.611 5.223h10.036a.916.916 0 00.821-1.326l-2.38-4.77 2.38-4.771a.916.916 0 00-.821-1.327H42.132l-2.611 5.223h-11.7C27.37 5.792 21.324 0 13.931 0 6.235 0 0 6.234 0 13.932c0 7.392 5.792 13.437 13.068 13.89v4.401a2.611 2.611 0 002.612 2.612h6.96v5.223H11.32a2.611 2.611 0 00-2.611 2.611v2.612H1.738A1.74 1.74 0 000 47.018v5.223c0 .959.78 1.738 1.738 1.738h15.68a1.74 1.74 0 001.737-1.738v-5.223a1.74 1.74 0 00-1.738-1.737h-6.96v-2.612c0-.474.39-.874.874-.874h11.31v2.612a2.611 2.611 0 002.61 2.611h2.612v1.738c0 .958.78 1.737 1.738 1.737h15.68a1.74 1.74 0 001.737-1.737v-5.223a1.74 1.74 0 00-1.737-1.738H29.61a1.74 1.74 0 00-1.737 1.738v1.737h-2.611a.879.879 0 01-.875-.874v-9.582h10.457v1.737c0 .958.78 1.738 1.738 1.738h15.68A1.74 1.74 0 0054 36.55v-5.223c0-.937-.78-1.716-1.737-1.716zM43.217 9.584h7.634l-2.18 4.36 2.18 4.359h-7.634l-1.738-3.486h3.812c.485 0 .874-.39.874-.874a.872.872 0 00-.874-.874H41.48l1.738-3.485zM1.748 13.447C2.001 7.097 7.161 1.97 13.511 1.748c6.623-.232 12.12 4.855 12.573 11.32h-1.738c-.453-5.486-5.16-9.793-10.814-9.572-5.518.21-9.952 4.75-10.046 10.278-.095 5.844 4.633 10.615 10.446 10.615 5.465 0 9.961-4.223 10.404-9.583h1.737c-.453 6.318-5.718 11.32-12.152 11.32-6.876 0-12.447-5.74-12.173-12.679zm17.333-.379a5.23 5.23 0 00-5.423-4.349c-2.675.137-4.844 2.327-4.95 5.002-.126 2.98 2.265 5.444 5.224 5.444 2.58 0 4.728-1.885 5.15-4.36h3.516c-.442 4.466-4.286 7.951-8.887 7.835-4.518-.115-8.235-3.727-8.467-8.234-.263-5.013 3.738-9.183 8.698-9.183 4.507 0 8.224 3.444 8.667 7.835H19.08v.01zm-1.79 1.738a3.487 3.487 0 01-3.675 2.6 3.493 3.493 0 01-3.16-3.221 3.49 3.49 0 013.476-3.739c1.621 0 2.97 1.116 3.359 2.612h-2.485a.872.872 0 00-.874.874c0 .484.39.874.874.874h2.485zm.126 37.457H1.737v-5.224h15.68v5.224zm12.194-8.72h15.68v5.223h-15.68v-5.223zm6.972-6.96V31.36h15.68v5.223h-15.68z" fill="#FFAAA1"/><path d="M45.291 33.097h1.738v1.738H45.29v-1.738zm3.486 0h1.737v1.738h-1.737v-1.738zm-6.971 0h1.737v1.738h-1.737v-1.738zm-3.486 0h1.738v1.738H38.32v-1.738z" fill="#FFAAA1"/></svg>