<svg width="245" height="435" viewBox="0 0 245 435" fill="none" xmlns="http://www.w3.org/2000/svg"><path d="M-7.244 393.352l17.355 23.138s21.693-16.659 56.402-16.659c47.725 0 60.74 35.17 104.126 35.17 34.709 0 60.741-23.138 73.757-46.277l-21.693-46.276s-21.693 18.51-43.386 18.51c-30.371 0-56.402-18.51-91.111-18.51s-69.418 18.51-95.45 50.904z" fill="#FE857D"/><path d="M77.36 0C-10.28 0-81 63.399-81 178.165-81 292.931-10.28 356.33 77.36 356.33c87.639 0 158.359-63.399 158.359-178.165C235.719 63.399 164.999 0 77.359 0zm0 282.287c-46.858 0-84.604-37.021-84.604-104.122S30.502 74.043 77.36 74.043c46.857 0 84.603 37.021 84.603 104.122S124.217 282.287 77.36 282.287z" fill="#FE857D"/></svg>