<svg width="39" height="55" viewBox="0 0 39 55" fill="none" xmlns="http://www.w3.org/2000/svg">
<path d="M26.5084 55C25.8962 55 25.3484 55 24.7362 55C24.7362 54.0669 24.7147 53.1553 24.7469 52.2329C24.7576 52.0184 24.9295 51.7931 25.0584 51.6001C26.6051 49.3692 28.1518 47.1383 29.6984 44.8967C31.6533 42.0759 32.91 38.9763 33.4792 35.5012C32.8885 35.5012 32.3299 35.4798 31.7714 35.512C31.664 35.5227 31.5136 35.705 31.4814 35.8337C30.5899 39.5233 28.4418 42.5264 26.2614 45.5188C25.5202 46.527 24.5106 47.0311 23.2647 47.0311C20.6761 47.0311 18.0876 47.0311 15.4883 47.0311C14.4357 47.0311 13.4583 46.7093 12.8246 45.8834C10.6012 42.9983 8.46378 40.0488 7.47563 36.4558C7.20711 35.4905 7.19636 35.5012 6.20821 35.5012C5.9182 35.5012 5.61746 35.5012 5.29523 35.5012C5.66042 37.8823 6.32636 40.1453 7.47563 42.1939C8.52823 44.0601 9.76343 45.8191 10.9449 47.5995C11.8364 48.9402 12.7923 50.2272 13.6731 51.5786C13.8879 51.9111 14.0061 52.3509 14.0383 52.7477C14.092 53.477 14.0598 54.2171 14.0598 54.9893C13.4583 54.9893 12.9212 54.9893 12.2768 54.9893C12.2768 54.6461 12.2338 54.2814 12.2875 53.9275C12.4057 53.0266 12.0942 52.308 11.5679 51.5894C10.236 49.766 8.99009 47.8891 7.70118 46.0443C5.38116 42.7516 3.97411 39.1264 3.42633 35.158C3.27596 34.064 3.56596 33.7315 4.66152 33.7315C5.63894 33.7315 6.6271 33.7423 7.60452 33.7208C8.18452 33.7101 8.54971 33.946 8.72156 34.5038C8.93638 35.1902 9.1512 35.8766 9.36601 36.563C10.0964 38.8905 11.3853 40.9068 12.7816 42.8696C13.1683 43.4166 13.5549 43.9529 13.9416 44.4891C14.2746 44.9396 14.715 45.2077 15.3057 45.2506C13.5012 41.9901 13.7375 39.4482 16.0039 37.5927C17.9802 35.9731 20.8587 36.0053 22.8028 37.657C25.0262 39.5447 25.2302 42.0866 23.4365 45.2185C23.4687 45.2614 23.4902 45.315 23.5225 45.3579C23.9091 45.1219 24.4247 44.9718 24.6717 44.6393C26.5191 42.1724 28.3666 39.6949 29.3547 36.7132C29.6018 35.9731 29.8273 35.2331 30.0529 34.493C30.214 33.9568 30.5684 33.7208 31.127 33.7315C32.1796 33.7423 33.2322 33.7315 34.2955 33.7315C35.1333 33.7423 35.477 34.1391 35.3696 34.965C34.8433 39.0299 33.404 42.7516 31.0518 46.1087C29.6662 48.0929 28.3021 50.0878 26.9058 52.072C26.6266 52.4689 26.4762 52.855 26.5084 53.3483C26.5299 53.8632 26.5084 54.3994 26.5084 55ZM15.832 41.6898C15.8213 43.6526 17.3787 45.2399 19.3228 45.2614C21.2776 45.2828 22.921 43.6847 22.9317 41.7327C22.9424 39.8021 21.3528 38.1826 19.4194 38.1719C17.4431 38.1504 15.8427 39.7163 15.832 41.6898Z" fill="#FFAAA1"/>
<path d="M32.9314 23.0812C32.3944 22.9096 32.1688 23.2314 31.997 23.7998C31.8036 24.4541 31.5029 25.0761 31.2021 25.6768C31.0518 25.9771 31.0625 26.1701 31.3203 26.3954C31.5566 26.5991 31.7714 26.8351 31.9755 27.0711C32.3192 27.4679 32.3299 27.9506 31.9647 28.3152C30.7188 29.5808 29.4621 30.8357 28.1947 32.0798C27.8295 32.4445 27.2603 32.466 26.9595 32.0584C26.2936 31.1253 25.5847 31.1575 24.7039 31.7259C24.328 31.9726 23.8554 32.0906 23.415 32.2085C23.0606 32.3051 22.9747 32.4874 22.9639 32.8306C22.9532 34.5789 22.8995 34.6218 21.1487 34.6218C19.7739 34.6218 18.4098 34.6218 17.035 34.6218C16.1327 34.6218 15.8535 34.3322 15.8535 33.4205C15.8535 32.4123 15.8427 32.4231 14.8653 32.0369C14.2961 31.8117 13.7375 31.565 13.2005 31.2862C12.9427 31.1575 12.7709 31.1575 12.5775 31.3827C12.3734 31.6187 12.1372 31.8332 11.9009 32.0369C11.4605 32.4231 10.9771 32.4338 10.569 32.0262C9.33379 30.8035 8.0986 29.5808 6.87414 28.3367C6.46599 27.9291 6.43377 27.3607 6.89562 27.0174C7.77637 26.3739 7.80859 25.7197 7.22859 24.8616C6.94933 24.4433 6.87414 23.8963 6.65932 23.4244C6.58414 23.2743 6.38006 23.1134 6.20821 23.0919C5.88598 23.0383 5.54228 23.0812 5.20931 23.0598C4.65079 23.0276 4.30708 22.7058 4.29634 22.1481C4.2856 20.3891 4.2856 18.6409 4.29634 16.8819C4.29634 16.3027 4.67227 15.9059 5.25227 15.981C6.2834 16.1311 6.78821 15.745 6.98155 14.7368C7.06748 14.2756 7.31452 13.8359 7.56155 13.4283C7.78711 13.0637 7.69044 12.8599 7.42192 12.581C6.24043 11.3798 6.24043 11.294 7.43266 10.1034C8.41008 9.12742 9.39824 8.14068 10.3757 7.16466C10.9879 6.55331 11.4283 6.55331 12.0297 7.14321C12.7923 7.89399 12.7923 7.88327 13.7912 7.44353C14.3283 7.20757 14.8868 6.99306 15.4453 6.81072C15.7246 6.72492 15.832 6.59622 15.8213 6.30663C15.7998 5.97414 15.8105 5.64165 15.832 5.30916C15.8642 4.78362 16.1864 4.4404 16.7235 4.4404C18.4957 4.41895 20.2787 4.41895 22.0509 4.4404C22.5772 4.4404 22.8887 4.79434 22.9317 5.31989C22.9317 5.34134 22.9317 5.36279 22.9317 5.37352C22.6954 6.42461 23.1573 6.95016 24.1884 7.13249C24.6073 7.20757 25.0369 7.4328 25.4021 7.66876C25.821 7.94762 26.1002 7.85109 26.3795 7.49715C26.5299 7.31482 26.7125 7.15394 26.8951 6.99306C27.314 6.62839 27.7973 6.59622 28.184 6.98233C29.4406 8.21576 30.6866 9.44918 31.911 10.7041C32.3084 11.1116 32.3407 11.6801 31.8788 12.0233C30.9873 12.6668 30.9873 13.3318 31.5566 14.1791C31.8144 14.5652 31.9433 15.0586 32.0721 15.5198C32.1688 15.8737 32.3514 15.9595 32.6951 15.9702C34.4566 15.981 34.4781 16.0239 34.4781 17.7936C34.4781 19.0484 34.4781 20.3033 34.4781 21.5689C34.5103 22.8989 34.3277 23.0812 32.9314 23.0812ZM30.0206 27.6288C29.3332 27.0282 29.0003 26.2774 29.3869 25.3335C29.7843 24.379 30.1818 23.4351 30.5792 22.4806C30.8799 21.7405 31.4277 21.3437 32.2333 21.3008C32.3944 21.2901 32.5447 21.2793 32.6844 21.2686C32.6844 20.0674 32.6844 18.9197 32.6844 17.7507C31.621 17.815 30.8907 17.4396 30.5147 16.4422C30.1818 15.5627 29.8166 14.6939 29.4406 13.8359C29.1184 13.1066 29.1506 12.4416 29.6555 11.8088C29.7843 11.6586 29.924 11.5085 29.9992 11.4227C29.1614 10.5754 28.3451 9.74949 27.5395 8.92363C26.4225 9.89965 26.0143 9.9211 24.618 9.2454C23.9413 8.91291 23.2217 8.67695 22.5128 8.41954C21.7609 8.1514 21.2991 7.65803 21.1917 6.86435C21.1702 6.67129 21.1702 6.46751 21.1595 6.24228C19.978 6.24228 18.8287 6.24228 17.6365 6.24228C17.6794 7.20757 17.4002 7.9798 16.455 8.35519C15.499 8.7413 14.5431 9.14887 13.5979 9.54571C12.8783 9.84602 12.2231 9.73877 11.6323 9.23467C11.5034 9.11669 11.3638 8.99871 11.3101 8.95581C10.4616 9.80312 9.64528 10.6183 8.81823 11.4441C9.52713 12.0769 9.80639 12.8491 9.36602 13.8252C8.97935 14.6939 8.61416 15.5841 8.25971 16.4743C7.94823 17.268 7.37896 17.697 6.54118 17.7292C6.40154 17.7399 6.26191 17.7292 6.1008 17.7292C6.1008 18.9412 6.1008 20.0888 6.1008 21.2793C7.46489 21.1614 8.12008 21.88 8.43156 23.0919C8.57119 23.6389 8.82897 24.1645 9.08675 24.6793C9.79565 26.1165 9.77417 26.4812 8.76453 27.6502C9.59157 28.4654 10.4186 29.2912 11.2671 30.1278C11.8901 29.4092 12.6527 29.0874 13.6086 29.495C14.5431 29.8919 15.4776 30.278 16.4227 30.6534C17.1639 30.9537 17.5613 31.5007 17.615 32.2944C17.6257 32.4552 17.6365 32.6161 17.6365 32.7663C18.8394 32.7663 19.9887 32.7663 21.1487 32.7663C21.2454 31.2754 21.5246 30.9322 22.8995 30.471C23.5654 30.2458 24.1884 29.9348 24.8436 29.6559C25.0799 29.5594 25.3054 29.4199 25.5525 29.3556C26.3902 29.1411 27.024 29.5272 27.518 30.0849C28.3558 29.2912 29.1829 28.4654 30.0206 27.6288Z" fill="#FFAAA1"/>
<path d="M39 18.9412C39 19.5847 39 20.1531 39 20.7859C38.3985 20.7538 37.8615 20.7216 37.2815 20.7001C37.2815 20.1424 37.2815 19.6276 37.2815 19.0484C37.8615 19.0162 38.42 18.9733 39 18.9412Z" fill="#FFAAA1"/>
<path d="M23.8554 2.30593C24.0058 1.73748 24.1347 1.20121 24.285 0.600586C24.865 0.772193 25.4021 0.922349 26.0143 1.10468C25.8102 1.68385 25.6276 2.22013 25.4236 2.77785C24.8865 2.61697 24.3817 2.46681 23.8554 2.30593Z" fill="#FFAAA1"/>
<path d="M37.2385 27.7574C36.6692 27.4893 36.1752 27.2641 35.6381 27.0067C35.8422 26.5026 36.0355 26.0199 36.2503 25.4944C36.8089 25.6982 37.3352 25.8805 37.9152 26.0843C37.6896 26.6635 37.4748 27.1783 37.2385 27.7574Z" fill="#FFAAA1"/>
<path d="M15.7139 2.17723C15.1768 2.31666 14.6827 2.45609 14.1349 2.59553C13.9524 2.0378 13.7805 1.50153 13.5979 0.911633C14.1886 0.750752 14.7472 0.611321 15.3379 0.450439C15.4668 1.04034 15.585 1.56588 15.7139 2.17723Z" fill="#FFAAA1"/>
<path d="M17.1209 0.150156C17.7439 0.0965289 18.2917 0.0536271 18.8931 0C18.8931 0.600624 18.8931 1.15835 18.8931 1.7697C18.4098 1.8126 17.8942 1.8555 17.3357 1.8984C17.2605 1.3085 17.1961 0.772231 17.1209 0.150156Z" fill="#FFAAA1"/>
<path d="M33.5436 5.94189C33.9625 6.41381 34.3385 6.84283 34.7359 7.2933C34.2633 7.66869 33.8229 8.02263 33.3611 8.39802C32.9959 7.99045 32.6522 7.60433 32.3407 7.26112C32.7381 6.82138 33.114 6.41381 33.5436 5.94189Z" fill="#FFAAA1"/>
<path d="M2.73892 13.5998C2.15891 13.396 1.64335 13.2136 1.06335 13.0099C1.2889 12.4521 1.49298 11.9373 1.72928 11.3474C2.27706 11.5941 2.78188 11.8301 3.32966 12.0875C3.14707 12.5808 2.95374 13.0528 2.73892 13.5998Z" fill="#FFAAA1"/>
<path d="M38.1407 13.5999C37.5392 13.7929 37.0237 13.9538 36.4544 14.1362C36.2611 13.6321 36.0892 13.1601 35.8852 12.6132C36.4115 12.3879 36.927 12.1627 37.507 11.9053C37.7218 12.4844 37.9152 12.9993 38.1407 13.5999Z" fill="#FFAAA1"/>
<path d="M10.2682 2.31665C10.816 2.04851 11.3316 1.81255 11.8901 1.53369C12.1264 2.09141 12.352 2.60623 12.5775 3.16396C12.0727 3.41064 11.6109 3.62515 11.106 3.87184C10.8375 3.35701 10.569 2.85292 10.2682 2.31665Z" fill="#FFAAA1"/>
<path d="M37.0774 22.3196C37.6789 22.4161 38.2159 22.5126 38.8174 22.6092C38.6993 23.1991 38.5919 23.7353 38.4737 24.3574C37.883 24.2073 37.3244 24.0678 36.7444 23.9177C36.8518 23.3707 36.9592 22.8773 37.0774 22.3196Z" fill="#FFAAA1"/>
<path d="M3.16855 30.2778C2.82484 29.7093 2.55632 29.2481 2.25558 28.7333C2.78188 28.4544 3.27596 28.1863 3.80226 27.8967C4.08152 28.3579 4.35004 28.7977 4.65078 29.3018C4.16745 29.6235 3.68411 29.9453 3.16855 30.2778Z" fill="#FFAAA1"/>
<path d="M22.5236 0.236026C22.4162 0.890278 22.3302 1.41582 22.2443 1.97355C21.7073 1.91992 21.2024 1.86629 20.6224 1.80194C20.6654 1.21204 20.6976 0.654318 20.7406 0.0429688C21.3528 0.107321 21.9221 0.171674 22.5236 0.236026Z" fill="#FFAAA1"/>
<path d="M2.5778 9.7386C2.92151 9.20233 3.233 8.73041 3.56596 8.22632C4.06004 8.58026 4.5219 8.91275 5.00523 9.25596C4.70449 9.71715 4.42523 10.1462 4.12449 10.6288C3.60893 10.3285 3.12559 10.0496 2.5778 9.7386Z" fill="#FFAAA1"/>
<path d="M34.3385 9.72797C34.854 9.38475 35.3159 9.08444 35.81 8.75195C36.1215 9.25605 36.4115 9.73869 36.7444 10.2857C36.2289 10.5753 35.7348 10.8434 35.1977 11.1437C34.9077 10.6718 34.6392 10.2213 34.3385 9.72797Z" fill="#FFAAA1"/>
<path d="M28.4095 4.15063C27.9047 3.88249 27.4536 3.65726 26.9595 3.39985C27.1958 2.8743 27.4321 2.37021 27.7006 1.80176C28.2377 2.06989 28.7317 2.3273 29.301 2.61689C28.9895 3.12099 28.7103 3.60363 28.4095 4.15063Z" fill="#FFAAA1"/>
<path d="M30.8047 3.60376C31.2773 3.96842 31.7284 4.31164 32.2333 4.69775C31.8466 5.15895 31.4814 5.57724 31.084 6.04916C30.6544 5.71667 30.2355 5.39491 29.7844 5.05169C30.1281 4.56905 30.4503 4.10785 30.8047 3.60376Z" fill="#FFAAA1"/>
<path d="M38.9033 17.1286C38.2696 17.2037 37.7433 17.268 37.1633 17.3431C37.0666 16.8068 36.9807 16.3135 36.8841 15.745C37.4533 15.6163 38.0011 15.4983 38.6133 15.3589C38.71 15.9488 38.7959 16.4958 38.9033 17.1286Z" fill="#FFAAA1"/>
<path d="M36.4007 29.3555C36.0785 29.8596 35.767 30.3315 35.4233 30.8678C34.94 30.5246 34.4781 30.2028 33.984 29.8382C34.274 29.377 34.564 28.9372 34.8648 28.4546C35.3911 28.7656 35.8744 29.0445 36.4007 29.3555Z" fill="#FFAAA1"/>
<path d="M0.171852 16.4958C0.311483 15.8737 0.429632 15.316 0.547782 14.7368C1.12779 14.887 1.65409 15.0157 2.25558 15.1658C2.14817 15.7021 2.04076 16.2062 1.93335 16.7639C1.35334 16.6781 0.794821 16.5923 0.171852 16.4958Z" fill="#FFAAA1"/>
<path d="M8.3886 5.68441C8.00193 5.21249 7.65822 4.77275 7.27155 4.30083C7.76563 3.93617 8.21675 3.60368 8.71083 3.23901C9.03305 3.71093 9.3338 4.17213 9.68824 4.68695C9.26935 5.00871 8.8612 5.31975 8.3886 5.68441Z" fill="#FFAAA1"/>
<path d="M2.11594 23.2849C1.53594 23.4136 1.00964 23.5315 0.397408 23.671C0.30074 23.0703 0.204073 22.5019 0.0966644 21.9013C0.698152 21.8262 1.23519 21.7618 1.84742 21.6868C1.93335 22.2123 2.01928 22.7271 2.11594 23.2849Z" fill="#FFAAA1"/>
<path d="M3.1041 26.4168C2.55632 26.6527 2.04076 26.8672 1.47149 27.1032C1.25668 26.5348 1.06334 26.0092 0.837784 25.4193C1.40705 25.237 1.93335 25.0654 2.5241 24.8723C2.72817 25.3979 2.91077 25.8805 3.1041 26.4168Z" fill="#FFAAA1"/>
<path d="M0 20.0887C0 19.4667 0 18.9089 0 18.2869C0.590746 18.319 1.13853 18.3619 1.70779 18.3941C1.70779 18.9304 1.70779 19.4345 1.70779 19.9815C1.13853 20.0244 0.580006 20.0566 0 20.0887Z" fill="#FFAAA1"/>
<path d="M7.1534 6.7462C6.75599 7.17522 6.41228 7.53988 6.02561 7.95818C5.58524 7.57206 5.1556 7.2074 4.68301 6.79983C5.1019 6.36009 5.48857 5.9418 5.84302 5.56641C6.28339 5.97397 6.70228 6.34936 7.1534 6.7462Z" fill="#FFAAA1"/>
<path d="M29.1721 19.5095C29.1829 24.8936 24.7899 29.291 19.4087 29.291C14.0168 29.291 9.62379 24.9043 9.62379 19.5202C9.62379 14.1575 13.9953 9.7815 19.3657 9.77077C24.7576 9.76005 29.1614 14.1253 29.1721 19.5095ZM27.3891 19.5309C27.3891 15.1442 23.8124 11.5512 19.4302 11.5405C15.0157 11.5297 11.4068 15.112 11.4068 19.5202C11.4068 23.9069 14.9835 27.4999 19.3765 27.5106C23.791 27.5214 27.3891 23.9498 27.3891 19.5309Z" fill="#FFAAA1"/>
<path d="M15.8105 23.1025C15.9072 22.5341 16.0146 21.8584 16.1435 21.1934C16.2079 20.8502 16.1542 20.6035 15.875 20.3675C15.4131 19.9707 15.005 19.5202 14.5646 19.0912C14.2638 18.8016 14.0812 18.4798 14.2424 18.0508C14.3927 17.6325 14.7364 17.4824 15.1446 17.4288C15.7461 17.3429 16.3583 17.2893 16.9491 17.1606C17.1746 17.107 17.4431 16.9247 17.5613 16.7209C17.8835 16.1632 18.0983 15.5411 18.4528 15.0048C18.6246 14.7367 19.0006 14.4685 19.3013 14.4578C19.5698 14.4471 19.935 14.7367 20.0961 14.9941C20.4398 15.5304 20.6546 16.1524 20.9876 16.7101C21.1165 16.9247 21.3958 17.1177 21.6428 17.1713C22.2336 17.3108 22.8458 17.3537 23.4473 17.4395C23.8554 17.4931 24.2636 17.654 24.2958 18.0937C24.3173 18.4155 24.1884 18.8123 23.9843 19.0697C23.5976 19.5524 23.0821 19.9385 22.6632 20.4104C22.5021 20.582 22.3947 20.8931 22.4161 21.1183C22.4698 21.7189 22.6095 22.3196 22.7169 22.9202C22.7921 23.3385 22.7706 23.7353 22.3732 24.0142C21.9973 24.2716 21.6428 24.1858 21.2776 23.9713C21.2669 23.9605 21.2454 23.9605 21.2239 23.9498C20.5687 23.6173 19.9028 23.0382 19.2476 23.0382C18.5924 23.0382 17.9372 23.6388 17.2713 23.9713C16.4765 24.3788 15.789 24.0249 15.8105 23.1025ZM20.6224 21.6867C20.5902 21.0539 20.4398 20.5391 20.5795 20.1208C20.7191 19.6918 21.1595 19.3701 21.5461 18.8981C20.3324 19.0054 19.6343 18.4691 19.2798 17.3537C18.9576 18.5013 18.195 18.9732 17.035 19.0054C18.1091 19.6382 18.238 20.5284 17.8942 21.6117C18.8072 20.9681 19.688 20.8502 20.6224 21.6867Z" fill="#FFAAA1"/>
</svg>
