<svg width="339" height="435" viewBox="0 0 339 435" fill="none" xmlns="http://www.w3.org/2000/svg">
<path d="M76.84 393.352L94.92 416.49C94.92 416.49 117.52 399.831 153.68 399.831C203.4 399.831 216.96 435.001 262.16 435.001C298.32 435.001 325.44 411.863 339 388.724L316.4 342.448C316.4 342.448 293.8 360.958 271.2 360.958C239.56 360.958 212.44 342.448 176.28 342.448C140.12 342.448 103.96 360.958 76.84 393.352Z" fill="#737373"/>
<path d="M164.98 0C73.676 0 0 63.3989 0 178.165C0 292.931 73.676 356.33 164.98 356.33C256.284 356.33 329.96 292.931 329.96 178.165C329.96 63.3989 256.284 0 164.98 0ZM164.98 282.287C116.164 282.287 76.84 245.266 76.84 178.165C76.84 111.064 116.164 74.0426 164.98 74.0426C213.796 74.0426 253.12 111.064 253.12 178.165C253.12 245.266 213.796 282.287 164.98 282.287Z" fill="#737373"/>
</svg>
