<svg width="74" height="66" viewBox="0 0 74 66" fill="none" xmlns="http://www.w3.org/2000/svg">
<path d="M21.0881 22.7251H46.7179C47.3166 22.7251 47.8018 22.2399 47.8018 21.6411C47.8018 21.0423 47.3166 20.5571 46.7179 20.5571H21.0881C20.4893 20.5571 20.0042 21.0423 20.0042 21.6411C20.0042 22.2399 20.4895 22.7251 21.0881 22.7251Z" fill="#FFAAA1"/>
<path d="M21.0881 28.6772H46.7179C47.3166 28.6772 47.8018 28.1921 47.8018 27.5933C47.8018 26.9945 47.3166 26.5093 46.7179 26.5093H21.0881C20.4893 26.5093 20.0042 26.9945 20.0042 27.5933C20.0042 28.1921 20.4895 28.6772 21.0881 28.6772Z" fill="#FFAAA1"/>
<path d="M21.0881 34.6299H34.7356C35.3344 34.6299 35.8196 34.1447 35.8196 33.5459C35.8196 32.9471 35.3344 32.4619 34.7356 32.4619H21.0881C20.4893 32.4619 20.0042 32.9471 20.0042 33.5459C20.0042 34.1447 20.4895 34.6299 21.0881 34.6299Z" fill="#FFAAA1"/>
<path d="M21.0881 40.5823H34.7356C35.3344 40.5823 35.8196 40.0971 35.8196 39.4983C35.8196 38.8995 35.3344 38.4143 34.7356 38.4143H21.0881C20.4893 38.4143 20.0042 38.8995 20.0042 39.4983C20.0042 40.0971 20.4895 40.5823 21.0881 40.5823Z" fill="#FFAAA1"/>
<path d="M21.9062 15.4261H46.2194C47.0919 15.4261 47.8018 14.7162 47.8018 13.8437V7.21992C47.8018 6.34739 47.0919 5.63745 46.2194 5.63745H28.9681C28.3693 5.63745 27.8841 6.12264 27.8841 6.72144C27.8841 7.32023 28.3693 7.80542 28.9681 7.80542H45.634V13.2582H22.4917V7.80542H23.9006C24.4994 7.80542 24.9845 7.32023 24.9845 6.72144C24.9845 6.12264 24.4994 5.63745 23.9006 5.63745H21.9063C21.0336 5.63745 20.3237 6.34739 20.3237 7.21992V13.8435C20.3236 14.7162 21.0335 15.4261 21.9062 15.4261Z" fill="#FFAAA1"/>
<path d="M46.3298 32.4619H39.9349C38.9468 32.4619 38.1432 33.2658 38.1432 34.2535V38.7908C38.1432 39.7787 38.947 40.5824 39.9349 40.5824H46.3298C47.3177 40.5824 48.1214 39.7787 48.1214 38.7908V34.2535C48.1213 33.2657 47.3177 32.4619 46.3298 32.4619ZM45.9533 38.4143H40.3111V34.6297H45.9533V38.4143Z" fill="#FFAAA1"/>
<path d="M71.1202 54.1732H69.2178V17.5664C69.2178 14.8966 67.0459 12.7247 64.3761 12.7247H52.5068V4.42732C52.5068 2.51778 50.9533 0.964355 49.0438 0.964355H18.9222C17.0126 0.964355 15.4591 2.51778 15.4591 4.42732V12.7246H9.6239C6.95412 12.7246 4.78225 14.8964 4.78225 17.5662V54.1731H2.87979C1.29182 54.1732 0 55.4651 0 57.0529C0 61.4544 3.58076 65.0352 7.98232 65.0352H66.0178C70.4192 65.0352 74.0001 61.4544 74.0001 57.0529C74 55.4651 72.7082 54.1732 71.1202 54.1732ZM57.457 40.9482C56.8582 40.9482 56.373 41.4334 56.373 42.0322V47.1519C56.373 48.2177 55.5058 49.0849 54.4399 49.0849C53.3739 49.0849 52.5068 48.2177 52.5068 47.1519V32.3856H56.2312C56.3094 32.3856 56.373 32.449 56.373 32.5272V36.9645C56.373 37.5633 56.8582 38.0485 57.457 38.0485C58.0557 38.0485 58.5409 37.5633 58.5409 36.9645V32.5272C58.5409 31.2536 57.5048 30.2176 56.2312 30.2176H52.5068V19.9809H61.9614V49.085H58.0555C58.3649 48.5086 58.5409 47.8506 58.5409 47.1519V42.0322C58.5409 41.4334 58.0557 40.9482 57.457 40.9482ZM17.627 4.42732C17.627 3.71334 18.208 3.13232 18.9222 3.13232H49.0438C49.7578 3.13232 50.3388 3.71334 50.3388 4.42732V47.1518C50.3388 47.8504 50.5148 48.5085 50.8243 49.0849H19.5629C19.562 49.0849 19.561 49.0847 19.5601 49.0847C18.4942 49.0847 17.627 48.2175 17.627 47.1518V4.42732ZM15.9445 49.085H12.0386V19.9808H15.4591V47.1518C15.4591 47.8504 15.6351 48.5086 15.9445 49.085ZM6.95022 17.5662C6.95022 16.092 8.14968 14.8925 9.6239 14.8925H15.4591V17.8128H11.9462C10.8017 17.8128 9.87062 18.7439 9.87062 19.8884V49.1771C9.87062 50.3216 10.8017 51.2528 11.9462 51.2528H62.0536C63.1982 51.2528 64.1292 50.3216 64.1292 49.1771V19.8886C64.1292 18.744 63.1982 17.8129 62.0536 17.8129H52.5068V14.8927H64.3761C65.8503 14.8927 67.0498 16.0922 67.0498 17.5664V54.1732C63.5122 54.1732 10.5428 54.1732 6.95022 54.1732V17.5662ZM26.5504 56.3412H47.4496V57.4307C47.4496 58.0315 46.9608 58.5203 46.36 58.5203H27.64C27.0392 58.5203 26.5504 58.0315 26.5504 57.4307V56.3412ZM66.0177 62.8674H7.98232C4.77632 62.8674 2.16797 60.259 2.16797 57.0529C2.16797 56.6603 2.48724 56.3411 2.87979 56.3411H24.3824V57.4305C24.3824 59.2268 25.8438 60.6881 27.64 60.6881H46.3598C48.1561 60.6881 49.6174 59.2268 49.6174 57.4305V56.3411H71.1201C71.5126 56.3411 71.8319 56.6603 71.8319 57.0529C71.832 60.259 69.2237 62.8674 66.0177 62.8674Z" fill="#FFAAA1"/>
</svg>
