<svg width="72" height="52" viewBox="0 0 72 52" fill="none" xmlns="http://www.w3.org/2000/svg">
<path d="M66.375 0H5.625C2.52338 0 0 2.52338 0 5.625V46.125C0 49.2266 2.52338 51.75 5.625 51.75H66.375C69.4766 51.75 72 49.2266 72 46.125V5.625C72 2.52338 69.4766 0 66.375 0ZM2.25 46.125V9H16.875V49.5H5.625C3.76397 49.5 2.25 47.9859 2.25 46.125ZM66.375 49.5H19.125V9H63C63.6213 9 64.125 8.49628 64.125 7.875C64.125 7.25372 63.6213 6.75 63 6.75H2.25V5.625C2.25 3.76411 3.76397 2.25 5.625 2.25H66.375C68.236 2.25 69.75 3.76411 69.75 5.625V6.75H67.5C66.8787 6.75 66.375 7.25372 66.375 7.875C66.375 8.49628 66.8787 9 67.5 9H69.75V46.125C69.75 47.9859 68.236 49.5 66.375 49.5Z" fill="#FFAAA1"/>
<path d="M5.625 3.375C5.32969 3.375 5.03859 3.49453 4.82906 3.70406C4.61953 3.91359 4.5 4.20328 4.5 4.5C4.5 4.79658 4.61953 5.08641 4.82906 5.29594C5.03859 5.50533 5.32969 5.625 5.625 5.625C5.92031 5.625 6.21 5.50533 6.42094 5.29594C6.63047 5.08641 6.75 4.79658 6.75 4.5C6.75 4.20328 6.63047 3.91359 6.42094 3.70406C6.21141 3.49453 5.92031 3.375 5.625 3.375Z" fill="#FFAAA1"/>
<path d="M9 3.375C8.70469 3.375 8.41359 3.49453 8.20406 3.70406C7.99453 3.91359 7.875 4.20328 7.875 4.5C7.875 4.79658 7.99453 5.08641 8.20406 5.29594C8.41359 5.50533 8.70469 5.625 9 5.625C9.29531 5.625 9.585 5.50533 9.79594 5.29594C10.0055 5.08641 10.125 4.79658 10.125 4.5C10.125 4.20328 10.0055 3.91359 9.79594 3.70406C9.58641 3.49453 9.29531 3.375 9 3.375Z" fill="#FFAAA1"/>
<path d="M12.375 3.375C12.0797 3.375 11.7886 3.49453 11.5791 3.70406C11.3695 3.91359 11.25 4.20328 11.25 4.5C11.25 4.79658 11.3695 5.08641 11.5791 5.29594C11.7886 5.50533 12.0797 5.625 12.375 5.625C12.6703 5.625 12.9614 5.50533 13.1709 5.29594C13.3805 5.08641 13.5 4.79531 13.5 4.5C13.5 4.20455 13.3805 3.91359 13.1709 3.70406C12.9614 3.49453 12.6717 3.375 12.375 3.375Z" fill="#FFAAA1"/>
<path d="M5.625 13.5H13.5C14.1213 13.5 14.625 12.9963 14.625 12.375C14.625 11.7537 14.1213 11.25 13.5 11.25H5.625C5.00372 11.25 4.5 11.7537 4.5 12.375C4.5 12.9963 5.00372 13.5 5.625 13.5Z" fill="#FFAAA1"/>
<path d="M13.5 15.75H5.625C5.00372 15.75 4.5 16.2537 4.5 16.875C4.5 17.4963 5.00372 18 5.625 18H13.5C14.1213 18 14.625 17.4963 14.625 16.875C14.625 16.2537 14.1213 15.75 13.5 15.75Z" fill="#FFAAA1"/>
<path d="M13.5 20.25H5.625C5.00372 20.25 4.5 20.7537 4.5 21.375C4.5 21.9963 5.00372 22.5 5.625 22.5H13.5C14.1213 22.5 14.625 21.9963 14.625 21.375C14.625 20.7537 14.1213 20.25 13.5 20.25Z" fill="#FFAAA1"/>
<path d="M10.125 24.75H5.625C5.00372 24.75 4.5 25.2537 4.5 25.875C4.5 26.4963 5.00372 27 5.625 27H10.125C10.7463 27 11.25 26.4963 11.25 25.875C11.25 25.2537 10.7463 24.75 10.125 24.75Z" fill="#FFAAA1"/>
<path d="M10.125 29.25H5.625C5.00372 29.25 4.5 29.7537 4.5 30.375C4.5 30.9963 5.00372 31.5 5.625 31.5H10.125C10.7463 31.5 11.25 30.9963 11.25 30.375C11.25 29.7537 10.7463 29.25 10.125 29.25Z" fill="#FFAAA1"/>
<path d="M6.75 33.75H5.625C5.00372 33.75 4.5 34.2537 4.5 34.875C4.5 35.4963 5.00372 36 5.625 36H6.75C7.37128 36 7.875 35.4963 7.875 34.875C7.875 34.2537 7.37128 33.75 6.75 33.75Z" fill="#FFAAA1"/>
<path d="M30.375 23.6251C31.8774 23.6251 33.29 24.2101 34.3524 25.2726C34.7917 25.7118 35.504 25.7118 35.9433 25.2726C36.3828 24.8332 36.3828 24.1211 35.9433 23.6816C32.8729 20.6112 27.8768 20.6115 24.8065 23.6816C23.3191 25.169 22.5 27.1466 22.5 29.2501C22.5 31.3535 23.3191 33.3312 24.8065 34.8187C26.3417 36.3539 28.3583 37.1214 30.375 37.1214C32.3917 37.1214 34.4083 36.3539 35.9435 34.8187C36.3829 34.3792 36.3829 33.6671 35.9435 33.2277C35.5042 32.7885 34.7919 32.7885 34.3526 33.2277C33.29 34.2901 31.8774 34.8751 30.375 34.8751C28.8726 34.8751 27.46 34.2901 26.3976 33.2275C25.3351 32.1651 24.75 30.7527 24.75 29.2501C24.75 27.7475 25.3351 26.3351 26.3976 25.2726C27.46 24.2101 28.8726 23.6251 30.375 23.6251Z" fill="#FFAAA1"/>
<path d="M46.128 32.1564C48.1143 31.2874 49.5056 29.3032 49.5056 27C49.5056 23.8984 46.9823 21.375 43.8806 21.375H39.375C38.7537 21.375 38.25 21.8787 38.25 22.5C38.25 22.5377 38.2518 22.575 38.2555 22.6118V36C38.2555 36.6213 38.7592 37.125 39.3805 37.125C40.0018 37.125 40.5055 36.6213 40.5055 36V23.625H43.8805C45.7414 23.625 47.2555 25.1391 47.2555 27C47.2555 28.8609 45.7414 30.375 43.8805 30.375C43.4254 30.375 43.0152 30.6491 42.8411 31.0694C42.667 31.4897 42.7632 31.9738 43.085 32.2955L47.585 36.7955C47.8046 37.0152 48.0925 37.125 48.3805 37.125C48.6685 37.125 48.9563 37.0152 49.176 36.7955C49.6155 36.3561 49.6155 35.6439 49.176 35.2045L46.128 32.1564Z" fill="#FFAAA1"/>
<path d="M64.4127 21.4109C63.9165 21.283 63.396 21.5054 63.1471 21.9536L58.5055 30.3084L53.8639 21.9536C53.615 21.5053 53.0947 21.2821 52.5983 21.4109C52.102 21.5395 51.7555 21.9874 51.7555 22.4999V35.9999C51.7555 36.6212 52.2592 37.1249 52.8805 37.1249C53.5018 37.1249 54.0055 36.6212 54.0055 35.9999V26.8414L57.5221 33.1713C57.7205 33.5284 58.097 33.7499 58.5055 33.7499C58.914 33.7499 59.2906 33.5284 59.4889 33.1713L63.0055 26.8414V35.9999C63.0055 36.6212 63.5092 37.1249 64.1305 37.1249C64.7518 37.1249 65.2555 36.6212 65.2555 35.9999V22.4999C65.2555 21.9872 64.909 21.5395 64.4127 21.4109Z" fill="#FFAAA1"/>
</svg>
