<svg width="69" height="69" viewBox="0 0 69 69" fill="none" xmlns="http://www.w3.org/2000/svg">
<path d="M15.0938 61.4531H10.7812V63.6094H15.0938V61.4531Z" fill="#FFAAA1"/>
<path d="M34.5 22.6406C32.7941 22.6406 31.1266 23.1465 29.7082 24.0942C28.2898 25.0419 27.1843 26.389 26.5315 27.965C25.8787 29.541 25.7079 31.2752 26.0407 32.9483C26.3735 34.6214 27.195 36.1582 28.4012 37.3644C29.6074 38.5706 31.1443 39.3921 32.8174 39.7249C34.4904 40.0577 36.2246 39.8869 37.8006 39.2341C39.3767 38.5813 40.7237 37.4758 41.6714 36.0574C42.6192 34.639 43.125 32.9715 43.125 31.2656C43.1224 28.9789 42.2129 26.7866 40.596 25.1697C38.979 23.5527 36.7867 22.6432 34.5 22.6406ZM34.5 37.7344C33.2206 37.7344 31.9699 37.355 30.9062 36.6442C29.8424 35.9334 29.0133 34.9231 28.5237 33.7411C28.0341 32.5591 27.906 31.2584 28.1555 30.0036C28.4051 28.7488 29.0212 27.5962 29.9259 26.6915C30.8306 25.7869 31.9832 25.1708 33.238 24.9212C34.4928 24.6716 35.7935 24.7997 36.9755 25.2893C38.1575 25.7789 39.1678 26.608 39.8786 27.6718C40.5894 28.7356 40.9688 29.9862 40.9688 31.2656C40.967 32.9807 40.285 34.6251 39.0722 35.8378C37.8595 37.0506 36.2151 37.7327 34.5 37.7344Z" fill="#FFAAA1"/>
<path d="M66.8437 26.953C66.8417 23.8084 65.5916 20.793 63.368 18.5694C61.1444 16.3458 58.1291 15.0957 54.9844 15.0937C54.8226 15.0937 54.6609 15.0937 54.4884 15.1045C53.9873 13.4994 53.1172 12.034 51.9479 10.8257C50.7785 9.61746 49.3424 8.69987 47.7546 8.1465C46.1668 7.59312 44.4715 7.41935 42.8044 7.6391C41.1374 7.85886 39.545 8.46602 38.1548 9.41195C36.691 6.75523 34.4049 4.64509 31.6396 3.39841C28.8743 2.15172 25.7793 1.83579 22.8192 2.49805C19.859 3.16031 17.1937 4.76501 15.2233 7.07119C13.2529 9.37736 12.0839 12.2605 11.8917 15.2877C9.16308 15.7837 6.69472 17.2207 4.91618 19.3487C3.13764 21.4766 2.16151 24.1608 2.15767 26.9342C2.15382 29.7075 3.1225 32.3944 4.89513 34.5273C6.66776 36.6602 9.13212 38.104 11.8594 38.6076V47.4374H7.54687C7.26094 47.4374 6.98671 47.551 6.78452 47.7532C6.58233 47.9554 6.46875 48.2296 6.46875 48.5155V65.7656C6.46875 66.0515 6.58233 66.3257 6.78452 66.5279C6.98671 66.7301 7.26094 66.8437 7.54687 66.8437H26.9531C27.2391 66.8437 27.5133 66.7301 27.7155 66.5279C27.9177 66.3257 28.0312 66.0515 28.0312 65.7656V50.6718C28.0312 50.3859 27.9177 50.1116 27.7155 49.9095C27.5133 49.7073 27.2391 49.5937 26.9531 49.5937H17.692L15.8592 47.7501C15.6536 47.5515 15.3796 47.4396 15.0937 47.4374H14.0156V38.8124H20.8509L20.7755 38.8879C20.575 39.0882 20.4159 39.326 20.3074 39.5877C20.1989 39.8495 20.1431 40.1301 20.1431 40.4134C20.1431 40.6968 20.1989 40.9774 20.3074 41.2392C20.4159 41.5009 20.575 41.7387 20.7755 41.939L23.8266 44.9901C24.0268 45.1906 24.2646 45.3496 24.5264 45.4581C24.7882 45.5666 25.0687 45.6225 25.3521 45.6225C25.6355 45.6225 25.9161 45.5666 26.1778 45.4581C26.4396 45.3496 26.6774 45.1906 26.8777 44.9901L28.9584 42.9524C29.3584 43.1409 29.7687 43.3065 30.1875 43.4484V46.3593C30.1892 46.9306 30.4169 47.4781 30.8209 47.8821C31.2249 48.2861 31.7724 48.5138 32.3437 48.5155H36.6562C37.2276 48.5138 37.7751 48.2861 38.1791 47.8821C38.5831 47.4781 38.8108 46.9306 38.8125 46.3593L38.8448 43.4484C39.2631 43.2969 39.6733 43.1242 40.0739 42.9309L42.1223 44.9901C42.3226 45.1906 42.5604 45.3496 42.8222 45.4581C43.0839 45.5666 43.3645 45.6225 43.6479 45.6225C43.9312 45.6225 44.2118 45.5666 44.4736 45.4581C44.7354 45.3496 44.9732 45.1906 45.1734 44.9901L48.2245 41.939C48.425 41.7387 48.584 41.5009 48.6926 41.2392C48.8011 40.9774 48.8569 40.6968 48.8569 40.4134C48.8569 40.1301 48.8011 39.8495 48.6926 39.5877C48.584 39.326 48.425 39.0882 48.2245 38.8879L48.1491 38.8124H54.9844V49.5937H52.192L50.3592 47.7501C50.1536 47.5515 49.8796 47.4396 49.5937 47.4374H42.0469C41.7609 47.4374 41.4867 47.551 41.2845 47.7532C41.0823 47.9554 40.9687 48.2296 40.9687 48.5155V65.7656C40.9687 66.0515 41.0823 66.3257 41.2845 66.5279C41.4867 66.7301 41.7609 66.8437 42.0469 66.8437H61.4531C61.7391 66.8437 62.0133 66.7301 62.2155 66.5279C62.4177 66.3257 62.5312 66.0515 62.5312 65.7656V50.6718C62.5312 50.3859 62.4177 50.1116 62.2155 49.9095C62.0133 49.7073 61.7391 49.5937 61.4531 49.5937H57.1406V38.6076C59.8625 38.0998 62.3216 36.6575 64.0932 34.5296C65.8648 32.4017 66.8377 29.7219 66.8437 26.953ZM25.875 64.6874H8.625V56.0624H25.875V64.6874ZM14.6517 49.5937L16.4845 51.4373C16.6901 51.6359 16.9642 51.7478 17.25 51.7499H25.875V53.9062H8.625V49.5937H14.6517ZM14.0156 36.6562V32.3437H17.25V33.4218C17.2517 33.9931 17.4794 34.5406 17.8834 34.9446C18.2874 35.3486 18.8349 35.5763 19.4062 35.578L22.3172 35.6104C22.4466 35.9554 22.5975 36.3004 22.7592 36.6562H14.0156ZM43.6533 43.4591L41.5941 41.4107C41.2758 41.0949 40.8672 40.8859 40.4249 40.8125C39.9826 40.7391 39.5284 40.805 39.1251 41.001C38.7984 41.1551 38.4637 41.2919 38.1225 41.4107C37.6986 41.5589 37.3305 41.8339 37.0682 42.1984C36.8059 42.5629 36.6621 42.9993 36.6562 43.4484V46.3593H32.3437V43.4484C32.3379 42.9993 32.1941 42.5629 31.9318 42.1984C31.6695 41.8339 31.3014 41.5589 30.8775 41.4107C30.5363 41.2919 30.2016 41.1551 29.8748 41.001C29.578 40.861 29.2543 40.7875 28.9261 40.7854C28.644 40.7846 28.3646 40.8394 28.1038 40.9467C27.8429 41.054 27.6058 41.2117 27.4059 41.4107L25.3467 43.4591L22.3064 40.4188L24.3548 38.3596C24.6715 38.0418 24.8811 37.6332 24.9545 37.1907C25.028 36.7481 24.9615 36.2937 24.7645 35.8907C24.6104 35.5639 24.4737 35.2292 24.3548 34.8881C24.2067 34.4641 23.9317 34.096 23.5671 33.8337C23.2026 33.5714 22.7662 33.4276 22.3172 33.4218H19.4062V29.1093H22.3172C22.7662 29.1035 23.2026 28.9597 23.5671 28.6974C23.9317 28.4351 24.2067 28.067 24.3548 27.643C24.4737 27.3019 24.6104 26.9672 24.7645 26.6404C24.9615 26.2374 25.028 25.783 24.9545 25.3404C24.8811 24.8979 24.6715 24.4893 24.3548 24.1715L22.3064 22.1123L25.3467 19.072L27.4059 21.1204C27.7242 21.4362 28.1328 21.6452 28.5751 21.7186C29.0174 21.792 29.4716 21.7261 29.8748 21.5301C30.2016 21.376 30.5363 21.2392 30.8775 21.1204C31.3014 20.9722 31.6695 20.6972 31.9318 20.3327C32.1941 19.9682 32.3379 19.5318 32.3437 19.0827V16.1718H36.6562V19.0827C36.6621 19.5318 36.8059 19.9682 37.0682 20.3327C37.3305 20.6972 37.6986 20.9722 38.1225 21.1204C38.4637 21.2392 38.7984 21.376 39.1251 21.5301C39.5284 21.7261 39.9826 21.792 40.4249 21.7186C40.8672 21.6452 41.2758 21.4362 41.5941 21.1204L43.6533 19.072L46.6936 22.1123L44.6451 24.1715C44.3285 24.4893 44.1189 24.8979 44.0455 25.3404C43.972 25.783 44.0384 26.2374 44.2355 26.6404C44.3896 26.9672 44.5263 27.3019 44.6451 27.643C44.7933 28.067 45.0683 28.4351 45.4329 28.6974C45.7974 28.9597 46.2338 29.1035 46.6828 29.1093H49.5937V33.4218H46.6828C46.2338 33.4276 45.7974 33.5714 45.4329 33.8337C45.0683 34.096 44.7933 34.4641 44.6451 34.8881C44.5263 35.2292 44.3896 35.5639 44.2355 35.8907C44.0384 36.2937 43.972 36.7481 44.0455 37.1907C44.1189 37.6332 44.3285 38.0418 44.6451 38.3596L46.6936 40.4188L43.6533 43.4591ZM46.2516 36.6562C46.4025 36.3112 46.5534 35.9662 46.6828 35.578H49.5937C50.1651 35.5763 50.7125 35.3486 51.1166 34.9446C51.5206 34.5406 51.7483 33.9931 51.75 33.4218V32.3437H54.9844V36.6562H46.2516ZM60.375 64.6874H43.125V56.0624H60.375V64.6874ZM60.375 51.7499V53.9062H43.125V49.5937H49.1517L50.9845 51.4373C51.1901 51.6359 51.4642 51.7478 51.75 51.7499H60.375ZM56.0625 30.1874H51.75V29.1093C51.7483 28.5379 51.5206 27.9905 51.1166 27.5865C50.7125 27.1825 50.1651 26.9548 49.5937 26.953L46.6828 26.9207C46.5314 26.5025 46.3587 26.0922 46.1653 25.6916L48.2245 23.6432C48.425 23.4429 48.584 23.2051 48.6926 22.9434C48.8011 22.6816 48.8569 22.401 48.8569 22.1177C48.8569 21.8343 48.8011 21.5537 48.6926 21.2919C48.584 21.0302 48.425 20.7924 48.2245 20.5921L45.1734 17.541C44.9732 17.3405 44.7354 17.1815 44.4736 17.073C44.2118 16.9645 43.9312 16.9086 43.6479 16.9086C43.3645 16.9086 43.0839 16.9645 42.8222 17.073C42.5604 17.1815 42.3226 17.3405 42.1223 17.541L40.0416 19.5787C39.6416 19.3902 39.2312 19.2246 38.8125 19.0827V16.1718C38.8108 15.6004 38.5831 15.053 38.1791 14.649C37.7751 14.245 37.2276 14.0173 36.6562 14.0155H32.3437C31.7724 14.0173 31.2249 14.245 30.8209 14.649C30.4169 15.053 30.1892 15.6004 30.1875 16.1718L30.1551 19.0827C29.7369 19.2341 29.3267 19.4069 28.9261 19.6002L26.8777 17.541C26.6774 17.3405 26.4396 17.1815 26.1778 17.073C25.9161 16.9645 25.6355 16.9086 25.3521 16.9086C25.0687 16.9086 24.7882 16.9645 24.5264 17.073C24.2646 17.1815 24.0268 17.3405 23.8266 17.541L20.7755 20.5921C20.575 20.7924 20.4159 21.0302 20.3074 21.2919C20.1989 21.5537 20.1431 21.8343 20.1431 22.1177C20.1431 22.401 20.1989 22.6816 20.3074 22.9434C20.4159 23.2051 20.575 23.4429 20.7755 23.6432L22.8131 25.724C22.6247 26.124 22.4591 26.5343 22.3172 26.953H19.4062C18.8349 26.9548 18.2874 27.1825 17.8834 27.5865C17.4794 27.9905 17.2517 28.5379 17.25 29.1093V30.1874H12.9375C12.6516 30.1874 12.3773 30.301 12.1751 30.5032C11.973 30.7054 11.8594 30.9796 11.8594 31.2655V36.4082C9.6149 35.8968 7.62537 34.604 6.24621 32.7609C4.86704 30.9178 4.18808 28.6443 4.33063 26.3467C4.47318 24.0492 5.42794 21.8771 7.02435 20.2186C8.62077 18.5601 10.7548 17.5231 13.0453 17.293C13.3152 17.2548 13.562 17.1202 13.7404 16.9141C13.9187 16.708 14.0165 16.4443 14.0156 16.1718C14.0167 13.441 14.9602 10.7943 16.6867 8.67861C18.4132 6.5629 20.817 5.10784 23.4921 4.55914C26.1671 4.01044 28.9496 4.40173 31.3696 5.66692C33.7896 6.93212 35.6988 8.9937 36.7748 11.5035C36.8418 11.6614 36.945 11.8013 37.0761 11.9118C37.2073 12.0223 37.3626 12.1004 37.5295 12.1396C37.6977 12.1761 37.8721 12.1727 38.0387 12.1296C38.2054 12.0865 38.3596 12.005 38.4891 11.8916C40.058 10.4813 42.0935 9.70165 44.2031 9.70305C46.1677 9.71078 48.0713 10.3862 49.6013 11.6185C51.1314 12.8508 52.197 14.5667 52.6233 16.4845C52.6805 16.7494 52.8354 16.9831 53.0572 17.1389C53.279 17.2947 53.5513 17.3613 53.82 17.3254C54.206 17.2748 54.595 17.2496 54.9844 17.2499C57.3659 17.2556 59.6621 18.137 61.4359 19.7261C63.2096 21.3152 64.337 23.5012 64.6034 25.8678C64.8697 28.2344 64.2565 30.6162 62.8803 32.5599C61.5042 34.5036 59.4613 35.8733 57.1406 36.4082V31.2655C57.1406 30.9796 57.027 30.7054 56.8248 30.5032C56.6227 30.301 56.3484 30.1874 56.0625 30.1874Z" fill="#FFAAA1"/>
<path d="M49.5938 60.375H45.2812V62.5312H49.5938V60.375Z" fill="#FFAAA1"/>
</svg>
