<svg width="52" height="50" viewBox="0 0 52 50" fill="none" xmlns="http://www.w3.org/2000/svg">
<path d="M26 23.9998C26.1473 23.9998 26.2947 23.9695 26.4312 23.9088L51.3478 13.0755C51.7443 12.9043 52 12.5143 52 12.0832C52 11.652 51.7443 11.262 51.3478 11.0908L26.4312 0.257504C26.156 0.136171 25.844 0.136171 25.5688 0.257504L0.652164 11.0908C0.255665 11.262 0 11.652 0 12.0832C0 12.5143 0.255665 12.9043 0.652164 13.0755L25.5688 23.9088C25.7053 23.9695 25.8527 23.9998 26 23.9998ZM48.1997 12.0832L26 21.7357L3.80033 12.0832L26 2.43067L48.1997 12.0832Z" fill="#FFAAA1"/>
<path d="M26 32.6666C26.1473 32.6666 26.2947 32.6362 26.4312 32.5756L51.3478 21.7422C51.7443 21.5711 52 21.1811 52 20.7499C52 20.3187 51.7443 19.9287 51.3478 19.7576L41.3812 15.4242C40.8308 15.1859 40.196 15.4351 39.9555 15.9854C39.7172 16.5336 39.9685 17.1727 40.5167 17.4111L48.1997 20.7499L26 30.4024L3.80033 20.7499L11.4812 17.4089C12.0293 17.1706 12.2828 16.5314 12.0423 15.9832C11.804 15.4329 11.1692 15.1816 10.6167 15.4221L0.649998 19.7554C0.255665 19.9287 0 20.3187 0 20.7499C0 21.1811 0.255665 21.5711 0.652164 21.7422L25.5688 32.5756C25.7053 32.6362 25.8527 32.6666 26 32.6666Z" fill="#FFAAA1"/>
<path d="M26 41.3332C26.1473 41.3332 26.2947 41.3028 26.4312 41.2422L51.3478 30.4088C51.7443 30.2377 52 29.8477 52 29.4165C52 28.9853 51.7443 28.5953 51.3478 28.4242L41.3812 24.0908C40.8308 23.8525 40.196 24.1038 39.9555 24.652C39.7172 25.2002 39.9685 25.8393 40.5167 26.0777L48.1997 29.4165L26 39.069L3.80033 29.4165L11.4812 26.0755C12.0293 25.8372 12.2828 25.198 12.0423 24.6498C11.804 24.1017 11.1692 23.846 10.6167 24.0887L0.649998 28.422C0.255665 28.5953 0 28.9853 0 29.4165C0 29.8477 0.255665 30.2377 0.652164 30.4088L25.5688 41.2422C25.7053 41.3028 25.8527 41.3332 26 41.3332Z" fill="#FFAAA1"/>
<path d="M26 49.9999C26.1473 49.9999 26.2947 49.9696 26.4312 49.9089L51.3478 39.0756C51.7443 38.9044 52 38.5144 52 38.0833C52 37.6521 51.7443 37.2621 51.3478 37.0909L41.3812 32.7576C40.8308 32.5171 40.196 32.7706 39.9555 33.3188C39.7172 33.8669 39.9685 34.5061 40.5167 34.7444L48.1997 38.0833L26 47.7357L3.80033 38.0833L11.4812 34.7423C12.0293 34.5039 12.2828 33.8648 12.0423 33.3166C11.804 32.7684 11.1692 32.5128 10.6167 32.7554L0.649998 37.0888C0.255665 37.2621 0 37.6521 0 38.0833C0 38.5144 0.255665 38.9044 0.652164 39.0756L25.5688 49.9089C25.7053 49.9696 25.8527 49.9999 26 49.9999Z" fill="#FFAAA1"/>
</svg>
