<svg width="53" height="47" viewBox="0 0 53 47" fill="none" xmlns="http://www.w3.org/2000/svg">
<path d="M52.4843 14.7878L44.848 9.39389V1.51511C44.7714 0.734645 44.1702 0.10823 43.3934 0H9.93934C9.1627 0.108346 8.56134 0.734645 8.48478 1.51511V9.33322L0.545444 14.7877C0.230961 15.016 0.0317847 15.3701 0 15.7573V44.5449C0.103242 45.335 0.725016 45.9569 1.51511 46.06H51.8177C52.4843 46.06 52.7268 45.2721 52.7268 44.5449V15.7574C52.7268 15.3938 52.7873 15.0301 52.4843 14.7878ZM44.848 12.3029L50.0601 15.8786L44.848 19.8179V12.3029ZM10.909 2.42422H42.4238V21.6968L26.6663 33.5754L10.9089 21.6968V2.42422H10.909ZM8.48478 12.2423V19.8787L3.27267 15.8787L8.48478 12.2423ZM2.42422 18.3634L19.3938 31.2118L2.42422 42.6662V18.3634ZM5.33334 43.6359L21.4543 32.7876L25.7573 36.0602C26.0009 36.2485 26.298 36.3546 26.6058 36.3632C26.8482 36.3632 26.9694 36.242 27.2118 36.0602L31.6966 32.6057L47.9994 43.6359H5.33334ZM50.3026 42.242L33.6967 31.0906L50.3026 18.3634V42.242Z" fill="#FFAAA1"/>
<path d="M16.9696 10.3029H22.424C23.0935 10.3029 23.6361 9.76022 23.6361 9.09077C23.6361 8.42132 23.0935 7.87866 22.424 7.87866H16.9696C16.3001 7.87866 15.7574 8.42132 15.7574 9.09077C15.7574 9.76022 16.3001 10.3029 16.9696 10.3029Z" fill="#FFAAA1"/>
<path d="M16.9696 15.7575H36.3633C37.0328 15.7575 37.5755 15.2148 37.5755 14.5454C37.5755 13.8759 37.0328 13.3333 36.3633 13.3333H16.9696C16.3001 13.3333 15.7574 13.8759 15.7574 14.5454C15.7574 15.2148 16.3001 15.7575 16.9696 15.7575Z" fill="#FFAAA1"/>
<path d="M37.5753 19.9997C37.5753 19.3303 37.0327 18.7876 36.3632 18.7876H16.9696C16.3001 18.7876 15.7574 19.3303 15.7574 19.9997C15.7574 20.6692 16.3001 21.2118 16.9696 21.2118H36.3633C37.0327 21.2118 37.5753 20.6692 37.5753 19.9997Z" fill="#FFAAA1"/>
</svg>
