<svg width="62" height="62" viewBox="0 0 62 62" fill="none" xmlns="http://www.w3.org/2000/svg">
<path d="M56.8333 4.13333H50.6333V3.1C50.6333 2.27783 50.3067 1.48933 49.7254 0.907969C49.144 0.326606 48.3555 0 47.5333 0C46.7112 0 45.9227 0.326606 45.3413 0.907969C44.7599 1.48933 44.4333 2.27783 44.4333 3.1V4.13333H34.1V3.1C34.1 2.27783 33.7734 1.48933 33.192 0.907969C32.6107 0.326606 31.8222 0 31 0C30.1778 0 29.3893 0.326606 28.808 0.907969C28.2266 1.48933 27.9 2.27783 27.9 3.1V4.13333H17.5667V3.1C17.5667 2.27783 17.2401 1.48933 16.6587 0.907969C16.0773 0.326606 15.2888 0 14.4667 0C13.6445 0 12.856 0.326606 12.2746 0.907969C11.6933 1.48933 11.3667 2.27783 11.3667 3.1V4.13333H5.16667C3.79685 4.13487 2.48359 4.67971 1.51498 5.64831C0.546376 6.61692 0.00153844 7.93019 0 9.3V56.8333C0.00153844 58.2031 0.546376 59.5164 1.51498 60.485C2.48359 61.4536 3.79685 61.9985 5.16667 62H56.8333C58.2031 61.9985 59.5164 61.4536 60.485 60.485C61.4536 59.5164 61.9985 58.2031 62 56.8333V9.3C61.9985 7.93019 61.4536 6.61692 60.485 5.64831C59.5164 4.67971 58.2031 4.13487 56.8333 4.13333ZM46.5 3.1C46.5 2.82594 46.6089 2.56311 46.8027 2.36932C46.9964 2.17554 47.2593 2.06667 47.5333 2.06667C47.8074 2.06667 48.0702 2.17554 48.264 2.36932C48.4578 2.56311 48.5667 2.82594 48.5667 3.1V9.3C48.5667 9.57406 48.4578 9.83689 48.264 10.0307C48.0702 10.2245 47.8074 10.3333 47.5333 10.3333C47.2593 10.3333 46.9964 10.2245 46.8027 10.0307C46.6089 9.83689 46.5 9.57406 46.5 9.3V3.1ZM29.9667 3.1C29.9667 2.82594 30.0755 2.56311 30.2693 2.36932C30.4631 2.17554 30.7259 2.06667 31 2.06667C31.2741 2.06667 31.5369 2.17554 31.7307 2.36932C31.9245 2.56311 32.0333 2.82594 32.0333 3.1V9.3C32.0333 9.57406 31.9245 9.83689 31.7307 10.0307C31.5369 10.2245 31.2741 10.3333 31 10.3333C30.7259 10.3333 30.4631 10.2245 30.2693 10.0307C30.0755 9.83689 29.9667 9.57406 29.9667 9.3V3.1ZM13.4333 3.1C13.4333 2.82594 13.5422 2.56311 13.736 2.36932C13.9298 2.17554 14.1926 2.06667 14.4667 2.06667C14.7407 2.06667 15.0036 2.17554 15.1973 2.36932C15.3911 2.56311 15.5 2.82594 15.5 3.1V9.3C15.5 9.57406 15.3911 9.83689 15.1973 10.0307C15.0036 10.2245 14.7407 10.3333 14.4667 10.3333C14.1926 10.3333 13.9298 10.2245 13.736 10.0307C13.5422 9.83689 13.4333 9.57406 13.4333 9.3V3.1ZM5.16667 6.2H11.3667V9.3C11.3667 10.1222 11.6933 10.9107 12.2746 11.492C12.856 12.0734 13.6445 12.4 14.4667 12.4C15.2888 12.4 16.0773 12.0734 16.6587 11.492C17.2401 10.9107 17.5667 10.1222 17.5667 9.3V6.2H27.9V9.3C27.9 10.1222 28.2266 10.9107 28.808 11.492C29.3893 12.0734 30.1778 12.4 31 12.4C31.8222 12.4 32.6107 12.0734 33.192 11.492C33.7734 10.9107 34.1 10.1222 34.1 9.3V6.2H44.4333V9.3C44.4333 10.1222 44.7599 10.9107 45.3413 11.492C45.9227 12.0734 46.7112 12.4 47.5333 12.4C48.3555 12.4 49.144 12.0734 49.7254 11.492C50.3067 10.9107 50.6333 10.1222 50.6333 9.3V6.2H56.8333C57.6552 6.20096 58.4431 6.52787 59.0243 7.10903C59.6055 7.69018 59.9324 8.47812 59.9333 9.3V16.5333H2.06667V9.3C2.06762 8.47812 2.39454 7.69018 2.97569 7.10903C3.55685 6.52787 4.34479 6.20096 5.16667 6.2ZM56.8333 59.9333H5.16667C4.34479 59.9324 3.55685 59.6055 2.97569 59.0243C2.39454 58.4431 2.06762 57.6552 2.06667 56.8333V18.6H59.9333V56.8333C59.9324 57.6552 59.6055 58.4431 59.0243 59.0243C58.4431 59.6055 57.6552 59.9324 56.8333 59.9333Z" fill="#FFAAA1"/>
<path d="M55 26H51C50.7348 26 50.4804 26.1054 50.2929 26.2929C50.1054 26.4804 50 26.7348 50 27V31C50 31.2652 50.1054 31.5196 50.2929 31.7071C50.4804 31.8946 50.7348 32 51 32H55C55.2652 32 55.5196 31.8946 55.7071 31.7071C55.8946 31.5196 56 31.2652 56 31V27C56 26.7348 55.8946 26.4804 55.7071 26.2929C55.5196 26.1054 55.2652 26 55 26ZM54 30H52V28H54V30Z" fill="#FFAAA1"/>
<path d="M34 47H30C29.7348 47 29.4804 47.1054 29.2929 47.2929C29.1054 47.4804 29 47.7348 29 48V52C29 52.2652 29.1054 52.5196 29.2929 52.7071C29.4804 52.8946 29.7348 53 30 53H34C34.2652 53 34.5196 52.8946 34.7071 52.7071C34.8946 52.5196 35 52.2652 35 52V48C35 47.7348 34.8946 47.4804 34.7071 47.2929C34.5196 47.1054 34.2652 47 34 47ZM33 51H31V49H33V51Z" fill="#FFAAA1"/>
<path d="M24 26H20C19.7348 26 19.4804 26.1054 19.2929 26.2929C19.1054 26.4804 19 26.7348 19 27V31C19 31.2652 19.1054 31.5196 19.2929 31.7071C19.4804 31.8946 19.7348 32 20 32H24C24.2652 32 24.5196 31.8946 24.7071 31.7071C24.8946 31.5196 25 31.2652 25 31V27C25 26.7348 24.8946 26.4804 24.7071 26.2929C24.5196 26.1054 24.2652 26 24 26ZM23 30H21V28H23V30Z" fill="#FFAAA1"/>
<path d="M34 26H30C29.7348 26 29.4804 26.1054 29.2929 26.2929C29.1054 26.4804 29 26.7348 29 27V31C29 31.2652 29.1054 31.5196 29.2929 31.7071C29.4804 31.8946 29.7348 32 30 32H34C34.2652 32 34.5196 31.8946 34.7071 31.7071C34.8946 31.5196 35 31.2652 35 31V27C35 26.7348 34.8946 26.4804 34.7071 26.2929C34.5196 26.1054 34.2652 26 34 26ZM33 30H31V28H33V30Z" fill="#FFAAA1"/>
<path d="M44 26H40C39.7348 26 39.4804 26.1054 39.2929 26.2929C39.1054 26.4804 39 26.7348 39 27V31C39 31.2652 39.1054 31.5196 39.2929 31.7071C39.4804 31.8946 39.7348 32 40 32H44C44.2652 32 44.5196 31.8946 44.7071 31.7071C44.8946 31.5196 45 31.2652 45 31V27C45 26.7348 44.8946 26.4804 44.7071 26.2929C44.5196 26.1054 44.2652 26 44 26ZM43 30H41V28H43V30Z" fill="#FFAAA1"/>
<path d="M13 36H9C8.73478 36 8.48043 36.1054 8.29289 36.2929C8.10536 36.4804 8 36.7348 8 37V41C8 41.2652 8.10536 41.5196 8.29289 41.7071C8.48043 41.8946 8.73478 42 9 42H13C13.2652 42 13.5196 41.8946 13.7071 41.7071C13.8946 41.5196 14 41.2652 14 41V37C14 36.7348 13.8946 36.4804 13.7071 36.2929C13.5196 36.1054 13.2652 36 13 36ZM12 40H10V38H12V40Z" fill="#FFAAA1"/>
<path d="M24 36H20C19.7348 36 19.4804 36.1054 19.2929 36.2929C19.1054 36.4804 19 36.7348 19 37V41C19 41.2652 19.1054 41.5196 19.2929 41.7071C19.4804 41.8946 19.7348 42 20 42H24C24.2652 42 24.5196 41.8946 24.7071 41.7071C24.8946 41.5196 25 41.2652 25 41V37C25 36.7348 24.8946 36.4804 24.7071 36.2929C24.5196 36.1054 24.2652 36 24 36ZM23 40H21V38H23V40Z" fill="#FFAAA1"/>
<path d="M34 36H30C29.7348 36 29.4804 36.1054 29.2929 36.2929C29.1054 36.4804 29 36.7348 29 37V41C29 41.2652 29.1054 41.5196 29.2929 41.7071C29.4804 41.8946 29.7348 42 30 42H34C34.2652 42 34.5196 41.8946 34.7071 41.7071C34.8946 41.5196 35 41.2652 35 41V37C35 36.7348 34.8946 36.4804 34.7071 36.2929C34.5196 36.1054 34.2652 36 34 36ZM33 40H31V38H33V40Z" fill="#FFAAA1"/>
<path d="M44 36H40C39.7348 36 39.4804 36.1054 39.2929 36.2929C39.1054 36.4804 39 36.7348 39 37V41C39 41.2652 39.1054 41.5196 39.2929 41.7071C39.4804 41.8946 39.7348 42 40 42H44C44.2652 42 44.5196 41.8946 44.7071 41.7071C44.8946 41.5196 45 41.2652 45 41V37C45 36.7348 44.8946 36.4804 44.7071 36.2929C44.5196 36.1054 44.2652 36 44 36ZM43 40H41V38H43V40Z" fill="#FFAAA1"/>
<path d="M13 47H9C8.73478 47 8.48043 47.1054 8.29289 47.2929C8.10536 47.4804 8 47.7348 8 48V52C8 52.2652 8.10536 52.5196 8.29289 52.7071C8.48043 52.8946 8.73478 53 9 53H13C13.2652 53 13.5196 52.8946 13.7071 52.7071C13.8946 52.5196 14 52.2652 14 52V48C14 47.7348 13.8946 47.4804 13.7071 47.2929C13.5196 47.1054 13.2652 47 13 47ZM12 51H10V49H12V51Z" fill="#FFAAA1"/>
<path d="M24 47H20C19.7348 47 19.4804 47.1054 19.2929 47.2929C19.1054 47.4804 19 47.7348 19 48V52C19 52.2652 19.1054 52.5196 19.2929 52.7071C19.4804 52.8946 19.7348 53 20 53H24C24.2652 53 24.5196 52.8946 24.7071 52.7071C24.8946 52.5196 25 52.2652 25 52V48C25 47.7348 24.8946 47.4804 24.7071 47.2929C24.5196 47.1054 24.2652 47 24 47ZM23 51H21V49H23V51Z" fill="#FFAAA1"/>
<path d="M55 36H51C50.7348 36 50.4804 36.1054 50.2929 36.2929C50.1054 36.4804 50 36.7348 50 37V41C50 41.2652 50.1054 41.5196 50.2929 41.7071C50.4804 41.8946 50.7348 42 51 42H55C55.2652 42 55.5196 41.8946 55.7071 41.7071C55.8946 41.5196 56 41.2652 56 41V37C56 36.7348 55.8946 36.4804 55.7071 36.2929C55.5196 36.1054 55.2652 36 55 36ZM54 40H52V38H54V40Z" fill="#FFAAA1"/>
<path d="M55 47H51C50.7348 47 50.4804 47.1054 50.2929 47.2929C50.1054 47.4804 50 47.7348 50 48V52C50 52.2652 50.1054 52.5196 50.2929 52.7071C50.4804 52.8946 50.7348 53 51 53H55C55.2652 53 55.5196 52.8946 55.7071 52.7071C55.8946 52.5196 56 52.2652 56 52V48C56 47.7348 55.8946 47.4804 55.7071 47.2929C55.5196 47.1054 55.2652 47 55 47ZM54 51H52V49H54V51Z" fill="#FFAAA1"/>
<path d="M44 47H40C39.7348 47 39.4804 47.1054 39.2929 47.2929C39.1054 47.4804 39 47.7348 39 48V52C39 52.2652 39.1054 52.5196 39.2929 52.7071C39.4804 52.8946 39.7348 53 40 53H44C44.2652 53 44.5196 52.8946 44.7071 52.7071C44.8946 52.5196 45 52.2652 45 52V48C45 47.7348 44.8946 47.4804 44.7071 47.2929C44.5196 47.1054 44.2652 47 44 47ZM43 51H41V49H43V51Z" fill="#FFAAA1"/>
</svg>
