<svg width="41" height="51" viewBox="0 0 41 51" fill="none" xmlns="http://www.w3.org/2000/svg">
<g clip-path="url(#clip0)">
<path d="M9.29333 46.117L11.48 48.8298C11.48 48.8298 14.2133 46.8766 18.5867 46.8766C24.6 46.8766 26.24 51 31.7067 51C36.08 51 39.36 48.2872 41 45.5745L38.2667 40.1489C38.2667 40.1489 35.5333 42.3191 32.8 42.3191C28.9733 42.3191 25.6933 40.1489 21.32 40.1489C16.9467 40.1489 12.5733 42.3191 9.29333 46.117Z" fill="#FF664D"/>
<path d="M19.9533 0C8.91067 0 0 7.43298 0 20.8883C0 34.3436 8.91067 41.7766 19.9533 41.7766C30.996 41.7766 39.9067 34.3436 39.9067 20.8883C39.9067 7.43298 30.996 0 19.9533 0ZM19.9533 33.0957C14.0493 33.0957 9.29333 28.7553 9.29333 20.8883C9.29333 13.0213 14.0493 8.68085 19.9533 8.68085C25.8573 8.68085 30.6133 13.0213 30.6133 20.8883C30.6133 28.7553 25.8573 33.0957 19.9533 33.0957Z" fill="#FF664D"/>
</g>
<defs>
<clipPath id="clip0">
<rect width="41" height="51" fill="white"/>
</clipPath>
</defs>
</svg>
