<svg width="54" height="54" viewBox="0 0 54 54" fill="none" xmlns="http://www.w3.org/2000/svg">
<g clip-path="url(#clip0)">
<path d="M39.9727 0C43.9066 0 47.8512 0 51.7852 0C52.9348 0.326953 53.673 1.06523 54 2.21484C54 6.14883 54 10.0934 54 14.0273C53.5359 15.3984 52.6395 16.2 51.1312 16.2105C47.6297 16.2105 44.1387 16.2211 40.6371 16.2105C38.918 16.2 37.8105 15.082 37.7895 13.3629C37.7789 12.1184 37.7895 10.8633 37.7895 9.61875C37.7895 9.42891 37.7895 9.23906 37.7895 8.99648C37.2727 8.99648 36.8191 8.99648 36.3656 8.99648C35.3742 9.00703 35.1105 9.26016 35.1105 10.241C35.1105 15.3562 35.1105 20.4715 35.1105 25.5762C35.1105 25.7344 35.1316 25.882 35.1422 26.0613C36.0281 26.0613 36.8719 26.0613 37.7895 26.0613C37.7895 25.8398 37.7895 25.65 37.7895 25.4707C37.7895 24.2578 37.7895 23.0449 37.8 21.832C37.8105 20.018 38.9285 18.9 40.7215 18.8895C44.1809 18.8895 47.6402 18.8895 51.1102 18.8895C51.3 18.8895 51.5004 18.9 51.6902 18.9316C52.9453 19.132 53.6414 19.9441 54.0105 21.0938C54.0105 25.0277 54.0105 28.9723 54.0105 32.9062C53.9684 33.0012 53.9262 33.0961 53.8945 33.191C53.5148 34.3195 52.5762 35.0895 51.3738 35.1C47.7352 35.1211 44.0965 35.1316 40.4684 35.1C39.0445 35.0895 37.9688 34.0664 37.8422 32.6426C37.7789 31.9148 37.8105 31.166 37.8105 30.4277C37.8105 29.6051 37.8105 28.7824 37.8105 27.9492C36.8824 27.9492 36.0281 27.9492 35.1316 27.9492C35.1316 28.1391 35.1316 28.2762 35.1316 28.4133C35.1316 31.2082 35.1316 34.0031 35.1316 36.798C35.1316 39.1711 35.1316 41.5441 35.1316 43.9172C35.1316 44.5816 35.3953 44.9508 35.9648 44.993C36.5555 45.0352 37.1461 45.0035 37.8105 45.0035C37.8105 44.7715 37.8105 44.5816 37.8105 44.3918C37.8105 43.1262 37.8 41.8605 37.8211 40.5949C37.8527 38.9391 38.9602 37.8105 40.616 37.8C44.1492 37.7789 47.6824 37.7895 51.2156 37.8C52.5867 37.8105 53.4937 38.5066 53.9262 39.7934C53.9473 39.8566 53.9895 39.9094 54.0211 39.9727C54.0211 43.9066 54.0211 47.8512 54.0211 51.7852C53.2934 53.5676 52.6395 54 50.7094 54C47.3871 54 44.0648 54 40.7426 54C38.9285 54 37.8211 52.8926 37.8105 51.0785C37.8 49.8445 37.8105 48.6211 37.8105 47.3871C37.8105 47.2078 37.7895 47.018 37.7789 46.8176C37.2938 46.8176 36.8719 46.7965 36.45 46.8176C34.5727 46.9441 33.2754 45.6152 33.2965 43.7168C33.3598 38.6754 33.3176 33.634 33.3176 28.582C33.3176 28.3711 33.3176 28.1707 33.3176 27.9387C32.3895 27.9387 31.5246 27.9387 30.607 27.9387C30.607 28.1812 30.607 28.3922 30.607 28.5926C30.607 33.1066 30.6176 37.6207 30.607 42.1453C30.607 44.3602 29.0777 45.8895 26.8629 45.8895C19.459 45.9 12.0656 45.8895 4.66172 45.8895C1.93008 45.8895 0 43.9594 0 41.2383C0 31.7461 0 22.2539 0 12.7723C0 10.0512 1.91953 8.13164 4.64062 8.11055C5.53711 8.1 6.43359 8.11055 7.34062 8.11055C7.98398 6.5918 9.22852 6.15938 10.7895 6.31758C10.7895 6.03281 10.7895 5.82188 10.7895 5.62148C10.8105 3.82852 11.9074 2.72109 13.6793 2.71055C14.7867 2.7 15.8941 2.7 17.0016 2.72109C18.6785 2.74219 19.7859 3.8707 19.807 5.5582C19.807 5.80078 19.807 6.03281 19.807 6.24375C19.9125 6.28594 19.9441 6.30703 19.9758 6.30703C20.1129 6.31758 20.2605 6.32812 20.3977 6.31758C21.6422 6.26484 22.5598 6.77109 23.1504 7.88906C23.2137 8.01562 23.4457 8.1 23.6039 8.11055C24.3422 8.13164 25.0805 8.12109 25.8188 8.12109C28.677 8.12109 30.5754 9.98789 30.5859 12.8672C30.5965 17.0648 30.5859 21.273 30.5859 25.4707C30.5859 25.6711 30.5859 25.8715 30.5859 26.0824C31.5246 26.0824 32.3789 26.0824 33.2965 26.0824C33.2965 25.8504 33.2965 25.6395 33.2965 25.4391C33.2965 20.3555 33.2965 15.2824 33.2965 10.1988C33.2965 8.2793 34.3723 7.22461 36.3129 7.21406C36.777 7.21406 37.2516 7.21406 37.7684 7.21406C37.7684 6.96094 37.7684 6.77109 37.7684 6.58125C37.7684 5.34727 37.7684 4.12383 37.7684 2.88984C37.7684 1.94062 38.0848 1.12852 38.8758 0.558984C39.2238 0.305859 39.6141 0.179297 39.9727 0ZM5.43164 9.90352C5.43164 20.1445 5.43164 30.3012 5.43164 40.4578C12.034 40.4578 18.6047 40.4578 25.1648 40.4578C25.1648 30.259 25.1648 20.0918 25.1648 9.90352C24.5848 9.90352 24.0363 9.88242 23.4984 9.91406C23.3613 9.92461 23.1926 10.0512 23.1187 10.1777C22.5492 11.2219 21.6633 11.6965 20.4926 11.6965C17.0332 11.6965 13.5738 11.6965 10.1039 11.6965C8.92266 11.6965 8.04727 11.2113 7.47773 10.1672C7.41445 10.0406 7.23516 9.91406 7.09805 9.90352C6.56016 9.89297 6.01172 9.90352 5.43164 9.90352ZM3.59648 10.1145C2.43633 10.5047 1.80352 11.4961 1.80352 12.8145C1.80352 22.2328 1.80352 31.6512 1.80352 41.0695C1.80352 43.0207 2.8793 44.0859 4.85156 44.0859C12.1078 44.0859 19.3641 44.0859 26.6309 44.0859C28.1707 44.0859 28.8141 43.4426 28.8141 41.9133C28.8141 33.7078 28.8141 25.5023 28.8141 17.2863C28.8141 15.7043 28.793 14.1223 28.8141 12.5402C28.8246 11.6438 28.0336 10.2727 27.0105 10.1355C27.0105 10.3465 27.0105 10.5574 27.0105 10.7578C27.0105 20.577 27.0105 30.4066 27.0105 40.2258C27.0105 41.5758 26.3145 42.2719 24.9645 42.2719C18.5309 42.2719 12.0973 42.2719 5.66367 42.2719C4.29258 42.2719 3.59648 41.5652 3.59648 40.1836C3.59648 31.4191 3.59648 22.6441 3.59648 13.8797C3.59648 12.6563 3.59648 11.4117 3.59648 10.1145ZM45.8789 52.1965C45.8789 52.207 45.8789 52.207 45.8789 52.1965C47.598 52.1965 49.3277 52.1965 51.0469 52.1965C51.8801 52.1965 52.207 51.8801 52.207 51.0574C52.207 47.6297 52.207 44.202 52.207 40.7742C52.207 39.8777 51.9012 39.5824 50.9941 39.5824C47.598 39.5824 44.2125 39.5824 40.8164 39.5824C39.8988 39.5824 39.6035 39.8672 39.6035 40.7742C39.6035 44.1809 39.6035 47.5875 39.6035 51.0047C39.6035 51.9012 39.9094 52.1859 40.827 52.1859C42.5039 52.207 44.1914 52.1965 45.8789 52.1965ZM52.207 27.0527C52.207 25.3336 52.207 23.6039 52.207 21.8848C52.207 20.9883 51.9012 20.693 50.9941 20.693C47.598 20.693 44.2125 20.693 40.8164 20.693C39.9094 20.693 39.6035 20.9883 39.6035 21.8848C39.6035 25.2914 39.6035 28.698 39.6035 32.1152C39.6035 33.0117 39.9094 33.307 40.8164 33.307C44.223 33.307 47.6297 33.307 51.0469 33.307C51.9012 33.307 52.207 32.9906 52.207 32.1152C52.207 30.4277 52.207 28.7402 52.207 27.0527ZM39.6035 8.12109C39.6035 9.80859 39.6035 11.4961 39.6035 13.1836C39.6035 14.1012 39.8883 14.3965 40.7953 14.3965C44.223 14.407 47.6508 14.407 51.0785 14.3965C51.9117 14.3965 52.2176 14.0695 52.2176 13.2363C52.2176 9.82969 52.2176 6.42305 52.2176 3.00586C52.2176 2.07773 51.9223 1.79297 50.973 1.79297C47.598 1.79297 44.223 1.79297 40.848 1.79297C39.8777 1.79297 39.6035 2.06719 39.6035 3.05859C39.593 4.74609 39.6035 6.43359 39.6035 8.12109ZM12.6141 6.30703C13.5316 6.30703 14.3965 6.29648 15.2508 6.30703C15.7992 6.31758 16.1789 6.67617 16.1895 7.17188C16.2 7.66758 15.8414 8.04727 15.3035 8.1C15.1664 8.11055 15.0188 8.11055 14.8816 8.11055C13.268 8.11055 11.6543 8.11055 10.0406 8.11055C9.41836 8.11055 9.01758 8.46914 9.00703 8.98594C8.99648 9.51328 9.40781 9.90352 10.009 9.90352C13.5422 9.91406 17.0648 9.91406 20.598 9.90352C21.1992 9.90352 21.6105 9.50273 21.6 8.98594C21.5895 8.47969 21.1992 8.12109 20.6086 8.11055C20.1551 8.1 19.691 8.11055 19.2375 8.11055C18.2672 8.11055 18.0035 7.82578 18.0035 6.84492C18.0035 6.37031 18.0246 5.8957 17.993 5.42109C17.9613 4.86211 17.6344 4.52461 17.0965 4.51406C15.8836 4.49297 14.6707 4.50352 13.4578 4.51406C12.9727 4.52461 12.6668 4.80938 12.6141 5.29453C12.593 5.60039 12.6141 5.9168 12.6141 6.30703Z" fill="#FFAAA1"/>
<path d="M9.94572 14.4071C11.4223 14.4176 12.6035 15.641 12.5824 17.1176C12.5613 18.6047 11.3696 19.7965 9.89299 19.7965C8.40588 19.7965 7.17189 18.552 7.18244 17.0754C7.22463 15.5778 8.43752 14.3965 9.94572 14.4071ZM10.7895 17.086C10.7895 16.5797 10.3992 16.2 9.88244 16.2106C9.40783 16.2211 9.0176 16.6113 9.00705 17.0754C8.9965 17.5606 9.41838 17.993 9.90353 17.9824C10.3887 18.0035 10.7895 17.5922 10.7895 17.086Z" fill="#FFAAA1"/>
<path d="M9.90352 37.7789C8.41641 37.7789 7.22461 36.6082 7.20352 35.1211C7.18242 33.6446 8.40586 32.4 9.90352 32.3895C11.3695 32.3789 12.593 33.5918 12.593 35.0578C12.6035 36.5871 11.4117 37.7789 9.90352 37.7789ZM9.90352 34.2035C9.41836 34.2035 8.99648 34.6254 9.00703 35.1106C9.01758 35.5852 9.39726 35.9754 9.87187 35.986C10.3781 35.9965 10.7789 35.6274 10.7895 35.1211C10.7895 34.6149 10.3887 34.2035 9.90352 34.2035Z" fill="#FFAAA1"/>
<path d="M12.593 26.1563C12.5508 27.675 11.3379 28.8352 9.81916 28.793C8.35315 28.7614 7.16135 27.4957 7.20354 26.0403C7.24573 24.5215 8.5008 23.3613 10.0406 23.4141C11.475 23.4563 12.6246 24.7008 12.593 26.1563ZM9.00706 26.0192C8.96487 26.5043 9.34456 26.9578 9.84026 26.9895C10.3149 27.0211 10.7367 26.6731 10.7789 26.1985C10.8317 25.6817 10.4942 25.2598 9.98791 25.2071C9.50276 25.1649 9.05979 25.534 9.00706 26.0192Z" fill="#FFAAA1"/>
<path d="M18.457 23.4036C19.459 23.4036 20.4609 23.4036 21.4523 23.4036C22.0957 23.4036 22.4648 23.7305 22.4754 24.279C22.4859 24.8485 22.1062 25.1965 21.4418 25.2071C19.4379 25.2176 17.4445 25.2176 15.4406 25.2071C14.7867 25.2071 14.3965 24.8379 14.407 24.279C14.4281 23.7411 14.7972 23.4247 15.4406 23.4141C16.4531 23.4036 17.4551 23.4036 18.457 23.4036Z" fill="#FFAAA1"/>
<path d="M18.457 34.193C17.4551 34.193 16.4531 34.2036 15.4617 34.193C14.7973 34.193 14.407 33.845 14.4176 33.2754C14.4281 32.7375 14.8078 32.4 15.4512 32.3895C17.4551 32.379 19.4484 32.379 21.4523 32.3895C22.1168 32.3895 22.4965 32.7481 22.4859 33.3176C22.4754 33.8661 22.1168 34.1825 21.4629 34.193C20.4609 34.193 19.459 34.193 18.457 34.193Z" fill="#FFAAA1"/>
<path d="M18.5098 14.3965C19.4696 14.3965 20.4399 14.386 21.3996 14.3965C22.0957 14.4071 22.4649 14.7129 22.4754 15.2719C22.486 15.852 22.0957 16.1895 21.3785 16.2C19.4168 16.2106 17.4551 16.2106 15.4828 16.2C14.7973 16.2 14.4176 15.8731 14.3965 15.3141C14.386 14.7446 14.7762 14.4071 15.4934 14.3965C16.5164 14.3965 17.5078 14.4071 18.5098 14.3965C18.5098 14.3965 18.5098 14.4071 18.5098 14.3965Z" fill="#FFAAA1"/>
<path d="M17.5711 27C18.2672 27 18.9738 26.9895 19.6699 27C20.3027 27.0106 20.6824 27.3481 20.6824 27.886C20.6824 28.4344 20.3133 28.7825 19.6805 28.793C18.2567 28.8036 16.8434 28.8036 15.4195 28.793C14.7973 28.793 14.407 28.445 14.407 27.9071C14.407 27.3692 14.7867 27.0106 15.409 27C16.1367 26.9895 16.8539 27 17.5711 27Z" fill="#FFAAA1"/>
<path d="M17.55 18.014C18.2672 18.014 18.9844 18.0034 19.7016 18.014C20.3133 18.0245 20.6719 18.3515 20.6824 18.8788C20.693 19.4167 20.3238 19.7964 19.7016 19.8069C18.2672 19.8175 16.8328 19.828 15.3879 19.8069C14.7656 19.7964 14.3965 19.4167 14.407 18.8683C14.4176 18.3409 14.7762 18.014 15.3879 18.0034C16.1156 18.0034 16.8328 18.014 17.55 18.014Z" fill="#FFAAA1"/>
<path d="M17.5605 37.8C16.8434 37.8 16.1156 37.8105 15.3984 37.8C14.7867 37.7894 14.4281 37.4519 14.4176 36.9246C14.407 36.3761 14.7762 36.007 15.409 35.9964C16.8328 35.9859 18.2566 35.9859 19.6805 35.9964C20.3238 36.007 20.693 36.355 20.693 36.9035C20.693 37.4519 20.3344 37.7789 19.6805 37.7894C18.9633 37.7999 18.2672 37.7894 17.5605 37.8C17.5605 37.7894 17.5605 37.7894 17.5605 37.8Z" fill="#FFAAA1"/>
<path d="M44.8031 28.3606C45.8156 26.8523 46.7226 25.4918 47.6297 24.1313C47.7246 23.9836 47.8195 23.8359 47.9355 23.7094C48.2625 23.3508 48.7582 23.2981 49.1273 23.5723C49.4754 23.8254 49.6019 24.3 49.391 24.7008C49.2223 25.0277 49.0008 25.3231 48.8004 25.6289C47.8617 27.0316 46.9336 28.4344 45.9949 29.8371C45.3516 30.8074 44.8875 30.8496 44.0859 30.048C43.6113 29.5734 43.1367 29.1094 42.6727 28.6242C42.2297 28.1602 42.198 27.6645 42.5883 27.2742C42.968 26.8945 43.4848 26.9051 43.9383 27.3586C44.2336 27.6539 44.4867 27.9914 44.8031 28.3606Z" fill="#FFAAA1"/>
<path d="M44.8031 9.46056C45.8156 7.95235 46.7227 6.59181 47.6297 5.24181C47.7141 5.11525 47.7984 4.97814 47.9039 4.85157C48.2203 4.48243 48.7055 4.39806 49.0852 4.64064C49.4859 4.89376 49.6231 5.40001 49.3699 5.84298C49.1273 6.26485 48.8426 6.66564 48.5684 7.07696C47.6824 8.40587 46.7965 9.73478 45.9106 11.0637C45.3727 11.8758 44.8559 11.918 44.1703 11.2324C43.6746 10.7367 43.1684 10.241 42.6832 9.74532C42.2297 9.28126 42.1981 8.78556 42.5883 8.39532C42.968 8.01564 43.4953 8.02618 43.9383 8.4586C44.2231 8.75392 44.4762 9.09142 44.8031 9.46056Z" fill="#FFAAA1"/>
</g>
<defs>
<clipPath id="clip0">
<rect width="54" height="54" fill="white"/>
</clipPath>
</defs>
</svg>
