<svg width="326" height="435" viewBox="0 0 326 435" fill="none" xmlns="http://www.w3.org/2000/svg">
<path d="M73.7564 393.352L91.1109 416.49C91.1109 416.49 112.804 399.831 147.513 399.831C195.238 399.831 208.253 435.001 251.639 435.001C286.348 435.001 312.38 411.863 325.396 388.724L303.703 342.448C303.703 342.448 282.01 360.958 260.317 360.958C229.946 360.958 203.915 342.448 169.206 342.448C134.497 342.448 99.7881 360.958 73.7564 393.352Z" fill="#FE857D"/>
<path d="M158.359 0C70.7194 0 0 63.3989 0 178.165C0 292.931 70.7194 356.33 158.359 356.33C245.999 356.33 316.719 292.931 316.719 178.165C316.719 63.3989 245.999 0 158.359 0ZM158.359 282.287C111.502 282.287 73.7564 245.266 73.7564 178.165C73.7564 111.064 111.502 74.0426 158.359 74.0426C205.216 74.0426 242.962 111.064 242.962 178.165C242.962 245.266 205.216 282.287 158.359 282.287Z" fill="#FE857D"/>
</svg>
