<svg width="59" height="61" viewBox="0 0 59 61" fill="none" xmlns="http://www.w3.org/2000/svg">
<path d="M44.7344 47.7656H46.7656C47.035 47.7656 47.2933 47.8726 47.4838 48.0631C47.6743 48.2536 47.7813 48.5119 47.7813 48.7812H49.8125C49.8125 47.9732 49.4915 47.1982 48.9201 46.6268C48.3487 46.0554 47.5737 45.7344 46.7656 45.7344V44.7188H44.7344V45.7344C43.9263 45.7344 43.1513 46.0554 42.5799 46.6268C42.0085 47.1982 41.6875 47.9732 41.6875 48.7812C41.6875 49.5893 42.0085 50.3643 42.5799 50.9357C43.1513 51.5071 43.9263 51.8281 44.7344 51.8281H46.7656C47.035 51.8281 47.2933 51.9351 47.4838 52.1256C47.6743 52.3161 47.7813 52.5744 47.7813 52.8438C47.7813 53.1131 47.6743 53.3714 47.4838 53.5619C47.2933 53.7524 47.035 53.8594 46.7656 53.8594H44.7344C44.465 53.8594 44.2067 53.7524 44.0162 53.5619C43.8258 53.3714 43.7188 53.1131 43.7188 52.8438H41.6875C41.6875 53.6518 42.0085 54.4268 42.5799 54.9982C43.1513 55.5696 43.9263 55.8906 44.7344 55.8906V56.9062H46.7656V55.8906C47.5737 55.8906 48.3487 55.5696 48.9201 54.9982C49.4915 54.4268 49.8125 53.6518 49.8125 52.8438C49.8125 52.0357 49.4915 51.2607 48.9201 50.6893C48.3487 50.1179 47.5737 49.7969 46.7656 49.7969H44.7344C44.465 49.7969 44.2067 49.6899 44.0162 49.4994C43.8258 49.3089 43.7188 49.0506 43.7188 48.7812C43.7188 48.5119 43.8258 48.2536 44.0162 48.0631C44.2067 47.8726 44.465 47.7656 44.7344 47.7656Z" fill="#FFAAA1"/>
<path d="M46.7656 40.708V1.04688C46.7656 0.777515 46.6586 0.519186 46.4682 0.32872C46.2777 0.138253 46.0194 0.03125 45.75 0.03125H5.125C3.77869 0.0328627 2.48799 0.568396 1.53601 1.52038C0.584023 2.47236 0.0484902 3.76307 0.0468775 5.10938V51.8281C0.0462095 52.4952 0.177103 53.1558 0.432066 53.7722C0.687029 54.3886 1.06106 54.9487 1.53274 55.4204C2.00442 55.8921 2.56449 56.2661 3.1809 56.5211C3.79731 56.776 4.45795 56.9069 5.125 56.9062H37.6443C38.6579 58.2543 39.9916 59.3286 41.5247 60.0318C43.0577 60.735 44.7419 61.0451 46.4249 60.9339C48.1079 60.8228 49.7366 60.294 51.1639 59.3953C52.5912 58.4966 53.772 57.2563 54.5996 55.7867C55.4272 54.317 55.8755 52.6642 55.9039 50.9778C55.9323 49.2914 55.54 47.6245 54.7623 46.1278C53.9847 44.6311 52.8464 43.3517 51.4502 42.4055C50.054 41.4592 48.4439 40.8758 46.7656 40.708ZM44.7344 40.708C42.9419 40.8913 41.2302 41.5472 39.7743 42.6088C38.3184 43.6703 37.1705 45.0994 36.4479 46.75H12.2344V2.0625H44.7344V40.708ZM8.17188 46.75V2.0625H10.2031V46.75H8.17188ZM5.125 2.0625H6.14063V46.75H5.125C4.02257 46.7537 2.95196 47.1199 2.07813 47.792V5.10938C2.07813 4.30129 2.39914 3.52631 2.97054 2.95491C3.54194 2.38351 4.31692 2.0625 5.125 2.0625ZM5.125 54.875C4.31692 54.875 3.54194 54.554 2.97054 53.9826C2.39914 53.4112 2.07813 52.6362 2.07813 51.8281C2.07813 51.02 2.39914 50.2451 2.97054 49.6737C3.54194 49.1023 4.31692 48.7812 5.125 48.7812H35.7969C35.661 49.4498 35.593 50.1303 35.5938 50.8125H7.15625V52.8438H35.7969C35.9402 53.542 36.1577 54.223 36.4459 54.875H5.125ZM45.75 58.9375C44.143 58.9375 42.5721 58.461 41.236 57.5682C39.8998 56.6754 38.8584 55.4065 38.2435 53.9218C37.6285 52.4372 37.4676 50.8035 37.7811 49.2274C38.0946 47.6513 38.8685 46.2036 40.0048 45.0673C41.1411 43.931 42.5888 43.1571 44.1649 42.8436C45.741 42.5301 47.3747 42.691 48.8593 43.306C50.344 43.9209 51.6129 44.9623 52.5057 46.2985C53.3985 47.6346 53.875 49.2055 53.875 50.8125C53.8726 52.9666 53.0158 55.0319 51.4926 56.5551C49.9694 58.0783 47.9041 58.9351 45.75 58.9375Z" fill="#FFAAA1"/>
<path d="M53.875 0.03125C52.5287 0.0328627 51.238 0.568396 50.286 1.52038C49.334 2.47236 48.7985 3.76307 48.7969 5.10938V30.5C48.7972 30.7006 48.8565 30.8966 48.9675 31.0637L50.8281 33.8516V36.5938C50.8281 37.4018 51.1491 38.1768 51.7205 38.7482C52.2919 39.3196 53.0669 39.6406 53.875 39.6406C54.6831 39.6406 55.4581 39.3196 56.0295 38.7482C56.6009 38.1768 56.9219 37.4018 56.9219 36.5938V33.8516L58.7825 31.0606C58.8929 30.8944 58.9522 30.6995 58.9531 30.5V5.10938C58.9515 3.76307 58.416 2.47236 57.464 1.52038C56.512 0.568396 55.2213 0.0328627 53.875 0.03125ZM53.875 2.0625C54.6831 2.0625 55.4581 2.38351 56.0295 2.95491C56.6009 3.52631 56.9219 4.30129 56.9219 5.10938V6.125H50.8281V5.10938C50.8281 4.30129 51.1491 3.52631 51.7205 2.95491C52.2919 2.38351 53.0669 2.0625 53.875 2.0625ZM52.3871 32.5312L51.0313 30.5H56.7188L55.3649 32.5312H52.3871ZM54.8906 28.4688V13.2344H52.8594V28.4688H50.8281V11.2031H56.9219V28.4688H54.8906ZM50.8281 9.17188V8.15625H56.9219V9.17188H50.8281ZM53.875 37.6094C53.6056 37.6094 53.3473 37.5024 53.1569 37.3119C52.9664 37.1214 52.8594 36.8631 52.8594 36.5938V34.5625H54.8906V36.5938C54.8906 36.8631 54.7836 37.1214 54.5932 37.3119C54.4027 37.5024 54.1444 37.6094 53.875 37.6094Z" fill="#FFAAA1"/>
<path d="M34.5781 6.125H21.375V8.15625H34.5781V6.125Z" fill="#FFAAA1"/>
<path d="M36.6094 10.1875H19.3438V12.2188H36.6094V10.1875Z" fill="#FFAAA1"/>
<path d="M24.8423 25.4219H28.4844C28.7537 25.4218 29.012 25.3148 29.2024 25.1243L35.5938 18.733V20.3437H37.625V16.2812C37.625 16.0119 37.518 15.7536 37.3275 15.5631C37.1371 15.3726 36.8787 15.2656 36.6094 15.2656H32.5469V17.2969H34.1577L28.0639 23.3906H24.4219C24.1525 23.3907 23.8942 23.4977 23.7038 23.6882L19.1335 28.2585L20.5696 29.6946L24.8423 25.4219Z" fill="#FFAAA1"/>
<path d="M15.2813 39.6406H41.6875V37.6094H39.6563V24.4062C39.6563 24.1369 39.5493 23.8786 39.3588 23.6881C39.1683 23.4976 38.91 23.3906 38.6406 23.3906H34.5781C34.3088 23.3906 34.0504 23.4976 33.86 23.6881C33.6695 23.8786 33.5625 24.1369 33.5625 24.4062V37.6094H31.5313V28.4688C31.5313 28.1994 31.4243 27.9411 31.2338 27.7506C31.0433 27.5601 30.785 27.4531 30.5156 27.4531H26.4531C26.1838 27.4531 25.9254 27.5601 25.735 27.7506C25.5445 27.9411 25.4375 28.1994 25.4375 28.4688V37.6094H23.4063V32.5312C23.4063 32.2619 23.2993 32.0036 23.1088 31.8131C22.9183 31.6226 22.66 31.5156 22.3906 31.5156H18.3281C18.0588 31.5156 17.8004 31.6226 17.61 31.8131C17.4195 32.0036 17.3125 32.2619 17.3125 32.5312V37.6094H15.2813V39.6406ZM35.5938 25.4219H37.625V37.6094H35.5938V25.4219ZM27.4688 29.4844H29.5V37.6094H27.4688V29.4844ZM19.3438 33.5469H21.375V37.6094H19.3438V33.5469Z" fill="#FFAAA1"/>
</svg>
