<svg width="62" height="62" viewBox="0 0 62 62" fill="none" xmlns="http://www.w3.org/2000/svg">
<path d="M56.8333 4.13333H50.6333V3.1C50.6333 2.27783 50.3067 1.48933 49.7254 0.907969C49.144 0.326606 48.3555 0 47.5333 0C46.7112 0 45.9227 0.326606 45.3413 0.907969C44.7599 1.48933 44.4333 2.27783 44.4333 3.1V4.13333H34.1V3.1C34.1 2.27783 33.7734 1.48933 33.192 0.907969C32.6107 0.326606 31.8222 0 31 0C30.1778 0 29.3893 0.326606 28.808 0.907969C28.2266 1.48933 27.9 2.27783 27.9 3.1V4.13333H17.5667V3.1C17.5667 2.27783 17.2401 1.48933 16.6587 0.907969C16.0773 0.326606 15.2888 0 14.4667 0C13.6445 0 12.856 0.326606 12.2746 0.907969C11.6933 1.48933 11.3667 2.27783 11.3667 3.1V4.13333H5.16667C3.79685 4.13487 2.48359 4.67971 1.51498 5.64831C0.546376 6.61692 0.00153844 7.93019 0 9.3V56.8333C0.00153844 58.2031 0.546376 59.5164 1.51498 60.485C2.48359 61.4536 3.79685 61.9985 5.16667 62H56.8333C58.2031 61.9985 59.5164 61.4536 60.485 60.485C61.4536 59.5164 61.9985 58.2031 62 56.8333V9.3C61.9985 7.93019 61.4536 6.61692 60.485 5.64831C59.5164 4.67971 58.2031 4.13487 56.8333 4.13333ZM46.5 3.1C46.5 2.82594 46.6089 2.56311 46.8027 2.36932C46.9964 2.17554 47.2593 2.06667 47.5333 2.06667C47.8074 2.06667 48.0702 2.17554 48.264 2.36932C48.4578 2.56311 48.5667 2.82594 48.5667 3.1V9.3C48.5667 9.57406 48.4578 9.83689 48.264 10.0307C48.0702 10.2245 47.8074 10.3333 47.5333 10.3333C47.2593 10.3333 46.9964 10.2245 46.8027 10.0307C46.6089 9.83689 46.5 9.57406 46.5 9.3V3.1ZM29.9667 3.1C29.9667 2.82594 30.0755 2.56311 30.2693 2.36932C30.4631 2.17554 30.7259 2.06667 31 2.06667C31.2741 2.06667 31.5369 2.17554 31.7307 2.36932C31.9245 2.56311 32.0333 2.82594 32.0333 3.1V9.3C32.0333 9.57406 31.9245 9.83689 31.7307 10.0307C31.5369 10.2245 31.2741 10.3333 31 10.3333C30.7259 10.3333 30.4631 10.2245 30.2693 10.0307C30.0755 9.83689 29.9667 9.57406 29.9667 9.3V3.1ZM13.4333 3.1C13.4333 2.82594 13.5422 2.56311 13.736 2.36932C13.9298 2.17554 14.1926 2.06667 14.4667 2.06667C14.7407 2.06667 15.0036 2.17554 15.1973 2.36932C15.3911 2.56311 15.5 2.82594 15.5 3.1V9.3C15.5 9.57406 15.3911 9.83689 15.1973 10.0307C15.0036 10.2245 14.7407 10.3333 14.4667 10.3333C14.1926 10.3333 13.9298 10.2245 13.736 10.0307C13.5422 9.83689 13.4333 9.57406 13.4333 9.3V3.1ZM5.16667 6.2H11.3667V9.3C11.3667 10.1222 11.6933 10.9107 12.2746 11.492C12.856 12.0734 13.6445 12.4 14.4667 12.4C15.2888 12.4 16.0773 12.0734 16.6587 11.492C17.2401 10.9107 17.5667 10.1222 17.5667 9.3V6.2H27.9V9.3C27.9 10.1222 28.2266 10.9107 28.808 11.492C29.3893 12.0734 30.1778 12.4 31 12.4C31.8222 12.4 32.6107 12.0734 33.192 11.492C33.7734 10.9107 34.1 10.1222 34.1 9.3V6.2H44.4333V9.3C44.4333 10.1222 44.7599 10.9107 45.3413 11.492C45.9227 12.0734 46.7112 12.4 47.5333 12.4C48.3555 12.4 49.144 12.0734 49.7254 11.492C50.3067 10.9107 50.6333 10.1222 50.6333 9.3V6.2H56.8333C57.6552 6.20096 58.4431 6.52787 59.0243 7.10903C59.6055 7.69018 59.9324 8.47812 59.9333 9.3V16.5333H2.06667V9.3C2.06762 8.47812 2.39454 7.69018 2.97569 7.10903C3.55685 6.52787 4.34479 6.20096 5.16667 6.2ZM56.8333 59.9333H5.16667C4.34479 59.9324 3.55685 59.6055 2.97569 59.0243C2.39454 58.4431 2.06762 57.6552 2.06667 56.8333V18.6H59.9333V56.8333C59.9324 57.6552 59.6055 58.4431 59.0243 59.0243C58.4431 59.6055 57.6552 59.9324 56.8333 59.9333Z" fill="#FFAAA1"/>
<path d="M54.7666 25.8334H50.6333C50.3593 25.8334 50.0964 25.9422 49.9026 26.136C49.7088 26.3298 49.6 26.5927 49.6 26.8667V31C49.6 31.2741 49.7088 31.5369 49.9026 31.7307C50.0964 31.9245 50.3593 32.0334 50.6333 32.0334H54.7666C55.0407 32.0334 55.3035 31.9245 55.4973 31.7307C55.6911 31.5369 55.8 31.2741 55.8 31V26.8667C55.8 26.5927 55.6911 26.3298 55.4973 26.136C55.3035 25.9422 55.0407 25.8334 54.7666 25.8334ZM53.7333 29.9667H51.6666V27.9H53.7333V29.9667Z" fill="#FFAAA1"/>
<path d="M34.1 46.5H29.9667C29.6926 46.5 29.4298 46.6089 29.236 46.8027C29.0422 46.9964 28.9333 47.2593 28.9333 47.5333V51.6667C28.9333 51.9407 29.0422 52.2036 29.236 52.3973C29.4298 52.5911 29.6926 52.7 29.9667 52.7H34.1C34.3741 52.7 34.6369 52.5911 34.8307 52.3973C35.0245 52.2036 35.1333 51.9407 35.1333 51.6667V47.5333C35.1333 47.2593 35.0245 46.9964 34.8307 46.8027C34.6369 46.6089 34.3741 46.5 34.1 46.5ZM33.0667 50.6333H31V48.5667H33.0667V50.6333Z" fill="#FFAAA1"/>
<path d="M23.7666 25.8334H19.6333C19.3593 25.8334 19.0964 25.9422 18.9026 26.136C18.7088 26.3298 18.6 26.5927 18.6 26.8667V31C18.6 31.2741 18.7088 31.5369 18.9026 31.7307C19.0964 31.9245 19.3593 32.0334 19.6333 32.0334H23.7666C24.0407 32.0334 24.3035 31.9245 24.4973 31.7307C24.6911 31.5369 24.8 31.2741 24.8 31V26.8667C24.8 26.5927 24.6911 26.3298 24.4973 26.136C24.3035 25.9422 24.0407 25.8334 23.7666 25.8334ZM22.7333 29.9667H20.6666V27.9H22.7333V29.9667Z" fill="#FFAAA1"/>
<path d="M13.4333 36.1666H9.3C9.02594 36.1666 8.76311 36.2755 8.56932 36.4693C8.37553 36.6631 8.26666 36.9259 8.26666 37.2V41.3333C8.26666 41.6073 8.37553 41.8702 8.56932 42.064C8.76311 42.2578 9.02594 42.3666 9.3 42.3666H13.4333C13.7074 42.3666 13.9702 42.2578 14.164 42.064C14.3578 41.8702 14.4667 41.6073 14.4667 41.3333V37.2C14.4667 36.9259 14.3578 36.6631 14.164 36.4693C13.9702 36.2755 13.7074 36.1666 13.4333 36.1666ZM12.4 40.3H10.3333V38.2333H12.4V40.3Z" fill="#FFAAA1"/>
<path d="M23.7666 36.1666H19.6333C19.3593 36.1666 19.0964 36.2755 18.9026 36.4693C18.7088 36.6631 18.6 36.9259 18.6 37.2V41.3333C18.6 41.6073 18.7088 41.8702 18.9026 42.064C19.0964 42.2578 19.3593 42.3666 19.6333 42.3666H23.7666C24.0407 42.3666 24.3035 42.2578 24.4973 42.064C24.6911 41.8702 24.8 41.6073 24.8 41.3333V37.2C24.8 36.9259 24.6911 36.6631 24.4973 36.4693C24.3035 36.2755 24.0407 36.1666 23.7666 36.1666ZM22.7333 40.3H20.6666V38.2333H22.7333V40.3Z" fill="#FFAAA1"/>
<path d="M13.4333 46.5H9.3C9.02594 46.5 8.76311 46.6089 8.56932 46.8027C8.37553 46.9964 8.26666 47.2593 8.26666 47.5333V51.6667C8.26666 51.9407 8.37553 52.2036 8.56932 52.3973C8.76311 52.5911 9.02594 52.7 9.3 52.7H13.4333C13.7074 52.7 13.9702 52.5911 14.164 52.3973C14.3578 52.2036 14.4667 51.9407 14.4667 51.6667V47.5333C14.4667 47.2593 14.3578 46.9964 14.164 46.8027C13.9702 46.6089 13.7074 46.5 13.4333 46.5ZM12.4 50.6333H10.3333V48.5667H12.4V50.6333Z" fill="#FFAAA1"/>
<path d="M23.7666 46.5H19.6333C19.3593 46.5 19.0964 46.6089 18.9026 46.8027C18.7088 46.9964 18.6 47.2593 18.6 47.5333V51.6667C18.6 51.9407 18.7088 52.2036 18.9026 52.3973C19.0964 52.5911 19.3593 52.7 19.6333 52.7H23.7666C24.0407 52.7 24.3035 52.5911 24.4973 52.3973C24.6911 52.2036 24.8 51.9407 24.8 51.6667V47.5333C24.8 47.2593 24.6911 46.9964 24.4973 46.8027C24.3035 46.6089 24.0407 46.5 23.7666 46.5ZM22.7333 50.6333H20.6666V48.5667H22.7333V50.6333Z" fill="#FFAAA1"/>
<path d="M45.6227 30.0937L40.456 29.3042L38.1354 24.3609C38.0521 24.1832 37.9198 24.033 37.7541 23.9277C37.5885 23.8225 37.3963 23.7666 37.2 23.7666C37.0038 23.7666 36.8115 23.8225 36.6459 23.9277C36.4802 24.033 36.348 24.1832 36.2646 24.3609L33.945 29.3042L28.7783 30.0937C28.5904 30.1223 28.414 30.2022 28.2686 30.3246C28.1231 30.4469 28.0143 30.6071 27.9539 30.7873C27.8936 30.9676 27.8842 31.161 27.9267 31.3463C27.9692 31.5315 28.0619 31.7015 28.1948 31.8374L31.964 35.7004L31.0727 41.1675C31.0419 41.3587 31.0654 41.5546 31.1405 41.733C31.2156 41.9115 31.3393 42.0652 31.4976 42.1767C31.6558 42.2883 31.8422 42.3531 32.0355 42.3639C32.2288 42.3746 32.4212 42.3309 32.5908 42.2376L37.2 39.6899L41.8092 42.2376C41.9789 42.3314 42.1716 42.3755 42.3653 42.365C42.5589 42.3545 42.7457 42.2896 42.9042 42.178C43.0628 42.0663 43.1867 41.9122 43.2618 41.7334C43.3369 41.5546 43.3602 41.3583 43.329 41.1669L42.4377 35.6998L46.2069 31.8368C46.3398 31.7008 46.4326 31.5309 46.475 31.3456C46.5175 31.1603 46.5081 30.9669 46.4478 30.7867C46.3874 30.6064 46.2786 30.4463 46.1331 30.3239C45.9877 30.2015 45.8113 30.1217 45.6234 30.0931L45.6227 30.0937ZM40.5937 34.6296C40.4808 34.7454 40.3966 34.8861 40.3479 35.0403C40.2992 35.1945 40.2874 35.358 40.3134 35.5177L40.9464 39.3993L37.6996 37.6038C37.5466 37.5193 37.3746 37.4749 37.1998 37.4749C37.0249 37.4749 36.8529 37.5193 36.6999 37.6038L33.4531 39.3993L34.0861 35.5177C34.1121 35.358 34.1003 35.1945 34.0516 35.0403C34.0029 34.8861 33.9187 34.7454 33.8058 34.6296L31.0775 31.8329L34.8018 31.2646C34.9695 31.239 35.1283 31.1724 35.2642 31.0708C35.4001 30.9693 35.5089 30.8358 35.581 30.6822L37.2 27.232L38.8191 30.6815C38.8912 30.8351 39 30.9686 39.1359 31.0702C39.2718 31.1718 39.4307 31.2383 39.5984 31.2639L43.3226 31.8323L40.5937 34.6296Z" fill="#FFAAA1"/>
<path d="M54.7666 36.1666H50.6333C50.3593 36.1666 50.0964 36.2755 49.9026 36.4693C49.7088 36.6631 49.6 36.9259 49.6 37.2V41.3333C49.6 41.6073 49.7088 41.8702 49.9026 42.064C50.0964 42.2578 50.3593 42.3666 50.6333 42.3666H54.7666C55.0407 42.3666 55.3035 42.2578 55.4973 42.064C55.6911 41.8702 55.8 41.6073 55.8 41.3333V37.2C55.8 36.9259 55.6911 36.6631 55.4973 36.4693C55.3035 36.2755 55.0407 36.1666 54.7666 36.1666ZM53.7333 40.3H51.6666V38.2333H53.7333V40.3Z" fill="#FFAAA1"/>
<path d="M54.7666 46.5H50.6333C50.3593 46.5 50.0964 46.6089 49.9026 46.8027C49.7088 46.9964 49.6 47.2593 49.6 47.5333V51.6667C49.6 51.9407 49.7088 52.2036 49.9026 52.3973C50.0964 52.5911 50.3593 52.7 50.6333 52.7H54.7666C55.0407 52.7 55.3035 52.5911 55.4973 52.3973C55.6911 52.2036 55.8 51.9407 55.8 51.6667V47.5333C55.8 47.2593 55.6911 46.9964 55.4973 46.8027C55.3035 46.6089 55.0407 46.5 54.7666 46.5ZM53.7333 50.6333H51.6666V48.5667H53.7333V50.6333Z" fill="#FFAAA1"/>
<path d="M44.4333 46.5H40.3C40.0259 46.5 39.7631 46.6089 39.5693 46.8027C39.3755 46.9964 39.2667 47.2593 39.2667 47.5333V51.6667C39.2667 51.9407 39.3755 52.2036 39.5693 52.3973C39.7631 52.5911 40.0259 52.7 40.3 52.7H44.4333C44.7074 52.7 44.9702 52.5911 45.164 52.3973C45.3578 52.2036 45.4667 51.9407 45.4667 51.6667V47.5333C45.4667 47.2593 45.3578 46.9964 45.164 46.8027C44.9702 46.6089 44.7074 46.5 44.4333 46.5ZM43.4 50.6333H41.3333V48.5667H43.4V50.6333Z" fill="#FFAAA1"/>
</svg>
