<svg width="64" height="63" viewBox="0 0 64 63" fill="none" xmlns="http://www.w3.org/2000/svg">
<path d="M7.88708 3.96924C7.20804 3.96924 6.65723 4.51993 6.65723 5.19909C6.65723 5.87812 7.20791 6.42893 7.88708 6.42893H7.89926C8.5783 6.42893 9.12308 5.87825 9.12308 5.19909C9.12308 4.52005 8.56624 3.96924 7.88708 3.96924Z" fill="#FFAAA1"/>
<path d="M13.784 3.96924C13.105 3.96924 12.5542 4.51993 12.5542 5.19909C12.5542 5.87812 13.1049 6.42893 13.784 6.42893H13.7964C14.4754 6.42893 15.02 5.87825 15.02 5.19909C15.0199 4.52005 14.4631 3.96924 13.784 3.96924Z" fill="#FFAAA1"/>
<path d="M19.681 3.96924C19.002 3.96924 18.4512 4.51993 18.4512 5.19909C18.4512 5.87812 19.0019 6.42893 19.681 6.42893H19.6932C20.3722 6.42893 20.9169 5.87825 20.9169 5.19909C20.9169 4.52005 20.3603 3.96924 19.681 3.96924Z" fill="#FFAAA1"/>
<path d="M55.1116 3.96924H33.9593C33.2802 3.96924 32.7294 4.51993 32.7294 5.19909C32.7294 5.87812 33.2801 6.42893 33.9593 6.42893H55.1116C55.7906 6.42893 56.3414 5.87825 56.3414 5.19909C56.3413 4.52005 55.7906 3.96924 55.1116 3.96924Z" fill="#FFAAA1"/>
<path d="M61.7762 40.2485C61.0971 40.2485 60.5463 40.7992 60.5463 41.4784V60.5403H48.7258H2.45957V58.0831H6.8556C7.53463 58.0831 8.08545 57.5324 8.08545 56.8532C8.08545 56.1741 7.53476 55.6234 6.8556 55.6234H2.47594L2.45957 10.3981H60.5463V29.6721C60.5463 30.3512 61.097 30.902 61.7762 30.902C62.4553 30.902 63.006 30.3513 63.006 29.6721V1.23096C63.006 0.589451 62.5148 0.0633752 61.888 0.00676823C61.8458 0.00233811 61.8031 0 61.7599 0H1.22985C0.550687 0 0 0.550687 0 1.22985V1.23096V9.16836V61.7701C0 62.4492 0.550687 63 1.22985 63H48.7259H61.7762C62.4552 63 63.006 62.4493 63.006 61.7701V41.4783C63.006 40.7992 62.4553 40.2485 61.7762 40.2485ZM2.45957 2.46068H60.5463V7.93851H2.45957V2.46068Z" fill="#FFAAA1"/>
<path d="M62.6452 34.583C62.4165 34.3541 62.1006 34.2227 61.7757 34.2227C61.4523 34.2227 61.1349 34.3541 60.9063 34.583C60.6775 34.8117 60.5458 35.129 60.5458 35.4524C60.5458 35.7758 60.6774 36.0931 60.9063 36.3218C61.1349 36.5506 61.4522 36.6822 61.7757 36.6822C62.1004 36.6822 62.4165 36.5507 62.6451 36.3218C62.8751 36.0931 63.0054 35.7759 63.0054 35.4524C63.0054 35.1289 62.8752 34.8117 62.6452 34.583Z" fill="#FFAAA1"/>
<path d="M46.0584 36.6822C46.5805 38.3204 48.1165 39.5107 49.9257 39.5107C52.1634 39.5107 53.9841 37.69 53.9841 35.4523C53.9841 33.2146 52.1634 31.394 49.9257 31.394C48.1165 31.394 46.5805 32.5842 46.0584 34.2225H43.983C43.7349 31.685 42.728 29.3668 41.1921 27.4987L44.6126 24.0782C45.3018 24.465 46.0707 24.6596 46.84 24.6596C48.0053 24.6596 49.1705 24.2161 50.0575 23.3291C51.8317 21.5548 51.8317 18.6682 50.0575 16.894C48.2834 15.1198 45.3966 15.1198 43.6224 16.894C42.1497 18.3667 41.9008 20.6058 42.8732 22.3391L39.4528 25.7595C37.5847 24.2237 35.2665 23.2167 32.729 22.9686V20.8932C34.3673 20.3711 35.5575 18.8351 35.5575 17.0259C35.5575 14.7882 33.7369 12.9675 31.4992 12.9675C29.2615 12.9675 27.4408 14.7882 27.4408 17.0259C27.4408 18.8351 28.6311 20.3711 30.2693 20.8932V22.9686C27.731 23.2168 25.4122 24.2242 23.5438 25.7608C23.5337 25.75 23.5247 25.7386 23.5142 25.7281L20.1251 22.3391C21.0975 20.6058 20.8486 18.3668 19.3759 16.894C17.6018 15.1198 14.715 15.1198 12.9408 16.894C11.1667 18.6682 11.1667 21.5548 12.9408 23.3291C13.8278 24.2161 14.9931 24.6596 16.1583 24.6596C16.9277 24.6596 17.6966 24.4649 18.3859 24.0782L21.775 27.4673C21.7854 27.4777 21.797 27.4868 21.8078 27.4969C20.2712 29.3653 19.2637 31.6843 19.0155 34.2225H16.9402C16.4181 32.5841 14.8821 31.394 13.0729 31.394C10.8352 31.394 9.01453 33.2146 9.01453 35.4523C9.01453 37.69 10.8352 39.5107 13.0729 39.5107C14.8821 39.5107 16.4181 38.3204 16.9402 36.6822H19.0156C19.2637 39.2196 20.2706 41.5378 21.8065 43.406L18.3861 46.8264C16.6528 45.854 14.4137 46.1029 12.941 47.5756C11.1668 49.3498 11.1668 52.2364 12.941 54.0107C13.828 54.8977 14.9932 55.3412 16.1585 55.3412C17.3237 55.3412 18.4889 54.8977 19.3759 54.0107C20.8487 52.5379 21.0975 50.2988 20.1251 48.5656L23.5455 45.1451C25.4137 46.6809 27.7319 47.6879 30.2693 47.936V50.0114C28.6309 50.5335 27.4408 52.0695 27.4408 53.8787C27.4408 56.1164 29.2615 57.9371 31.4992 57.9371C33.7369 57.9371 35.5575 56.1164 35.5575 53.8787C35.5575 52.0695 34.3673 50.5335 32.729 50.0114V47.936C35.2665 47.6879 37.5847 46.681 39.4528 45.1451L42.8732 48.5656C41.9008 50.2988 42.1498 52.5378 43.6224 54.0107C44.5094 54.8977 45.6747 55.3412 46.8399 55.3412C48.0052 55.3412 49.1704 54.8977 50.0574 54.0107C51.8316 52.2364 51.8316 49.3498 50.0574 47.5756C48.5848 46.1029 46.3456 45.854 44.6123 46.8264L41.1919 43.406C42.7277 41.5378 43.7347 39.2196 43.9827 36.6822H46.0584ZM49.9257 33.8537C50.8072 33.8537 51.5245 34.5708 51.5245 35.4524C51.5245 36.334 50.8073 37.0512 49.9257 37.0512C49.0443 37.0512 48.327 36.334 48.327 35.4524C48.327 34.5708 49.0441 33.8537 49.9257 33.8537ZM45.3617 18.6333C45.7692 18.2257 46.3046 18.0218 46.84 18.0218C47.3755 18.0218 47.9108 18.2256 48.3183 18.6333C49.1336 19.4484 49.1336 20.7747 48.3183 21.5899C47.5033 22.4051 46.1768 22.4051 45.3617 21.5899C44.5467 20.7747 44.5467 19.4483 45.3617 18.6333ZM17.6369 21.5898C16.8217 22.405 15.4952 22.405 14.6801 21.5898C13.8649 20.7746 13.8649 19.4483 14.6801 18.6331C15.0876 18.2256 15.623 18.0217 16.1585 18.0217C16.6939 18.0217 17.2292 18.2255 17.6368 18.6331C18.4521 19.4483 18.4521 20.7747 17.6369 21.5898ZM13.0729 37.0511C12.1914 37.0511 11.4741 36.3339 11.4741 35.4523C11.4741 34.5707 12.1913 33.8535 13.0729 33.8535C13.9543 33.8535 14.6717 34.5707 14.6717 35.4523C14.6717 36.3339 13.9545 37.0511 13.0729 37.0511ZM17.6368 52.2715C16.8217 53.0867 15.4952 53.0867 14.6801 52.2715C13.8649 51.4563 13.8649 50.13 14.6801 49.3149C15.0876 48.9073 15.623 48.7034 16.1585 48.7034C16.6939 48.7034 17.2292 48.9072 17.6368 49.3149C18.452 50.13 18.452 51.4565 17.6368 52.2715ZM45.3619 49.3149C45.7693 48.9073 46.3047 48.7034 46.8402 48.7034C47.3756 48.7034 47.9109 48.9073 48.3183 49.3149C49.1336 50.13 49.1336 51.4563 48.3183 52.2715C47.5033 53.0867 46.1768 53.0867 45.3617 52.2715C44.5466 51.4563 44.5466 50.13 45.3619 49.3149ZM29.9005 17.026C29.9005 16.1445 30.6177 15.4272 31.4993 15.4272C32.3809 15.4272 33.0981 16.1444 33.0981 17.026C33.0981 17.9075 32.3809 18.6248 31.4993 18.6248C30.6177 18.6248 29.9005 17.9075 29.9005 17.026ZM33.0981 53.8787C33.0981 54.7602 32.3809 55.4775 31.4993 55.4775C30.6177 55.4775 29.9005 54.7603 29.9005 53.8787C29.9005 52.9973 30.6177 52.28 31.4993 52.28C32.3809 52.28 33.0981 52.9973 33.0981 53.8787ZM37.6474 43.4376C35.9442 44.7521 33.8122 45.5367 31.4993 45.5367C29.1863 45.5367 27.0543 44.7521 25.3512 43.4376V41.5709C25.3512 40.612 26.0353 39.7885 26.9781 39.6127L28.2625 39.3731C29.1107 40.1667 30.2489 40.6538 31.4993 40.6538C32.7497 40.6538 33.888 40.1664 34.7361 39.3731L36.0206 39.6128C36.9632 39.7885 37.6474 40.612 37.6474 41.5709V43.4376ZM29.2158 35.9106V33.6244C29.2158 32.3654 30.2403 31.341 31.4993 31.341C32.7583 31.341 33.7828 32.3654 33.7828 33.6244V35.9106C33.7828 37.1697 32.7583 38.1941 31.4993 38.1941C30.2403 38.1941 29.2158 37.1697 29.2158 35.9106ZM40.0404 40.8041C39.726 39.0016 38.3218 37.5399 36.4716 37.1949L36.0847 37.1227C36.1871 36.7357 36.2422 36.3295 36.2422 35.9107V33.6245C36.2422 31.0093 34.1144 28.8816 31.4992 28.8816C28.8839 28.8816 26.7561 31.0094 26.7561 33.6245V35.9107C26.7561 36.3296 26.8114 36.7357 26.9137 37.1227L26.5269 37.1948C24.6768 37.5399 23.2726 39.0017 22.9579 40.8041C21.9817 39.2519 21.4147 37.4177 21.4147 35.4524C21.4149 29.8919 25.9388 25.368 31.4993 25.368C37.0598 25.368 41.5837 29.8919 41.5837 35.4524C41.5837 37.4174 41.0167 39.2519 40.0404 40.8041Z" fill="#FFAAA1"/>
<path d="M11.7148 55.6233H11.6105C10.9314 55.6233 10.3806 56.174 10.3806 56.8531C10.3806 57.5323 10.9313 58.083 11.6105 58.083H11.7148C12.3939 58.083 12.9447 57.5323 12.9447 56.8531C12.9447 56.174 12.394 55.6233 11.7148 55.6233Z" fill="#FFAAA1"/>
</svg>
