<svg width="54" height="54" viewBox="0 0 54 54" fill="none" xmlns="http://www.w3.org/2000/svg">
<path d="M3.48557 48.7769H5.22308V50.5144H3.48557V48.7769Z" fill="#FFAAA1"/>
<path d="M10.4567 48.7769H12.1942V50.5144H10.4567V48.7769Z" fill="#FFAAA1"/>
<path d="M13.9318 48.7769H15.6693V50.5144H13.9318V48.7769Z" fill="#FFAAA1"/>
<path d="M6.97113 48.7769H8.70865V50.5144H6.97113V48.7769Z" fill="#FFAAA1"/>
<path d="M41.8058 45.2913H43.5433V47.0288H41.8058V45.2913Z" fill="#FFAAA1"/>
<path d="M31.3596 45.2913H33.0971V47.0288H31.3596V45.2913Z" fill="#FFAAA1"/>
<path d="M38.3202 45.2913H40.0577V47.0288H38.3202V45.2913Z" fill="#FFAAA1"/>
<path d="M34.8346 45.2913H36.5721V47.0288H34.8346V45.2913Z" fill="#FFAAA1"/>
<path d="M52.2625 29.6115H36.5827C35.6244 29.6115 34.8452 30.3908 34.8452 31.3491V33.0866H15.6798C15.2059 33.0866 14.8058 32.697 14.8058 32.2126V27.8108C21.798 27.3791 27.3896 21.7769 27.8214 14.7952H39.5207L42.1322 20.0183H52.1677C52.8522 20.0183 53.2945 19.3023 52.9891 18.6915L50.6092 13.9212L52.9891 9.15094C53.2945 8.54017 52.8522 7.8241 52.1677 7.8241H42.1322L39.5207 13.0472H27.8214C27.3686 5.79173 21.3241 0 13.9317 0C6.23401 0 0 6.23401 0 13.9317C0 21.3241 5.79173 27.3686 13.0683 27.8214V32.2231C13.0683 33.6658 14.2371 34.8346 15.6798 34.8346H22.6404V40.0577H11.3202C9.87753 40.0577 8.70866 41.2266 8.70866 42.6693V45.2808H1.73752C0.779251 45.2808 0 46.0601 0 47.0183V52.2414C0 53.1997 0.779251 53.9789 1.73752 53.9789H17.4173C18.3756 53.9789 19.1548 53.1997 19.1548 52.2414V47.0183C19.1548 46.0601 18.3756 45.2808 17.4173 45.2808H10.4567V42.6693C10.4567 42.1954 10.8463 41.7952 11.3307 41.7952H22.6404V44.4068C22.6404 45.8495 23.8093 47.0183 25.2519 47.0183H27.8635V48.7559C27.8635 49.7141 28.6427 50.4934 29.601 50.4934H45.2808C46.2391 50.4934 47.0183 49.7141 47.0183 48.7559V43.5328C47.0183 42.5745 46.2391 41.7952 45.2808 41.7952H29.6115C28.6533 41.7952 27.874 42.5745 27.874 43.5328V45.2703H25.2625C24.7886 45.2703 24.3885 44.8807 24.3885 44.3963V34.8136H34.8452V36.5511C34.8452 37.5094 35.6244 38.2886 36.5827 38.2886H52.2625C53.2207 38.2886 54 37.5094 54 36.5511V31.328C54 30.3908 53.2207 29.6115 52.2625 29.6115ZM43.2168 9.58268H50.8514L48.6716 13.9423L50.8514 18.3019H43.2168L41.4793 14.8163H45.2913C45.7757 14.8163 46.1654 14.4267 46.1654 13.9423C46.1654 13.4579 45.7757 13.0683 45.2913 13.0683H41.4793L43.2168 9.58268ZM1.74805 13.4473C2.00078 7.0975 7.16069 1.96919 13.5105 1.74805C20.1342 1.51638 25.631 6.60257 26.0839 13.0683H24.3463C23.8935 7.5819 19.1864 3.27496 13.5316 3.4961C8.01365 3.70671 3.58034 8.24532 3.48557 13.7738C3.3908 19.6182 8.11895 24.3885 13.9317 24.3885C19.397 24.3885 23.8935 20.1658 24.3358 14.8058H26.0733C25.6205 21.124 20.3553 26.126 13.9212 26.126C7.04485 26.126 1.47426 20.3869 1.74805 13.4473ZM19.0811 13.0683C18.6494 10.5094 16.3643 8.58229 13.658 8.71919C10.9832 8.85608 8.81396 11.0464 8.70866 13.7211C8.58229 16.7012 10.9727 19.1654 13.9317 19.1654C16.5117 19.1654 18.6599 17.2804 19.0811 14.8058H22.5983C22.156 19.2707 18.3124 22.7562 13.7106 22.6404C9.19306 22.5246 5.47582 18.9126 5.24415 14.4056C4.98089 9.39314 8.98245 5.22309 13.9423 5.22309C18.4493 5.22309 22.1665 8.66654 22.6088 13.0577H19.0811V13.0683ZM17.291 14.8058C16.8803 16.3959 15.3744 17.5542 13.6158 17.4068C11.931 17.2594 10.5725 15.8799 10.4567 14.1845C10.3093 12.1521 11.931 10.4462 13.9317 10.4462C15.5534 10.4462 16.9013 11.5624 17.291 13.0577H14.8058C14.3214 13.0577 13.9317 13.4473 13.9317 13.9317C13.9317 14.4161 14.3214 14.8058 14.8058 14.8058H17.291ZM17.4173 52.2625H1.73752V47.0394H17.4173V52.2625ZM29.6115 43.5433H45.2913V48.7664H29.6115V43.5433ZM36.5827 36.5827V31.3596H52.2625V36.5827H36.5827Z" fill="#FFAAA1"/>
<path d="M45.2914 33.0972H47.0289V34.8347H45.2914V33.0972Z" fill="#FFAAA1"/>
<path d="M48.7769 33.0972H50.5144V34.8347H48.7769V33.0972Z" fill="#FFAAA1"/>
<path d="M41.8058 33.0972H43.5433V34.8347H41.8058V33.0972Z" fill="#FFAAA1"/>
<path d="M38.3202 33.0972H40.0577V34.8347H38.3202V33.0972Z" fill="#FFAAA1"/>
</svg>
