<svg width="245" height="435" viewBox="0 0 245 435" fill="none" xmlns="http://www.w3.org/2000/svg">
<path d="M-7.2436 393.352L10.1109 416.49C10.1109 416.49 31.8039 399.831 66.5128 399.831C114.238 399.831 127.253 435.001 170.639 435.001C205.348 435.001 231.38 411.863 244.396 388.724L222.703 342.448C222.703 342.448 201.01 360.958 179.317 360.958C148.946 360.958 122.915 342.448 88.2059 342.448C53.497 342.448 18.7881 360.958 -7.2436 393.352Z" fill="#FE857D"/>
<path d="M77.3593 0C-10.2806 0 -81 63.3989 -81 178.165C-81 292.931 -10.2806 356.33 77.3593 356.33C164.999 356.33 235.719 292.931 235.719 178.165C235.719 63.3989 164.999 0 77.3593 0ZM77.3593 282.287C30.5023 282.287 -7.24361 245.266 -7.24361 178.165C-7.24361 111.064 30.5023 74.0426 77.3593 74.0426C124.216 74.0426 161.962 111.064 161.962 178.165C161.962 245.266 124.216 282.287 77.3593 282.287Z" fill="#FE857D"/>
</svg>
